<svg width="415" height="367" viewBox="0 0 415 367" fill="none" xmlns="http://www.w3.org/2000/svg">
<circle opacity="0.6" cx="322" cy="143" r="57" fill="#FF865D"/>
<circle opacity="0.6" cx="143" cy="143" r="143" fill="#FF865D"/>
<path d="M140.333 143C140.333 144.473 141.527 145.667 143 145.667C144.473 145.667 145.667 144.473 145.667 143C145.667 141.527 144.473 140.333 143 140.333C141.527 140.333 140.333 141.527 140.333 143ZM142.5 143V327H143.5V143H142.5Z" fill="#FF865D"/>
<path d="M319.333 143C319.333 144.473 320.527 145.667 322 145.667C323.473 145.667 324.667 144.473 324.667 143C324.667 141.527 323.473 140.333 322 140.333C320.527 140.333 319.333 141.527 319.333 143ZM321.5 143V327H322.5V143H321.5Z" fill="#FF865D"/>
<path d="M318.53 343V342.27C318.53 341.77 318.617 341.37 318.79 341.07C318.97 340.77 319.217 340.53 319.53 340.35C319.85 340.163 320.23 340.003 320.67 339.87L321.22 339.7C321.52 339.607 321.783 339.493 322.01 339.36C322.237 339.22 322.413 339.047 322.54 338.84C322.667 338.627 322.73 338.367 322.73 338.06V338.02C322.73 337.58 322.577 337.233 322.27 336.98C321.963 336.72 321.57 336.59 321.09 336.59C320.583 336.59 320.17 336.727 319.85 337C319.53 337.267 319.37 337.673 319.37 338.22V338.36H318.57V338.23C318.57 337.723 318.68 337.293 318.9 336.94C319.12 336.587 319.42 336.32 319.8 336.14C320.18 335.953 320.61 335.86 321.09 335.86C321.57 335.86 321.993 335.95 322.36 336.13C322.733 336.31 323.023 336.56 323.23 336.88C323.437 337.2 323.54 337.573 323.54 338V338.09C323.54 338.543 323.45 338.92 323.27 339.22C323.09 339.513 322.84 339.753 322.52 339.94C322.207 340.127 321.837 340.287 321.41 340.42L320.87 340.59C320.53 340.697 320.247 340.81 320.02 340.93C319.8 341.043 319.633 341.19 319.52 341.37C319.407 341.55 319.35 341.793 319.35 342.1V342.27H323.48V343H318.53ZM327.225 343.14C326.432 343.14 325.799 342.907 325.325 342.44C324.859 341.967 324.625 341.26 324.625 340.32V338.68C324.625 337.747 324.859 337.043 325.325 336.57C325.799 336.097 326.432 335.86 327.225 335.86C328.025 335.86 328.659 336.097 329.125 336.57C329.599 337.043 329.835 337.747 329.835 338.68V340.32C329.835 341.26 329.599 341.967 329.125 342.44C328.659 342.907 328.025 343.14 327.225 343.14ZM327.225 342.41C327.825 342.41 328.275 342.23 328.575 341.87C328.875 341.51 329.025 341.007 329.025 340.36V338.63C329.025 337.983 328.872 337.483 328.565 337.13C328.259 336.77 327.812 336.59 327.225 336.59C326.639 336.59 326.192 336.77 325.885 337.13C325.585 337.49 325.435 337.99 325.435 338.63V340.36C325.435 341.013 325.585 341.52 325.885 341.88C326.185 342.233 326.632 342.41 327.225 342.41ZM330.962 343V342.27C330.962 341.77 331.048 341.37 331.222 341.07C331.402 340.77 331.648 340.53 331.962 340.35C332.282 340.163 332.662 340.003 333.102 339.87L333.652 339.7C333.952 339.607 334.215 339.493 334.442 339.36C334.668 339.22 334.845 339.047 334.972 338.84C335.098 338.627 335.162 338.367 335.162 338.06V338.02C335.162 337.58 335.008 337.233 334.702 336.98C334.395 336.72 334.002 336.59 333.522 336.59C333.015 336.59 332.602 336.727 332.282 337C331.962 337.267 331.802 337.673 331.802 338.22V338.36H331.002V338.23C331.002 337.723 331.112 337.293 331.332 336.94C331.552 336.587 331.852 336.32 332.232 336.14C332.612 335.953 333.042 335.86 333.522 335.86C334.002 335.86 334.425 335.95 334.792 336.13C335.165 336.31 335.455 336.56 335.662 336.88C335.868 337.2 335.972 337.573 335.972 338V338.09C335.972 338.543 335.882 338.92 335.702 339.22C335.522 339.513 335.272 339.753 334.952 339.94C334.638 340.127 334.268 340.287 333.842 340.42L333.302 340.59C332.962 340.697 332.678 340.81 332.452 340.93C332.232 341.043 332.065 341.19 331.952 341.37C331.838 341.55 331.782 341.793 331.782 342.1V342.27H335.912V343H330.962ZM339.657 343.14C338.864 343.14 338.23 342.907 337.757 342.44C337.29 341.967 337.057 341.26 337.057 340.32V338.68C337.057 337.747 337.29 337.043 337.757 336.57C338.23 336.097 338.864 335.86 339.657 335.86C340.457 335.86 341.09 336.097 341.557 336.57C342.03 337.043 342.267 337.747 342.267 338.68V340.32C342.267 341.26 342.03 341.967 341.557 342.44C341.09 342.907 340.457 343.14 339.657 343.14ZM339.657 342.41C340.257 342.41 340.707 342.23 341.007 341.87C341.307 341.51 341.457 341.007 341.457 340.36V338.63C341.457 337.983 341.304 337.483 340.997 337.13C340.69 336.77 340.244 336.59 339.657 336.59C339.07 336.59 338.624 336.77 338.317 337.13C338.017 337.49 337.867 337.99 337.867 338.63V340.36C337.867 341.013 338.017 341.52 338.317 341.88C338.617 342.233 339.064 342.41 339.657 342.41ZM347.762 343.14C347.422 343.14 347.112 343.08 346.832 342.96C346.552 342.84 346.332 342.667 346.172 342.44C346.012 342.213 345.932 341.937 345.932 341.61C345.932 341.277 346.012 341.003 346.172 340.79C346.332 340.57 346.552 340.407 346.832 340.3C347.112 340.187 347.425 340.13 347.772 340.13H349.422V339.77C349.422 339.423 349.318 339.15 349.112 338.95C348.912 338.75 348.612 338.65 348.212 338.65C347.818 338.65 347.512 338.747 347.292 338.94C347.072 339.127 346.922 339.38 346.842 339.7L346.102 339.46C346.182 339.187 346.308 338.94 346.482 338.72C346.655 338.493 346.885 338.313 347.172 338.18C347.465 338.04 347.815 337.97 348.222 337.97C348.848 337.97 349.335 338.133 349.682 338.46C350.028 338.78 350.202 339.233 350.202 339.82V342.03C350.202 342.23 350.295 342.33 350.482 342.33H350.932V343H350.242C350.022 343 349.845 342.94 349.712 342.82C349.578 342.693 349.512 342.527 349.512 342.32V342.27H349.392C349.318 342.397 349.218 342.53 349.092 342.67C348.972 342.803 348.805 342.913 348.592 343C348.378 343.093 348.102 343.14 347.762 343.14ZM347.852 342.46C348.318 342.46 348.695 342.323 348.982 342.05C349.275 341.77 349.422 341.38 349.422 340.88V340.77H347.802C347.488 340.77 347.228 340.84 347.022 340.98C346.822 341.113 346.722 341.317 346.722 341.59C346.722 341.863 346.825 342.077 347.032 342.23C347.245 342.383 347.518 342.46 347.852 342.46ZM352.98 343L351.23 338.11H352.07L353.54 342.41H353.68L355.15 338.11H355.99L354.24 343H352.98ZM358.475 343.14C358.135 343.14 357.825 343.08 357.545 342.96C357.265 342.84 357.045 342.667 356.885 342.44C356.725 342.213 356.645 341.937 356.645 341.61C356.645 341.277 356.725 341.003 356.885 340.79C357.045 340.57 357.265 340.407 357.545 340.3C357.825 340.187 358.138 340.13 358.485 340.13H360.135V339.77C360.135 339.423 360.031 339.15 359.825 338.95C359.625 338.75 359.325 338.65 358.925 338.65C358.531 338.65 358.225 338.747 358.005 338.94C357.785 339.127 357.635 339.38 357.555 339.7L356.815 339.46C356.895 339.187 357.021 338.94 357.195 338.72C357.368 338.493 357.598 338.313 357.885 338.18C358.178 338.04 358.528 337.97 358.935 337.97C359.561 337.97 360.048 338.133 360.395 338.46C360.741 338.78 360.915 339.233 360.915 339.82V342.03C360.915 342.23 361.008 342.33 361.195 342.33H361.645V343H360.955C360.735 343 360.558 342.94 360.425 342.82C360.291 342.693 360.225 342.527 360.225 342.32V342.27H360.105C360.031 342.397 359.931 342.53 359.805 342.67C359.685 342.803 359.518 342.913 359.305 343C359.091 343.093 358.815 343.14 358.475 343.14ZM358.565 342.46C359.031 342.46 359.408 342.323 359.695 342.05C359.988 341.77 360.135 341.38 360.135 340.88V340.77H358.515C358.201 340.77 357.941 340.84 357.735 340.98C357.535 341.113 357.435 341.317 357.435 341.59C357.435 341.863 357.538 342.077 357.745 342.23C357.958 342.383 358.231 342.46 358.565 342.46ZM362.726 343V338.11H363.516V343H362.726ZM363.126 337.35C362.953 337.35 362.806 337.293 362.686 337.18C362.573 337.067 362.516 336.923 362.516 336.75C362.516 336.57 362.573 336.423 362.686 336.31C362.806 336.197 362.953 336.14 363.126 336.14C363.3 336.14 363.443 336.197 363.556 336.31C363.67 336.423 363.726 336.57 363.726 336.75C363.726 336.923 363.67 337.067 363.556 337.18C363.443 337.293 363.3 337.35 363.126 337.35ZM365.178 343V336H365.968V343H365.178ZM369.129 343.14C368.789 343.14 368.479 343.08 368.199 342.96C367.919 342.84 367.699 342.667 367.539 342.44C367.379 342.213 367.299 341.937 367.299 341.61C367.299 341.277 367.379 341.003 367.539 340.79C367.699 340.57 367.919 340.407 368.199 340.3C368.479 340.187 368.792 340.13 369.139 340.13H370.789V339.77C370.789 339.423 370.685 339.15 370.479 338.95C370.279 338.75 369.979 338.65 369.579 338.65C369.185 338.65 368.879 338.747 368.659 338.94C368.439 339.127 368.289 339.38 368.209 339.7L367.469 339.46C367.549 339.187 367.675 338.94 367.849 338.72C368.022 338.493 368.252 338.313 368.539 338.18C368.832 338.04 369.182 337.97 369.589 337.97C370.215 337.97 370.702 338.133 371.049 338.46C371.395 338.78 371.569 339.233 371.569 339.82V342.03C371.569 342.23 371.662 342.33 371.849 342.33H372.299V343H371.609C371.389 343 371.212 342.94 371.079 342.82C370.945 342.693 370.879 342.527 370.879 342.32V342.27H370.759C370.685 342.397 370.585 342.53 370.459 342.67C370.339 342.803 370.172 342.913 369.959 343C369.745 343.093 369.469 343.14 369.129 343.14ZM369.219 342.46C369.685 342.46 370.062 342.323 370.349 342.05C370.642 341.77 370.789 341.38 370.789 340.88V340.77H369.169C368.855 340.77 368.595 340.84 368.389 340.98C368.189 341.113 368.089 341.317 368.089 341.59C368.089 341.863 368.192 342.077 368.399 342.23C368.612 342.383 368.885 342.46 369.219 342.46ZM376.091 343.14C375.584 343.14 375.187 343.043 374.901 342.85C374.621 342.657 374.417 342.437 374.291 342.19H374.151V343H373.381V336H374.171V338.88H374.311C374.391 338.727 374.504 338.583 374.651 338.45C374.797 338.31 374.987 338.197 375.221 338.11C375.461 338.017 375.751 337.97 376.091 337.97C376.517 337.97 376.904 338.073 377.251 338.28C377.604 338.48 377.884 338.77 378.091 339.15C378.297 339.523 378.401 339.97 378.401 340.49V340.62C378.401 341.14 378.294 341.59 378.081 341.97C377.874 342.35 377.594 342.64 377.241 342.84C376.894 343.04 376.511 343.14 376.091 343.14ZM375.881 342.44C376.387 342.44 376.797 342.28 377.111 341.96C377.431 341.633 377.591 341.18 377.591 340.6V340.51C377.591 339.93 377.431 339.48 377.111 339.16C376.797 338.833 376.387 338.67 375.881 338.67C375.381 338.67 374.967 338.833 374.641 339.16C374.321 339.48 374.161 339.93 374.161 340.51V340.6C374.161 341.18 374.321 341.633 374.641 341.96C374.967 342.28 375.381 342.44 375.881 342.44ZM379.816 343V336H380.606V343H379.816ZM384.508 343.14C384.014 343.14 383.581 343.037 383.208 342.83C382.834 342.617 382.544 342.32 382.338 341.94C382.131 341.56 382.028 341.12 382.028 340.62V340.5C382.028 339.993 382.131 339.55 382.338 339.17C382.544 338.79 382.831 338.497 383.198 338.29C383.564 338.077 383.984 337.97 384.458 337.97C384.918 337.97 385.324 338.07 385.678 338.27C386.031 338.463 386.308 338.743 386.508 339.11C386.708 339.477 386.808 339.907 386.808 340.4V340.76H382.818C382.838 341.287 383.008 341.7 383.328 342C383.648 342.293 384.048 342.44 384.528 342.44C384.948 342.44 385.271 342.343 385.498 342.15C385.724 341.957 385.898 341.727 386.018 341.46L386.698 341.79C386.598 341.997 386.458 342.203 386.278 342.41C386.104 342.617 385.874 342.79 385.588 342.93C385.308 343.07 384.948 343.14 384.508 343.14ZM382.828 340.11H386.008C385.981 339.657 385.824 339.303 385.538 339.05C385.258 338.797 384.898 338.67 384.458 338.67C384.011 338.67 383.644 338.797 383.358 339.05C383.071 339.303 382.894 339.657 382.828 340.11ZM392.624 343.09C392.27 343.09 391.944 343.013 391.644 342.86C391.35 342.707 391.117 342.48 390.944 342.18C390.777 341.873 390.694 341.503 390.694 341.07V338.11H391.484V341.01C391.484 341.497 391.604 341.85 391.844 342.07C392.09 342.29 392.42 342.4 392.834 342.4C393.3 342.4 393.684 342.247 393.984 341.94C394.284 341.633 394.434 341.177 394.434 340.57V338.11H395.224V343H394.454V342.17H394.314C394.207 342.403 394.024 342.617 393.764 342.81C393.504 342.997 393.124 343.09 392.624 343.09ZM396.877 343V338.11H397.647V338.94H397.787C397.894 338.707 398.074 338.497 398.327 338.31C398.587 338.117 398.967 338.02 399.467 338.02C399.834 338.02 400.16 338.097 400.447 338.25C400.74 338.403 400.974 338.63 401.147 338.93C401.32 339.23 401.407 339.6 401.407 340.04V343H400.617V340.1C400.617 339.613 400.494 339.26 400.247 339.04C400.007 338.82 399.68 338.71 399.267 338.71C398.794 338.71 398.407 338.863 398.107 339.17C397.814 339.477 397.667 339.933 397.667 340.54V343H396.877ZM403.01 343V338.11H403.8V343H403.01ZM403.41 337.35C403.236 337.35 403.09 337.293 402.97 337.18C402.856 337.067 402.8 336.923 402.8 336.75C402.8 336.57 402.856 336.423 402.97 336.31C403.09 336.197 403.236 336.14 403.41 336.14C403.583 336.14 403.726 336.197 403.84 336.31C403.953 336.423 404.01 336.57 404.01 336.75C404.01 336.923 403.953 337.067 403.84 337.18C403.726 337.293 403.583 337.35 403.41 337.35ZM407.261 343C406.981 343 406.764 342.923 406.611 342.77C406.464 342.617 406.391 342.407 406.391 342.14V338.8H404.921V338.11H406.391V336.37H407.181V338.11H408.781V338.8H407.181V342.02C407.181 342.22 407.278 342.32 407.471 342.32H408.561V343H407.261ZM412.03 343.14C411.424 343.14 410.91 343 410.49 342.72C410.077 342.44 409.827 341.997 409.74 341.39L410.49 341.22C410.544 341.54 410.644 341.793 410.79 341.98C410.937 342.16 411.117 342.29 411.33 342.37C411.55 342.443 411.784 342.48 412.03 342.48C412.397 342.48 412.687 342.407 412.9 342.26C413.114 342.113 413.22 341.917 413.22 341.67C413.22 341.417 413.117 341.24 412.91 341.14C412.71 341.033 412.434 340.947 412.08 340.88L411.67 340.81C411.357 340.757 411.07 340.673 410.81 340.56C410.55 340.447 410.344 340.293 410.19 340.1C410.037 339.907 409.96 339.663 409.96 339.37C409.96 338.93 410.13 338.587 410.47 338.34C410.81 338.093 411.26 337.97 411.82 337.97C412.374 337.97 412.82 338.097 413.16 338.35C413.507 338.597 413.73 338.947 413.83 339.4L413.09 339.59C413.03 339.237 412.887 338.99 412.66 338.85C412.434 338.703 412.154 338.63 411.82 338.63C411.487 338.63 411.224 338.693 411.03 338.82C410.837 338.94 410.74 339.12 410.74 339.36C410.74 339.593 410.83 339.767 411.01 339.88C411.197 339.987 411.444 340.067 411.75 340.12L412.16 340.19C412.507 340.25 412.817 340.333 413.09 340.44C413.37 340.54 413.59 340.687 413.75 340.88C413.917 341.073 414 341.327 414 341.64C414 342.12 413.82 342.49 413.46 342.75C413.107 343.01 412.63 343.14 412.03 343.14Z" fill="#808389"/>
<path d="M137.53 343V342.27C137.53 341.77 137.617 341.37 137.79 341.07C137.97 340.77 138.217 340.53 138.53 340.35C138.85 340.163 139.23 340.003 139.67 339.87L140.22 339.7C140.52 339.607 140.783 339.493 141.01 339.36C141.237 339.22 141.413 339.047 141.54 338.84C141.667 338.627 141.73 338.367 141.73 338.06V338.02C141.73 337.58 141.577 337.233 141.27 336.98C140.963 336.72 140.57 336.59 140.09 336.59C139.583 336.59 139.17 336.727 138.85 337C138.53 337.267 138.37 337.673 138.37 338.22V338.36H137.57V338.23C137.57 337.723 137.68 337.293 137.9 336.94C138.12 336.587 138.42 336.32 138.8 336.14C139.18 335.953 139.61 335.86 140.09 335.86C140.57 335.86 140.993 335.95 141.36 336.13C141.733 336.31 142.023 336.56 142.23 336.88C142.437 337.2 142.54 337.573 142.54 338V338.09C142.54 338.543 142.45 338.92 142.27 339.22C142.09 339.513 141.84 339.753 141.52 339.94C141.207 340.127 140.837 340.287 140.41 340.42L139.87 340.59C139.53 340.697 139.247 340.81 139.02 340.93C138.8 341.043 138.633 341.19 138.52 341.37C138.407 341.55 138.35 341.793 138.35 342.1V342.27H142.48V343H137.53ZM146.225 343.14C145.432 343.14 144.799 342.907 144.325 342.44C143.859 341.967 143.625 341.26 143.625 340.32V338.68C143.625 337.747 143.859 337.043 144.325 336.57C144.799 336.097 145.432 335.86 146.225 335.86C147.025 335.86 147.659 336.097 148.125 336.57C148.599 337.043 148.835 337.747 148.835 338.68V340.32C148.835 341.26 148.599 341.967 148.125 342.44C147.659 342.907 147.025 343.14 146.225 343.14ZM146.225 342.41C146.825 342.41 147.275 342.23 147.575 341.87C147.875 341.51 148.025 341.007 148.025 340.36V338.63C148.025 337.983 147.872 337.483 147.565 337.13C147.259 336.77 146.812 336.59 146.225 336.59C145.639 336.59 145.192 336.77 144.885 337.13C144.585 337.49 144.435 337.99 144.435 338.63V340.36C144.435 341.013 144.585 341.52 144.885 341.88C145.185 342.233 145.632 342.41 146.225 342.41ZM149.962 343V342.27C149.962 341.77 150.048 341.37 150.222 341.07C150.402 340.77 150.648 340.53 150.962 340.35C151.282 340.163 151.662 340.003 152.102 339.87L152.652 339.7C152.952 339.607 153.215 339.493 153.442 339.36C153.668 339.22 153.845 339.047 153.972 338.84C154.098 338.627 154.162 338.367 154.162 338.06V338.02C154.162 337.58 154.008 337.233 153.702 336.98C153.395 336.72 153.002 336.59 152.522 336.59C152.015 336.59 151.602 336.727 151.282 337C150.962 337.267 150.802 337.673 150.802 338.22V338.36H150.002V338.23C150.002 337.723 150.112 337.293 150.332 336.94C150.552 336.587 150.852 336.32 151.232 336.14C151.612 335.953 152.042 335.86 152.522 335.86C153.002 335.86 153.425 335.95 153.792 336.13C154.165 336.31 154.455 336.56 154.662 336.88C154.868 337.2 154.972 337.573 154.972 338V338.09C154.972 338.543 154.882 338.92 154.702 339.22C154.522 339.513 154.272 339.753 153.952 339.94C153.638 340.127 153.268 340.287 152.842 340.42L152.302 340.59C151.962 340.697 151.678 340.81 151.452 340.93C151.232 341.043 151.065 341.19 150.952 341.37C150.838 341.55 150.782 341.793 150.782 342.1V342.27H154.912V343H149.962ZM158.657 343.14C157.864 343.14 157.23 342.907 156.757 342.44C156.29 341.967 156.057 341.26 156.057 340.32V338.68C156.057 337.747 156.29 337.043 156.757 336.57C157.23 336.097 157.864 335.86 158.657 335.86C159.457 335.86 160.09 336.097 160.557 336.57C161.03 337.043 161.267 337.747 161.267 338.68V340.32C161.267 341.26 161.03 341.967 160.557 342.44C160.09 342.907 159.457 343.14 158.657 343.14ZM158.657 342.41C159.257 342.41 159.707 342.23 160.007 341.87C160.307 341.51 160.457 341.007 160.457 340.36V338.63C160.457 337.983 160.304 337.483 159.997 337.13C159.69 336.77 159.244 336.59 158.657 336.59C158.07 336.59 157.624 336.77 157.317 337.13C157.017 337.49 156.867 337.99 156.867 338.63V340.36C156.867 341.013 157.017 341.52 157.317 341.88C157.617 342.233 158.064 342.41 158.657 342.41ZM167.502 343.14C167.008 343.14 166.575 343.037 166.202 342.83C165.828 342.617 165.538 342.32 165.332 341.94C165.125 341.56 165.022 341.12 165.022 340.62V340.5C165.022 339.993 165.125 339.55 165.332 339.17C165.538 338.79 165.825 338.497 166.192 338.29C166.558 338.077 166.978 337.97 167.452 337.97C167.912 337.97 168.318 338.07 168.672 338.27C169.025 338.463 169.302 338.743 169.502 339.11C169.702 339.477 169.802 339.907 169.802 340.4V340.76H165.812C165.832 341.287 166.002 341.7 166.322 342C166.642 342.293 167.042 342.44 167.522 342.44C167.942 342.44 168.265 342.343 168.492 342.15C168.718 341.957 168.892 341.727 169.012 341.46L169.692 341.79C169.592 341.997 169.452 342.203 169.272 342.41C169.098 342.617 168.868 342.79 168.582 342.93C168.302 343.07 167.942 343.14 167.502 343.14ZM165.822 340.11H169.002C168.975 339.657 168.818 339.303 168.532 339.05C168.252 338.797 167.892 338.67 167.452 338.67C167.005 338.67 166.638 338.797 166.352 339.05C166.065 339.303 165.888 339.657 165.822 340.11ZM171.18 343V338.11H171.95V338.72H172.09C172.183 338.547 172.336 338.387 172.55 338.24C172.763 338.093 173.063 338.02 173.45 338.02C173.83 338.02 174.136 338.103 174.37 338.27C174.61 338.437 174.783 338.64 174.89 338.88H175.03C175.143 338.64 175.313 338.437 175.54 338.27C175.773 338.103 176.096 338.02 176.51 338.02C176.836 338.02 177.123 338.087 177.37 338.22C177.616 338.353 177.81 338.547 177.95 338.8C178.096 339.047 178.17 339.343 178.17 339.69V343H177.38V339.76C177.38 339.433 177.283 339.177 177.09 338.99C176.903 338.797 176.64 338.7 176.3 338.7C175.94 338.7 175.643 338.817 175.41 339.05C175.183 339.283 175.07 339.62 175.07 340.06V343H174.28V339.76C174.28 339.433 174.183 339.177 173.99 338.99C173.803 338.797 173.54 338.7 173.2 338.7C172.84 338.7 172.543 338.817 172.31 339.05C172.083 339.283 171.97 339.62 171.97 340.06V343H171.18ZM179.783 343V338.11H180.573V343H179.783ZM180.183 337.35C180.01 337.35 179.863 337.293 179.743 337.18C179.63 337.067 179.573 336.923 179.573 336.75C179.573 336.57 179.63 336.423 179.743 336.31C179.863 336.197 180.01 336.14 180.183 336.14C180.356 336.14 180.5 336.197 180.613 336.31C180.726 336.423 180.783 336.57 180.783 336.75C180.783 336.923 180.726 337.067 180.613 337.18C180.5 337.293 180.356 337.35 180.183 337.35ZM184.204 343.14C183.598 343.14 183.084 343 182.664 342.72C182.251 342.44 182.001 341.997 181.914 341.39L182.664 341.22C182.718 341.54 182.818 341.793 182.964 341.98C183.111 342.16 183.291 342.29 183.504 342.37C183.724 342.443 183.958 342.48 184.204 342.48C184.571 342.48 184.861 342.407 185.074 342.26C185.288 342.113 185.394 341.917 185.394 341.67C185.394 341.417 185.291 341.24 185.084 341.14C184.884 341.033 184.608 340.947 184.254 340.88L183.844 340.81C183.531 340.757 183.244 340.673 182.984 340.56C182.724 340.447 182.518 340.293 182.364 340.1C182.211 339.907 182.134 339.663 182.134 339.37C182.134 338.93 182.304 338.587 182.644 338.34C182.984 338.093 183.434 337.97 183.994 337.97C184.548 337.97 184.994 338.097 185.334 338.35C185.681 338.597 185.904 338.947 186.004 339.4L185.264 339.59C185.204 339.237 185.061 338.99 184.834 338.85C184.608 338.703 184.328 338.63 183.994 338.63C183.661 338.63 183.398 338.693 183.204 338.82C183.011 338.94 182.914 339.12 182.914 339.36C182.914 339.593 183.004 339.767 183.184 339.88C183.371 339.987 183.618 340.067 183.924 340.12L184.334 340.19C184.681 340.25 184.991 340.333 185.264 340.44C185.544 340.54 185.764 340.687 185.924 340.88C186.091 341.073 186.174 341.327 186.174 341.64C186.174 342.12 185.994 342.49 185.634 342.75C185.281 343.01 184.804 343.14 184.204 343.14ZM189.478 343.14C188.871 343.14 188.358 343 187.938 342.72C187.524 342.44 187.274 341.997 187.188 341.39L187.938 341.22C187.991 341.54 188.091 341.793 188.238 341.98C188.384 342.16 188.564 342.29 188.778 342.37C188.998 342.443 189.231 342.48 189.478 342.48C189.844 342.48 190.134 342.407 190.348 342.26C190.561 342.113 190.668 341.917 190.668 341.67C190.668 341.417 190.564 341.24 190.358 341.14C190.158 341.033 189.881 340.947 189.528 340.88L189.118 340.81C188.804 340.757 188.518 340.673 188.258 340.56C187.998 340.447 187.791 340.293 187.638 340.1C187.484 339.907 187.408 339.663 187.408 339.37C187.408 338.93 187.578 338.587 187.918 338.34C188.258 338.093 188.708 337.97 189.268 337.97C189.821 337.97 190.268 338.097 190.608 338.35C190.954 338.597 191.178 338.947 191.278 339.4L190.538 339.59C190.478 339.237 190.334 338.99 190.108 338.85C189.881 338.703 189.601 338.63 189.268 338.63C188.934 338.63 188.671 338.693 188.478 338.82C188.284 338.94 188.188 339.12 188.188 339.36C188.188 339.593 188.278 339.767 188.458 339.88C188.644 339.987 188.891 340.067 189.198 340.12L189.608 340.19C189.954 340.25 190.264 340.333 190.538 340.44C190.818 340.54 191.038 340.687 191.198 340.88C191.364 341.073 191.448 341.327 191.448 341.64C191.448 342.12 191.268 342.49 190.908 342.75C190.554 343.01 190.078 343.14 189.478 343.14ZM192.781 343V338.11H193.571V343H192.781ZM193.181 337.35C193.008 337.35 192.861 337.293 192.741 337.18C192.628 337.067 192.571 336.923 192.571 336.75C192.571 336.57 192.628 336.423 192.741 336.31C192.861 336.197 193.008 336.14 193.181 336.14C193.355 336.14 193.498 336.197 193.611 336.31C193.725 336.423 193.781 336.57 193.781 336.75C193.781 336.923 193.725 337.067 193.611 337.18C193.498 337.293 193.355 337.35 193.181 337.35ZM197.492 343.14C196.999 343.14 196.562 343.037 196.182 342.83C195.809 342.623 195.516 342.333 195.302 341.96C195.096 341.58 194.992 341.133 194.992 340.62V340.49C194.992 339.983 195.096 339.54 195.302 339.16C195.516 338.78 195.809 338.487 196.182 338.28C196.562 338.073 196.999 337.97 197.492 337.97C197.986 337.97 198.419 338.073 198.792 338.28C199.172 338.487 199.466 338.78 199.672 339.16C199.886 339.54 199.992 339.983 199.992 340.49V340.62C199.992 341.133 199.886 341.58 199.672 341.96C199.466 342.333 199.172 342.623 198.792 342.83C198.419 343.037 197.986 343.14 197.492 343.14ZM197.492 342.43C198.012 342.43 198.426 342.267 198.732 341.94C199.046 341.607 199.202 341.16 199.202 340.6V340.51C199.202 339.95 199.046 339.507 198.732 339.18C198.426 338.847 198.012 338.68 197.492 338.68C196.979 338.68 196.566 338.847 196.252 339.18C195.939 339.507 195.782 339.95 195.782 340.51V340.6C195.782 341.16 195.939 341.607 196.252 341.94C196.566 342.267 196.979 342.43 197.492 342.43ZM201.414 343V338.11H202.184V338.94H202.324C202.431 338.707 202.611 338.497 202.864 338.31C203.124 338.117 203.504 338.02 204.004 338.02C204.371 338.02 204.697 338.097 204.984 338.25C205.277 338.403 205.511 338.63 205.684 338.93C205.857 339.23 205.944 339.6 205.944 340.04V343H205.154V340.1C205.154 339.613 205.031 339.26 204.784 339.04C204.544 338.82 204.217 338.71 203.804 338.71C203.331 338.71 202.944 338.863 202.644 339.17C202.351 339.477 202.204 339.933 202.204 340.54V343H201.414ZM209.517 343.14C208.91 343.14 208.397 343 207.977 342.72C207.563 342.44 207.313 341.997 207.227 341.39L207.977 341.22C208.03 341.54 208.13 341.793 208.277 341.98C208.423 342.16 208.603 342.29 208.817 342.37C209.037 342.443 209.27 342.48 209.517 342.48C209.883 342.48 210.173 342.407 210.387 342.26C210.6 342.113 210.707 341.917 210.707 341.67C210.707 341.417 210.603 341.24 210.397 341.14C210.197 341.033 209.92 340.947 209.567 340.88L209.157 340.81C208.843 340.757 208.557 340.673 208.297 340.56C208.037 340.447 207.83 340.293 207.677 340.1C207.523 339.907 207.447 339.663 207.447 339.37C207.447 338.93 207.617 338.587 207.957 338.34C208.297 338.093 208.747 337.97 209.307 337.97C209.86 337.97 210.307 338.097 210.647 338.35C210.993 338.597 211.217 338.947 211.317 339.4L210.577 339.59C210.517 339.237 210.373 338.99 210.147 338.85C209.92 338.703 209.64 338.63 209.307 338.63C208.973 338.63 208.71 338.693 208.517 338.82C208.323 338.94 208.227 339.12 208.227 339.36C208.227 339.593 208.317 339.767 208.497 339.88C208.683 339.987 208.93 340.067 209.237 340.12L209.647 340.19C209.993 340.25 210.303 340.333 210.577 340.44C210.857 340.54 211.077 340.687 211.237 340.88C211.403 341.073 211.487 341.327 211.487 341.64C211.487 342.12 211.307 342.49 210.947 342.75C210.593 343.01 210.117 343.14 209.517 343.14Z" fill="#808389"/>
<path d="M321.612 362V353.516H321.36L320.044 356.624H318.168L320.17 352.2H323.404V362H321.612ZM328.53 362.196C327.783 362.196 327.121 362.084 326.542 361.86C325.973 361.636 325.525 361.314 325.198 360.894C324.881 360.465 324.722 359.961 324.722 359.382V359.214C324.722 358.766 324.801 358.397 324.96 358.108C325.119 357.809 325.315 357.576 325.548 357.408C325.791 357.24 326.019 357.123 326.234 357.058V356.806C326.019 356.731 325.805 356.61 325.59 356.442C325.375 356.274 325.198 356.05 325.058 355.77C324.927 355.49 324.862 355.154 324.862 354.762V354.594C324.862 354.081 325.011 353.633 325.31 353.25C325.618 352.858 326.047 352.555 326.598 352.34C327.149 352.116 327.793 352.004 328.53 352.004C329.267 352.004 329.911 352.116 330.462 352.34C331.013 352.555 331.437 352.858 331.736 353.25C332.044 353.633 332.198 354.081 332.198 354.594V354.762C332.198 355.154 332.128 355.49 331.988 355.77C331.857 356.05 331.685 356.274 331.47 356.442C331.265 356.61 331.05 356.731 330.826 356.806V357.058C331.05 357.123 331.279 357.24 331.512 357.408C331.745 357.576 331.941 357.809 332.1 358.108C332.259 358.397 332.338 358.766 332.338 359.214V359.382C332.338 359.961 332.175 360.465 331.848 360.894C331.531 361.314 331.083 361.636 330.504 361.86C329.935 362.084 329.277 362.196 328.53 362.196ZM328.53 360.6C329.174 360.6 329.669 360.479 330.014 360.236C330.369 359.984 330.546 359.653 330.546 359.242V359.13C330.546 358.719 330.373 358.393 330.028 358.15C329.692 357.898 329.193 357.772 328.53 357.772C327.877 357.772 327.377 357.898 327.032 358.15C326.687 358.393 326.514 358.719 326.514 359.13V359.242C326.514 359.653 326.687 359.984 327.032 360.236C327.387 360.479 327.886 360.6 328.53 360.6ZM328.53 356.176C329.127 356.176 329.589 356.069 329.916 355.854C330.243 355.639 330.406 355.336 330.406 354.944V354.832C330.406 354.44 330.238 354.137 329.902 353.922C329.566 353.707 329.109 353.6 328.53 353.6C327.951 353.6 327.494 353.707 327.158 353.922C326.822 354.137 326.654 354.44 326.654 354.832V354.944C326.654 355.336 326.817 355.639 327.144 355.854C327.471 356.069 327.933 356.176 328.53 356.176ZM337.203 362V352.2H340.633L342.327 360.74H342.579L344.273 352.2H347.703V362H345.911V353.558H345.659L343.979 362H340.927L339.247 353.558H338.995V362H337.203ZM352.265 362C351.808 362 351.434 361.86 351.145 361.58C350.865 361.291 350.725 360.908 350.725 360.432V356.512H348.989V355.056H350.725V352.9H352.489V355.056H354.393V356.512H352.489V360.124C352.489 360.404 352.62 360.544 352.881 360.544H354.225V362H352.265ZM359.658 362.196C358.444 362.196 357.483 361.86 356.774 361.188C356.064 360.507 355.71 359.536 355.71 358.276V355.924C355.71 354.664 356.064 353.698 356.774 353.026C357.483 352.345 358.444 352.004 359.658 352.004C360.862 352.004 361.79 352.335 362.444 352.998C363.106 353.651 363.438 354.552 363.438 355.7V355.784H361.618V355.644C361.618 355.065 361.454 354.589 361.128 354.216C360.81 353.843 360.32 353.656 359.658 353.656C359.004 353.656 358.491 353.857 358.118 354.258C357.744 354.659 357.558 355.205 357.558 355.896V358.304C357.558 358.985 357.744 359.531 358.118 359.942C358.491 360.343 359.004 360.544 359.658 360.544C360.32 360.544 360.81 360.357 361.128 359.984C361.454 359.601 361.618 359.125 361.618 358.556V358.304H363.438V358.5C363.438 359.648 363.106 360.553 362.444 361.216C361.79 361.869 360.862 362.196 359.658 362.196ZM368.752 362.196C367.52 362.196 366.54 361.86 365.812 361.188C365.084 360.507 364.72 359.536 364.72 358.276V355.924C364.72 354.664 365.084 353.698 365.812 353.026C366.54 352.345 367.52 352.004 368.752 352.004C369.984 352.004 370.964 352.345 371.692 353.026C372.42 353.698 372.784 354.664 372.784 355.924V358.276C372.784 359.536 372.42 360.507 371.692 361.188C370.964 361.86 369.984 362.196 368.752 362.196ZM368.752 360.544C369.442 360.544 369.979 360.343 370.362 359.942C370.744 359.541 370.936 359.004 370.936 358.332V355.868C370.936 355.196 370.744 354.659 370.362 354.258C369.979 353.857 369.442 353.656 368.752 353.656C368.07 353.656 367.534 353.857 367.142 354.258C366.759 354.659 366.568 355.196 366.568 355.868V358.332C366.568 359.004 366.759 359.541 367.142 359.942C367.534 360.343 368.07 360.544 368.752 360.544ZM373.844 364.8V364.184C373.844 363.624 373.994 363.185 374.292 362.868C374.591 362.551 375.053 362.322 375.678 362.182C376.089 362.089 376.388 361.981 376.574 361.86C376.77 361.739 376.868 361.58 376.868 361.384C376.868 361.197 376.794 361.053 376.644 360.95C376.495 360.847 376.308 360.796 376.084 360.796C375.86 360.796 375.664 360.857 375.496 360.978C375.328 361.09 375.235 361.291 375.216 361.58L373.9 361.482C373.947 360.913 374.171 360.479 374.572 360.18C374.974 359.881 375.478 359.732 376.084 359.732C376.691 359.732 377.19 359.886 377.582 360.194C377.984 360.493 378.184 360.894 378.184 361.398C378.184 361.902 378.007 362.28 377.652 362.532C377.307 362.784 376.836 362.975 376.238 363.106C375.865 363.181 375.604 363.265 375.454 363.358C375.314 363.451 375.244 363.577 375.244 363.736H378.156V364.8H373.844ZM382.724 362.196C382.033 362.196 381.422 362.051 380.89 361.762C380.367 361.463 379.957 361.048 379.658 360.516C379.369 359.975 379.224 359.34 379.224 358.612V358.444C379.224 357.716 379.369 357.086 379.658 356.554C379.947 356.013 380.353 355.597 380.876 355.308C381.399 355.009 382.005 354.86 382.696 354.86C383.377 354.86 383.97 355.014 384.474 355.322C384.978 355.621 385.37 356.041 385.65 356.582C385.93 357.114 386.07 357.735 386.07 358.444V359.046H381.016C381.035 359.522 381.212 359.909 381.548 360.208C381.884 360.507 382.295 360.656 382.78 360.656C383.275 360.656 383.639 360.549 383.872 360.334C384.105 360.119 384.283 359.881 384.404 359.62L385.846 360.376C385.715 360.619 385.524 360.885 385.272 361.174C385.029 361.454 384.703 361.697 384.292 361.902C383.881 362.098 383.359 362.196 382.724 362.196ZM381.03 357.73H384.278C384.241 357.329 384.077 357.007 383.788 356.764C383.508 356.521 383.139 356.4 382.682 356.4C382.206 356.4 381.828 356.521 381.548 356.764C381.268 357.007 381.095 357.329 381.03 357.73Z" fill="#2C303B"/>
<path d="M142.18 362V360.012H137.364V357.94L140.752 352.2H143.972V358.416H145.596V360.012H143.972V362H142.18ZM139.072 358.416H142.18V353.348H141.928L139.072 358.192V358.416ZM150.436 362.196C149.279 362.196 148.35 361.879 147.65 361.244C146.95 360.6 146.6 359.629 146.6 358.332V355.868C146.6 354.608 146.95 353.651 147.65 352.998C148.35 352.335 149.279 352.004 150.436 352.004C151.603 352.004 152.532 352.335 153.222 352.998C153.922 353.651 154.272 354.608 154.272 355.868V358.332C154.272 359.629 153.922 360.6 153.222 361.244C152.532 361.879 151.603 362.196 150.436 362.196ZM150.436 360.6C151.136 360.6 151.65 360.409 151.976 360.026C152.312 359.643 152.48 359.097 152.48 358.388V355.784C152.48 355.065 152.294 354.524 151.92 354.16C151.556 353.787 151.062 353.6 150.436 353.6C149.792 353.6 149.288 353.791 148.924 354.174C148.57 354.557 148.392 355.093 148.392 355.784V358.388C148.392 359.125 148.56 359.681 148.896 360.054C149.242 360.418 149.755 360.6 150.436 360.6ZM159.515 362.196C158.357 362.196 157.429 361.879 156.729 361.244C156.029 360.6 155.679 359.629 155.679 358.332V355.868C155.679 354.608 156.029 353.651 156.729 352.998C157.429 352.335 158.357 352.004 159.515 352.004C160.681 352.004 161.61 352.335 162.301 352.998C163.001 353.651 163.351 354.608 163.351 355.868V358.332C163.351 359.629 163.001 360.6 162.301 361.244C161.61 361.879 160.681 362.196 159.515 362.196ZM159.515 360.6C160.215 360.6 160.728 360.409 161.055 360.026C161.391 359.643 161.559 359.097 161.559 358.388V355.784C161.559 355.065 161.372 354.524 160.999 354.16C160.635 353.787 160.14 353.6 159.515 353.6C158.871 353.6 158.367 353.791 158.003 354.174C157.648 354.557 157.471 355.093 157.471 355.784V358.388C157.471 359.125 157.639 359.681 157.975 360.054C158.32 360.418 158.833 360.6 159.515 360.6ZM168.535 362V352.2H171.965L173.659 360.74H173.911L175.605 352.2H179.035V362H177.243V353.558H176.991L175.311 362H172.259L170.579 353.558H170.327V362H168.535ZM183.597 362C183.14 362 182.766 361.86 182.477 361.58C182.197 361.291 182.057 360.908 182.057 360.432V356.512H180.321V355.056H182.057V352.9H183.821V355.056H185.725V356.512H183.821V360.124C183.821 360.404 183.952 360.544 184.213 360.544H185.557V362H183.597ZM190.99 362.196C189.776 362.196 188.815 361.86 188.106 361.188C187.396 360.507 187.042 359.536 187.042 358.276V355.924C187.042 354.664 187.396 353.698 188.106 353.026C188.815 352.345 189.776 352.004 190.99 352.004C192.194 352.004 193.122 352.335 193.776 352.998C194.438 353.651 194.77 354.552 194.77 355.7V355.784H192.95V355.644C192.95 355.065 192.786 354.589 192.46 354.216C192.142 353.843 191.652 353.656 190.99 353.656C190.336 353.656 189.823 353.857 189.45 354.258C189.076 354.659 188.89 355.205 188.89 355.896V358.304C188.89 358.985 189.076 359.531 189.45 359.942C189.823 360.343 190.336 360.544 190.99 360.544C191.652 360.544 192.142 360.357 192.46 359.984C192.786 359.601 192.95 359.125 192.95 358.556V358.304H194.77V358.5C194.77 359.648 194.438 360.553 193.776 361.216C193.122 361.869 192.194 362.196 190.99 362.196ZM200.084 362.196C198.852 362.196 197.872 361.86 197.144 361.188C196.416 360.507 196.052 359.536 196.052 358.276V355.924C196.052 354.664 196.416 353.698 197.144 353.026C197.872 352.345 198.852 352.004 200.084 352.004C201.316 352.004 202.296 352.345 203.024 353.026C203.752 353.698 204.116 354.664 204.116 355.924V358.276C204.116 359.536 203.752 360.507 203.024 361.188C202.296 361.86 201.316 362.196 200.084 362.196ZM200.084 360.544C200.774 360.544 201.311 360.343 201.694 359.942C202.076 359.541 202.268 359.004 202.268 358.332V355.868C202.268 355.196 202.076 354.659 201.694 354.258C201.311 353.857 200.774 353.656 200.084 353.656C199.402 353.656 198.866 353.857 198.474 354.258C198.091 354.659 197.9 355.196 197.9 355.868V358.332C197.9 359.004 198.091 359.541 198.474 359.942C198.866 360.343 199.402 360.544 200.084 360.544ZM205.177 364.8V364.184C205.177 363.624 205.326 363.185 205.625 362.868C205.923 362.551 206.385 362.322 207.011 362.182C207.421 362.089 207.72 361.981 207.907 361.86C208.103 361.739 208.201 361.58 208.201 361.384C208.201 361.197 208.126 361.053 207.977 360.95C207.827 360.847 207.641 360.796 207.417 360.796C207.193 360.796 206.997 360.857 206.829 360.978C206.661 361.09 206.567 361.291 206.549 361.58L205.233 361.482C205.279 360.913 205.503 360.479 205.905 360.18C206.306 359.881 206.81 359.732 207.417 359.732C208.023 359.732 208.523 359.886 208.915 360.194C209.316 360.493 209.517 360.894 209.517 361.398C209.517 361.902 209.339 362.28 208.985 362.532C208.639 362.784 208.168 362.975 207.571 363.106C207.197 363.181 206.936 363.265 206.787 363.358C206.647 363.451 206.577 363.577 206.577 363.736H209.489V364.8H205.177ZM214.056 362.196C213.365 362.196 212.754 362.051 212.222 361.762C211.699 361.463 211.289 361.048 210.99 360.516C210.701 359.975 210.556 359.34 210.556 358.612V358.444C210.556 357.716 210.701 357.086 210.99 356.554C211.279 356.013 211.685 355.597 212.208 355.308C212.731 355.009 213.337 354.86 214.028 354.86C214.709 354.86 215.302 355.014 215.806 355.322C216.31 355.621 216.702 356.041 216.982 356.582C217.262 357.114 217.402 357.735 217.402 358.444V359.046H212.348C212.367 359.522 212.544 359.909 212.88 360.208C213.216 360.507 213.627 360.656 214.112 360.656C214.607 360.656 214.971 360.549 215.204 360.334C215.437 360.119 215.615 359.881 215.736 359.62L217.178 360.376C217.047 360.619 216.856 360.885 216.604 361.174C216.361 361.454 216.035 361.697 215.624 361.902C215.213 362.098 214.691 362.196 214.056 362.196ZM212.362 357.73H215.61C215.573 357.329 215.409 357.007 215.12 356.764C214.84 356.521 214.471 356.4 214.014 356.4C213.538 356.4 213.16 356.521 212.88 356.764C212.6 357.007 212.427 357.329 212.362 357.73Z" fill="#2C303B"/>
</svg>
