<svg width="316" height="111" viewBox="0 0 316 111" fill="none" xmlns="http://www.w3.org/2000/svg">
<g filter="url(#filter0_d_860_7759)">
<rect x="20" y="18" width="276" height="71" rx="8" fill="white"/>
</g>
<path d="M43.24 43.14C42.72 43.14 42.26 43.0333 41.86 42.82C41.4667 42.6 41.1567 42.28 40.93 41.86C40.71 41.44 40.6 40.92 40.6 40.3V38.7C40.6 37.7733 40.8467 37.07 41.34 36.59C41.8333 36.1033 42.4967 35.86 43.33 35.86C44.1567 35.86 44.7867 36.0867 45.22 36.54C45.6533 36.9933 45.87 37.6 45.87 38.36V38.41H45.04V38.34C45.04 38.0067 44.98 37.71 44.86 37.45C44.74 37.19 44.5533 36.9867 44.3 36.84C44.0467 36.6867 43.7233 36.61 43.33 36.61C42.7367 36.61 42.2733 36.7933 41.94 37.16C41.6067 37.52 41.44 38.0267 41.44 38.68V40.32C41.44 40.9733 41.6067 41.4833 41.94 41.85C42.2733 42.21 42.74 42.39 43.34 42.39C43.9267 42.39 44.3567 42.2233 44.63 41.89C44.91 41.5567 45.05 41.1133 45.05 40.56V40.39H42.93V39.67H45.87V43H45.11V42.24H44.97C44.8967 42.3867 44.7933 42.53 44.66 42.67C44.5267 42.81 44.3467 42.9233 44.12 43.01C43.8933 43.0967 43.6 43.14 43.24 43.14ZM47.4316 43V38.11H48.2216V43H47.4316ZM47.8316 37.35C47.6582 37.35 47.5116 37.2933 47.3916 37.18C47.2782 37.0667 47.2216 36.9233 47.2216 36.75C47.2216 36.57 47.2782 36.4233 47.3916 36.31C47.5116 36.1967 47.6582 36.14 47.8316 36.14C48.0049 36.14 48.1482 36.1967 48.2616 36.31C48.3749 36.4233 48.4316 36.57 48.4316 36.75C48.4316 36.9233 48.3749 37.0667 48.2616 37.18C48.1482 37.2933 48.0049 37.35 47.8316 37.35ZM51.1227 43L49.3727 38.11H50.2127L51.6827 42.41H51.8227L53.2927 38.11H54.1327L52.3827 43H51.1227ZM57.318 43.14C56.8247 43.14 56.3914 43.0367 56.018 42.83C55.6447 42.6167 55.3547 42.32 55.148 41.94C54.9414 41.56 54.838 41.12 54.838 40.62V40.5C54.838 39.9933 54.9414 39.55 55.148 39.17C55.3547 38.79 55.6414 38.4967 56.008 38.29C56.3747 38.0767 56.7947 37.97 57.268 37.97C57.728 37.97 58.1347 38.07 58.488 38.27C58.8414 38.4633 59.118 38.7433 59.318 39.11C59.518 39.4767 59.618 39.9067 59.618 40.4V40.76H55.628C55.648 41.2867 55.818 41.7 56.138 42C56.458 42.2933 56.858 42.44 57.338 42.44C57.758 42.44 58.0814 42.3433 58.308 42.15C58.5347 41.9567 58.708 41.7267 58.828 41.46L59.508 41.79C59.408 41.9967 59.268 42.2033 59.088 42.41C58.9147 42.6167 58.6847 42.79 58.398 42.93C58.118 43.07 57.758 43.14 57.318 43.14ZM55.638 40.11H58.818C58.7914 39.6567 58.6347 39.3033 58.348 39.05C58.068 38.7967 57.708 38.67 57.268 38.67C56.8214 38.67 56.4547 38.7967 56.168 39.05C55.8814 39.3033 55.7047 39.6567 55.638 40.11ZM60.996 43V38.11H61.766V38.94H61.906C62.0127 38.7067 62.1927 38.4967 62.446 38.31C62.706 38.1167 63.086 38.02 63.586 38.02C63.9527 38.02 64.2793 38.0967 64.566 38.25C64.8593 38.4033 65.0927 38.63 65.266 38.93C65.4393 39.23 65.526 39.6 65.526 40.04V43H64.736V40.1C64.736 39.6133 64.6127 39.26 64.366 39.04C64.126 38.82 63.7993 38.71 63.386 38.71C62.9127 38.71 62.526 38.8633 62.226 39.17C61.9327 39.4767 61.786 39.9333 61.786 40.54V43H60.996ZM71.4972 43C71.2172 43 71.0005 42.9233 70.8472 42.77C70.7005 42.6167 70.6272 42.4067 70.6272 42.14V38.8H69.1572V38.11H70.6272V36.37H71.4172V38.11H73.0172V38.8H71.4172V42.02C71.4172 42.22 71.5139 42.32 71.7072 42.32H72.7972V43H71.4972ZM74.2968 43V36H75.0868V38.89H75.2268C75.2935 38.7433 75.3935 38.6067 75.5268 38.48C75.6668 38.3467 75.8435 38.2367 76.0568 38.15C76.2768 38.0633 76.5535 38.02 76.8868 38.02C77.2535 38.02 77.5801 38.1 77.8668 38.26C78.1601 38.4133 78.3935 38.64 78.5668 38.94C78.7401 39.2333 78.8268 39.6 78.8268 40.04V43H78.0368V40.1C78.0368 39.6133 77.9135 39.26 77.6668 39.04C77.4268 38.82 77.1001 38.71 76.6868 38.71C76.2135 38.71 75.8268 38.8633 75.5268 39.17C75.2335 39.4767 75.0868 39.9333 75.0868 40.54V43H74.2968ZM81.9296 43.14C81.5896 43.14 81.2796 43.08 80.9996 42.96C80.7196 42.84 80.4996 42.6667 80.3396 42.44C80.1796 42.2133 80.0996 41.9367 80.0996 41.61C80.0996 41.2767 80.1796 41.0033 80.3396 40.79C80.4996 40.57 80.7196 40.4067 80.9996 40.3C81.2796 40.1867 81.5929 40.13 81.9396 40.13H83.5896V39.77C83.5896 39.4233 83.4863 39.15 83.2796 38.95C83.0796 38.75 82.7796 38.65 82.3796 38.65C81.9863 38.65 81.6796 38.7467 81.4596 38.94C81.2396 39.1267 81.0896 39.38 81.0096 39.7L80.2696 39.46C80.3496 39.1867 80.4763 38.94 80.6496 38.72C80.8229 38.4933 81.0529 38.3133 81.3396 38.18C81.6329 38.04 81.9829 37.97 82.3896 37.97C83.0163 37.97 83.5029 38.1333 83.8496 38.46C84.1963 38.78 84.3696 39.2333 84.3696 39.82V42.03C84.3696 42.23 84.4629 42.33 84.6496 42.33H85.0996V43H84.4096C84.1896 43 84.0129 42.94 83.8796 42.82C83.7463 42.6933 83.6796 42.5267 83.6796 42.32V42.27H83.5596C83.4863 42.3967 83.3863 42.53 83.2596 42.67C83.1396 42.8033 82.9729 42.9133 82.7596 43C82.5463 43.0933 82.2696 43.14 81.9296 43.14ZM82.0196 42.46C82.4863 42.46 82.8629 42.3233 83.1496 42.05C83.4429 41.77 83.5896 41.38 83.5896 40.88V40.77H81.9696C81.6563 40.77 81.3963 40.84 81.1896 40.98C80.9896 41.1133 80.8896 41.3167 80.8896 41.59C80.8896 41.8633 80.9929 42.0767 81.1996 42.23C81.4129 42.3833 81.6863 42.46 82.0196 42.46ZM87.6593 43C87.3793 43 87.1626 42.9233 87.0093 42.77C86.8626 42.6167 86.7893 42.4067 86.7893 42.14V38.8H85.3193V38.11H86.7893V36.37H87.5793V38.11H89.1793V38.8H87.5793V42.02C87.5793 42.22 87.676 42.32 87.8693 42.32H88.9593V43H87.6593ZM93.6173 45V44.3H96.4173C96.6106 44.3 96.7073 44.2 96.7073 44V42.22H96.5673C96.5006 42.36 96.3973 42.5 96.2573 42.64C96.1239 42.7733 95.9473 42.8833 95.7273 42.97C95.5073 43.05 95.2306 43.09 94.8973 43.09C94.5439 43.09 94.2173 43.0133 93.9173 42.86C93.6239 42.7067 93.3906 42.48 93.2173 42.18C93.0506 41.88 92.9673 41.5133 92.9673 41.08V38.11H93.7573V41.02C93.7573 41.5 93.8773 41.85 94.1173 42.07C94.3639 42.29 94.6939 42.4 95.1073 42.4C95.5739 42.4 95.9573 42.2467 96.2573 41.94C96.5573 41.6333 96.7073 41.1767 96.7073 40.57V38.11H97.4973V44.14C97.4973 44.4067 97.4206 44.6167 97.2673 44.77C97.1206 44.9233 96.9039 45 96.6173 45H93.6173ZM101.41 43.14C100.917 43.14 100.48 43.0367 100.1 42.83C99.727 42.6233 99.4336 42.3333 99.2203 41.96C99.0136 41.58 98.9103 41.1333 98.9103 40.62V40.49C98.9103 39.9833 99.0136 39.54 99.2203 39.16C99.4336 38.78 99.727 38.4867 100.1 38.28C100.48 38.0733 100.917 37.97 101.41 37.97C101.904 37.97 102.337 38.0733 102.71 38.28C103.09 38.4867 103.384 38.78 103.59 39.16C103.804 39.54 103.91 39.9833 103.91 40.49V40.62C103.91 41.1333 103.804 41.58 103.59 41.96C103.384 42.3333 103.09 42.6233 102.71 42.83C102.337 43.0367 101.904 43.14 101.41 43.14ZM101.41 42.43C101.93 42.43 102.344 42.2667 102.65 41.94C102.964 41.6067 103.12 41.16 103.12 40.6V40.51C103.12 39.95 102.964 39.5067 102.65 39.18C102.344 38.8467 101.93 38.68 101.41 38.68C100.897 38.68 100.484 38.8467 100.17 39.18C99.857 39.5067 99.7003 39.95 99.7003 40.51V40.6C99.7003 41.16 99.857 41.6067 100.17 41.94C100.484 42.2667 100.897 42.43 101.41 42.43ZM107.202 43.09C106.849 43.09 106.522 43.0133 106.222 42.86C105.929 42.7067 105.695 42.48 105.522 42.18C105.355 41.8733 105.272 41.5033 105.272 41.07V38.11H106.062V41.01C106.062 41.4967 106.182 41.85 106.422 42.07C106.669 42.29 106.999 42.4 107.412 42.4C107.879 42.4 108.262 42.2467 108.562 41.94C108.862 41.6333 109.012 41.1767 109.012 40.57V38.11H109.802V43H109.032V42.17H108.892C108.785 42.4033 108.602 42.6167 108.342 42.81C108.082 42.9967 107.702 43.09 107.202 43.09ZM115.523 43.14C115.183 43.14 114.873 43.08 114.593 42.96C114.313 42.84 114.093 42.6667 113.933 42.44C113.773 42.2133 113.693 41.9367 113.693 41.61C113.693 41.2767 113.773 41.0033 113.933 40.79C114.093 40.57 114.313 40.4067 114.593 40.3C114.873 40.1867 115.187 40.13 115.533 40.13H117.183V39.77C117.183 39.4233 117.08 39.15 116.873 38.95C116.673 38.75 116.373 38.65 115.973 38.65C115.58 38.65 115.273 38.7467 115.053 38.94C114.833 39.1267 114.683 39.38 114.603 39.7L113.863 39.46C113.943 39.1867 114.07 38.94 114.243 38.72C114.417 38.4933 114.647 38.3133 114.933 38.18C115.227 38.04 115.577 37.97 115.983 37.97C116.61 37.97 117.097 38.1333 117.443 38.46C117.79 38.78 117.963 39.2333 117.963 39.82V42.03C117.963 42.23 118.057 42.33 118.243 42.33H118.693V43H118.003C117.783 43 117.607 42.94 117.473 42.82C117.34 42.6933 117.273 42.5267 117.273 42.32V42.27H117.153C117.08 42.3967 116.98 42.53 116.853 42.67C116.733 42.8033 116.567 42.9133 116.353 43C116.14 43.0933 115.863 43.14 115.523 43.14ZM115.613 42.46C116.08 42.46 116.457 42.3233 116.743 42.05C117.037 41.77 117.183 41.38 117.183 40.88V40.77H115.563C115.25 40.77 114.99 40.84 114.783 40.98C114.583 41.1133 114.483 41.3167 114.483 41.59C114.483 41.8633 114.587 42.0767 114.793 42.23C115.007 42.3833 115.28 42.46 115.613 42.46ZM119.775 43V38.11H120.545V38.71H120.685C120.772 38.4967 120.905 38.34 121.085 38.24C121.265 38.14 121.502 38.09 121.795 38.09H122.375V38.81H121.745C121.392 38.81 121.105 38.91 120.885 39.11C120.672 39.3033 120.565 39.6067 120.565 40.02V43H119.775ZM125.609 43.14C125.116 43.14 124.682 43.0367 124.309 42.83C123.936 42.6167 123.646 42.32 123.439 41.94C123.232 41.56 123.129 41.12 123.129 40.62V40.5C123.129 39.9933 123.232 39.55 123.439 39.17C123.646 38.79 123.932 38.4967 124.299 38.29C124.666 38.0767 125.086 37.97 125.559 37.97C126.019 37.97 126.426 38.07 126.779 38.27C127.132 38.4633 127.409 38.7433 127.609 39.11C127.809 39.4767 127.909 39.9067 127.909 40.4V40.76H123.919C123.939 41.2867 124.109 41.7 124.429 42C124.749 42.2933 125.149 42.44 125.629 42.44C126.049 42.44 126.372 42.3433 126.599 42.15C126.826 41.9567 126.999 41.7267 127.119 41.46L127.799 41.79C127.699 41.9967 127.559 42.2033 127.379 42.41C127.206 42.6167 126.976 42.79 126.689 42.93C126.409 43.07 126.049 43.14 125.609 43.14ZM123.929 40.11H127.109C127.082 39.6567 126.926 39.3033 126.639 39.05C126.359 38.7967 125.999 38.67 125.559 38.67C125.112 38.67 124.746 38.7967 124.459 39.05C124.172 39.3033 123.996 39.6567 123.929 40.11ZM133.355 43.14C133.015 43.14 132.705 43.08 132.425 42.96C132.145 42.84 131.925 42.6667 131.765 42.44C131.605 42.2133 131.525 41.9367 131.525 41.61C131.525 41.2767 131.605 41.0033 131.765 40.79C131.925 40.57 132.145 40.4067 132.425 40.3C132.705 40.1867 133.019 40.13 133.365 40.13H135.015V39.77C135.015 39.4233 134.912 39.15 134.705 38.95C134.505 38.75 134.205 38.65 133.805 38.65C133.412 38.65 133.105 38.7467 132.885 38.94C132.665 39.1267 132.515 39.38 132.435 39.7L131.695 39.46C131.775 39.1867 131.902 38.94 132.075 38.72C132.249 38.4933 132.479 38.3133 132.765 38.18C133.059 38.04 133.409 37.97 133.815 37.97C134.442 37.97 134.929 38.1333 135.275 38.46C135.622 38.78 135.795 39.2333 135.795 39.82V42.03C135.795 42.23 135.889 42.33 136.075 42.33H136.525V43H135.835C135.615 43 135.439 42.94 135.305 42.82C135.172 42.6933 135.105 42.5267 135.105 42.32V42.27H134.985C134.912 42.3967 134.812 42.53 134.685 42.67C134.565 42.8033 134.399 42.9133 134.185 43C133.972 43.0933 133.695 43.14 133.355 43.14ZM133.445 42.46C133.912 42.46 134.289 42.3233 134.575 42.05C134.869 41.77 135.015 41.38 135.015 40.88V40.77H133.395C133.082 40.77 132.822 40.84 132.615 40.98C132.415 41.1133 132.315 41.3167 132.315 41.59C132.315 41.8633 132.419 42.0767 132.625 42.23C132.839 42.3833 133.112 42.46 133.445 42.46ZM142.676 43.14C142.156 43.14 141.702 43.0467 141.316 42.86C140.929 42.6733 140.629 42.3967 140.416 42.03C140.202 41.6567 140.096 41.2 140.096 40.66V36H140.926V40.67C140.926 41.2433 141.079 41.6733 141.386 41.96C141.692 42.2467 142.122 42.39 142.676 42.39C143.229 42.39 143.659 42.2467 143.966 41.96C144.272 41.6733 144.426 41.2433 144.426 40.67V36H145.266V40.66C145.266 41.2 145.159 41.6567 144.946 42.03C144.732 42.3967 144.429 42.6733 144.036 42.86C143.649 43.0467 143.196 43.14 142.676 43.14ZM146.806 43V36H147.646V39.05H147.786L150.746 36H151.866L148.456 39.46L151.986 43H150.836L147.786 39.89H147.646V43H146.806ZM158.218 43.14C157.711 43.14 157.314 43.0433 157.028 42.85C156.748 42.6567 156.544 42.4367 156.418 42.19H156.278V43H155.508V36H156.298V38.88H156.438C156.518 38.7267 156.631 38.5833 156.778 38.45C156.924 38.31 157.114 38.1967 157.348 38.11C157.588 38.0167 157.878 37.97 158.218 37.97C158.644 37.97 159.031 38.0733 159.378 38.28C159.731 38.48 160.011 38.77 160.218 39.15C160.424 39.5233 160.528 39.97 160.528 40.49V40.62C160.528 41.14 160.421 41.59 160.208 41.97C160.001 42.35 159.721 42.64 159.368 42.84C159.021 43.04 158.638 43.14 158.218 43.14ZM158.008 42.44C158.514 42.44 158.924 42.28 159.238 41.96C159.558 41.6333 159.718 41.18 159.718 40.6V40.51C159.718 39.93 159.558 39.48 159.238 39.16C158.924 38.8333 158.514 38.67 158.008 38.67C157.508 38.67 157.094 38.8333 156.768 39.16C156.448 39.48 156.288 39.93 156.288 40.51V40.6C156.288 41.18 156.448 41.6333 156.768 41.96C157.094 42.28 157.508 42.44 158.008 42.44ZM163.443 43.14C163.103 43.14 162.793 43.08 162.513 42.96C162.233 42.84 162.013 42.6667 161.853 42.44C161.693 42.2133 161.613 41.9367 161.613 41.61C161.613 41.2767 161.693 41.0033 161.853 40.79C162.013 40.57 162.233 40.4067 162.513 40.3C162.793 40.1867 163.107 40.13 163.453 40.13H165.103V39.77C165.103 39.4233 165 39.15 164.793 38.95C164.593 38.75 164.293 38.65 163.893 38.65C163.5 38.65 163.193 38.7467 162.973 38.94C162.753 39.1267 162.603 39.38 162.523 39.7L161.783 39.46C161.863 39.1867 161.99 38.94 162.163 38.72C162.337 38.4933 162.567 38.3133 162.853 38.18C163.147 38.04 163.497 37.97 163.903 37.97C164.53 37.97 165.017 38.1333 165.363 38.46C165.71 38.78 165.883 39.2333 165.883 39.82V42.03C165.883 42.23 165.977 42.33 166.163 42.33H166.613V43H165.923C165.703 43 165.527 42.94 165.393 42.82C165.26 42.6933 165.193 42.5267 165.193 42.32V42.27H165.073C165 42.3967 164.9 42.53 164.773 42.67C164.653 42.8033 164.487 42.9133 164.273 43C164.06 43.0933 163.783 43.14 163.443 43.14ZM163.533 42.46C164 42.46 164.377 42.3233 164.663 42.05C164.957 41.77 165.103 41.38 165.103 40.88V40.77H163.483C163.17 40.77 162.91 40.84 162.703 40.98C162.503 41.1133 162.403 41.3167 162.403 41.59C162.403 41.8633 162.507 42.0767 162.713 42.23C162.927 42.3833 163.2 42.46 163.533 42.46ZM169.626 43.14C169.02 43.14 168.506 43 168.086 42.72C167.673 42.44 167.423 41.9967 167.336 41.39L168.086 41.22C168.14 41.54 168.24 41.7933 168.386 41.98C168.533 42.16 168.713 42.29 168.926 42.37C169.146 42.4433 169.38 42.48 169.626 42.48C169.993 42.48 170.283 42.4067 170.496 42.26C170.71 42.1133 170.816 41.9167 170.816 41.67C170.816 41.4167 170.713 41.24 170.506 41.14C170.306 41.0333 170.03 40.9467 169.676 40.88L169.266 40.81C168.953 40.7567 168.666 40.6733 168.406 40.56C168.146 40.4467 167.94 40.2933 167.786 40.1C167.633 39.9067 167.556 39.6633 167.556 39.37C167.556 38.93 167.726 38.5867 168.066 38.34C168.406 38.0933 168.856 37.97 169.416 37.97C169.97 37.97 170.416 38.0967 170.756 38.35C171.103 38.5967 171.326 38.9467 171.426 39.4L170.686 39.59C170.626 39.2367 170.483 38.99 170.256 38.85C170.03 38.7033 169.75 38.63 169.416 38.63C169.083 38.63 168.82 38.6933 168.626 38.82C168.433 38.94 168.336 39.12 168.336 39.36C168.336 39.5933 168.426 39.7667 168.606 39.88C168.793 39.9867 169.04 40.0667 169.346 40.12L169.756 40.19C170.103 40.25 170.413 40.3333 170.686 40.44C170.966 40.54 171.186 40.6867 171.346 40.88C171.513 41.0733 171.596 41.3267 171.596 41.64C171.596 42.12 171.416 42.49 171.056 42.75C170.703 43.01 170.226 43.14 169.626 43.14ZM175.17 43.14C174.676 43.14 174.243 43.0367 173.87 42.83C173.496 42.6167 173.206 42.32 173 41.94C172.793 41.56 172.69 41.12 172.69 40.62V40.5C172.69 39.9933 172.793 39.55 173 39.17C173.206 38.79 173.493 38.4967 173.86 38.29C174.226 38.0767 174.646 37.97 175.12 37.97C175.58 37.97 175.986 38.07 176.34 38.27C176.693 38.4633 176.97 38.7433 177.17 39.11C177.37 39.4767 177.47 39.9067 177.47 40.4V40.76H173.48C173.5 41.2867 173.67 41.7 173.99 42C174.31 42.2933 174.71 42.44 175.19 42.44C175.61 42.44 175.933 42.3433 176.16 42.15C176.386 41.9567 176.56 41.7267 176.68 41.46L177.36 41.79C177.26 41.9967 177.12 42.2033 176.94 42.41C176.766 42.6167 176.536 42.79 176.25 42.93C175.97 43.07 175.61 43.14 175.17 43.14ZM173.49 40.11H176.67C176.643 39.6567 176.486 39.3033 176.2 39.05C175.92 38.7967 175.56 38.67 175.12 38.67C174.673 38.67 174.306 38.7967 174.02 39.05C173.733 39.3033 173.556 39.6567 173.49 40.11ZM180.918 43.14C180.498 43.14 180.111 43.04 179.758 42.84C179.404 42.64 179.124 42.35 178.918 41.97C178.711 41.59 178.608 41.14 178.608 40.62V40.49C178.608 39.97 178.711 39.5233 178.918 39.15C179.124 38.77 179.401 38.48 179.748 38.28C180.101 38.0733 180.491 37.97 180.918 37.97C181.258 37.97 181.544 38.0167 181.778 38.11C182.018 38.1967 182.211 38.31 182.358 38.45C182.504 38.5833 182.618 38.7267 182.698 38.88H182.838V36H183.628V43H182.858V42.19H182.718C182.584 42.4367 182.378 42.6567 182.098 42.85C181.818 43.0433 181.424 43.14 180.918 43.14ZM181.128 42.44C181.634 42.44 182.044 42.28 182.358 41.96C182.678 41.6333 182.838 41.18 182.838 40.6V40.51C182.838 39.93 182.678 39.48 182.358 39.16C182.044 38.8333 181.634 38.67 181.128 38.67C180.628 38.67 180.214 38.8333 179.888 39.16C179.568 39.48 179.408 39.93 179.408 40.51V40.6C179.408 41.18 179.568 41.6333 179.888 41.96C180.214 42.28 180.628 42.44 181.128 42.44ZM190.101 43.14C189.628 43.14 189.201 43.04 188.821 42.84C188.448 42.6333 188.151 42.34 187.931 41.96C187.718 41.58 187.611 41.13 187.611 40.61V40.5C187.611 39.9733 187.718 39.5233 187.931 39.15C188.151 38.77 188.448 38.48 188.821 38.28C189.201 38.0733 189.628 37.97 190.101 37.97C190.568 37.97 190.965 38.0567 191.291 38.23C191.625 38.4033 191.885 38.6333 192.071 38.92C192.265 39.2067 192.388 39.5133 192.441 39.84L191.671 40C191.638 39.76 191.558 39.54 191.431 39.34C191.311 39.14 191.141 38.98 190.921 38.86C190.701 38.74 190.431 38.68 190.111 38.68C189.785 38.68 189.491 38.7533 189.231 38.9C188.978 39.0467 188.775 39.2567 188.621 39.53C188.475 39.8033 188.401 40.13 188.401 40.51V40.6C188.401 40.98 188.475 41.3067 188.621 41.58C188.775 41.8533 188.978 42.0633 189.231 42.21C189.491 42.3567 189.785 42.43 190.111 42.43C190.598 42.43 190.968 42.3033 191.221 42.05C191.481 41.7967 191.641 41.4833 191.701 41.11L192.481 41.28C192.408 41.6 192.275 41.9033 192.081 42.19C191.888 42.4767 191.625 42.7067 191.291 42.88C190.965 43.0533 190.568 43.14 190.101 43.14ZM196.088 43.14C195.595 43.14 195.158 43.0367 194.778 42.83C194.405 42.6233 194.111 42.3333 193.898 41.96C193.691 41.58 193.588 41.1333 193.588 40.62V40.49C193.588 39.9833 193.691 39.54 193.898 39.16C194.111 38.78 194.405 38.4867 194.778 38.28C195.158 38.0733 195.595 37.97 196.088 37.97C196.581 37.97 197.015 38.0733 197.388 38.28C197.768 38.4867 198.061 38.78 198.268 39.16C198.481 39.54 198.588 39.9833 198.588 40.49V40.62C198.588 41.1333 198.481 41.58 198.268 41.96C198.061 42.3333 197.768 42.6233 197.388 42.83C197.015 43.0367 196.581 43.14 196.088 43.14ZM196.088 42.43C196.608 42.43 197.021 42.2667 197.328 41.94C197.641 41.6067 197.798 41.16 197.798 40.6V40.51C197.798 39.95 197.641 39.5067 197.328 39.18C197.021 38.8467 196.608 38.68 196.088 38.68C195.575 38.68 195.161 38.8467 194.848 39.18C194.535 39.5067 194.378 39.95 194.378 40.51V40.6C194.378 41.16 194.535 41.6067 194.848 41.94C195.161 42.2667 195.575 42.43 196.088 42.43ZM200.01 43V38.11H200.78V38.72H200.92C201.013 38.5467 201.166 38.3867 201.38 38.24C201.593 38.0933 201.893 38.02 202.28 38.02C202.66 38.02 202.966 38.1033 203.2 38.27C203.44 38.4367 203.613 38.64 203.72 38.88H203.86C203.973 38.64 204.143 38.4367 204.37 38.27C204.603 38.1033 204.926 38.02 205.34 38.02C205.666 38.02 205.953 38.0867 206.2 38.22C206.446 38.3533 206.64 38.5467 206.78 38.8C206.926 39.0467 207 39.3433 207 39.69V43H206.21V39.76C206.21 39.4333 206.113 39.1767 205.92 38.99C205.733 38.7967 205.47 38.7 205.13 38.7C204.77 38.7 204.473 38.8167 204.24 39.05C204.013 39.2833 203.9 39.62 203.9 40.06V43H203.11V39.76C203.11 39.4333 203.013 39.1767 202.82 38.99C202.633 38.7967 202.37 38.7 202.03 38.7C201.67 38.7 201.373 38.8167 201.14 39.05C200.913 39.2833 200.8 39.62 200.8 40.06V43H200.01ZM208.613 45V38.11H209.383V38.92H209.523C209.65 38.6733 209.853 38.4533 210.133 38.26C210.42 38.0667 210.817 37.97 211.323 37.97C211.743 37.97 212.127 38.0733 212.473 38.28C212.827 38.48 213.107 38.7667 213.313 39.14C213.527 39.5133 213.633 39.9633 213.633 40.49V40.62C213.633 41.14 213.53 41.59 213.323 41.97C213.117 42.35 212.837 42.64 212.483 42.84C212.137 43.04 211.75 43.14 211.323 43.14C210.983 43.14 210.693 43.0933 210.453 43C210.22 42.9133 210.03 42.8 209.883 42.66C209.737 42.52 209.623 42.3767 209.543 42.23H209.403V45H208.613ZM211.113 42.44C211.62 42.44 212.03 42.28 212.343 41.96C212.663 41.6333 212.823 41.18 212.823 40.6V40.51C212.823 39.93 212.663 39.48 212.343 39.16C212.03 38.8333 211.62 38.67 211.113 38.67C210.613 38.67 210.2 38.8333 209.873 39.16C209.553 39.48 209.393 39.93 209.393 40.51V40.6C209.393 41.18 209.553 41.6333 209.873 41.96C210.2 42.28 210.613 42.44 211.113 42.44ZM216.549 43.14C216.209 43.14 215.899 43.08 215.619 42.96C215.339 42.84 215.119 42.6667 214.959 42.44C214.799 42.2133 214.719 41.9367 214.719 41.61C214.719 41.2767 214.799 41.0033 214.959 40.79C215.119 40.57 215.339 40.4067 215.619 40.3C215.899 40.1867 216.212 40.13 216.559 40.13H218.209V39.77C218.209 39.4233 218.105 39.15 217.899 38.95C217.699 38.75 217.399 38.65 216.999 38.65C216.605 38.65 216.299 38.7467 216.079 38.94C215.859 39.1267 215.709 39.38 215.629 39.7L214.889 39.46C214.969 39.1867 215.095 38.94 215.269 38.72C215.442 38.4933 215.672 38.3133 215.959 38.18C216.252 38.04 216.602 37.97 217.009 37.97C217.635 37.97 218.122 38.1333 218.469 38.46C218.815 38.78 218.989 39.2333 218.989 39.82V42.03C218.989 42.23 219.082 42.33 219.269 42.33H219.719V43H219.029C218.809 43 218.632 42.94 218.499 42.82C218.365 42.6933 218.299 42.5267 218.299 42.32V42.27H218.179C218.105 42.3967 218.005 42.53 217.879 42.67C217.759 42.8033 217.592 42.9133 217.379 43C217.165 43.0933 216.889 43.14 216.549 43.14ZM216.639 42.46C217.105 42.46 217.482 42.3233 217.769 42.05C218.062 41.77 218.209 41.38 218.209 40.88V40.77H216.589C216.275 40.77 216.015 40.84 215.809 40.98C215.609 41.1133 215.509 41.3167 215.509 41.59C215.509 41.8633 215.612 42.0767 215.819 42.23C216.032 42.3833 216.305 42.46 216.639 42.46ZM220.801 43V38.11H221.571V38.94H221.711C221.817 38.7067 221.997 38.4967 222.251 38.31C222.511 38.1167 222.891 38.02 223.391 38.02C223.757 38.02 224.084 38.0967 224.371 38.25C224.664 38.4033 224.897 38.63 225.071 38.93C225.244 39.23 225.331 39.6 225.331 40.04V43H224.541V40.1C224.541 39.6133 224.417 39.26 224.171 39.04C223.931 38.82 223.604 38.71 223.191 38.71C222.717 38.71 222.331 38.8633 222.031 39.17C221.737 39.4767 221.591 39.9333 221.591 40.54V43H220.801ZM227.445 45V44.3H230.245C230.439 44.3 230.535 44.2 230.535 44V42.22H230.395C230.329 42.36 230.225 42.5 230.085 42.64C229.952 42.7733 229.775 42.8833 229.555 42.97C229.335 43.05 229.059 43.09 228.725 43.09C228.372 43.09 228.045 43.0133 227.745 42.86C227.452 42.7067 227.219 42.48 227.045 42.18C226.879 41.88 226.795 41.5133 226.795 41.08V38.11H227.585V41.02C227.585 41.5 227.705 41.85 227.945 42.07C228.192 42.29 228.522 42.4 228.935 42.4C229.402 42.4 229.785 42.2467 230.085 41.94C230.385 41.6333 230.535 41.1767 230.535 40.57V38.11H231.325V44.14C231.325 44.4067 231.249 44.6167 231.095 44.77C230.949 44.9233 230.732 45 230.445 45H227.445ZM232.898 44.25V43.75H233.188C233.428 43.75 233.548 43.63 233.548 43.39V43.07H233.408C233.215 43.07 233.052 43.01 232.918 42.89C232.792 42.77 232.728 42.62 232.728 42.44C232.728 42.2467 232.792 42.09 232.918 41.97C233.052 41.85 233.215 41.79 233.408 41.79C233.602 41.79 233.762 41.8533 233.888 41.98C234.015 42.1067 234.078 42.2667 234.078 42.46V43.39C234.078 43.9633 233.792 44.25 233.218 44.25H232.898ZM239.795 43.14C239.375 43.14 238.988 43.04 238.635 42.84C238.281 42.64 238.001 42.35 237.795 41.97C237.588 41.59 237.485 41.14 237.485 40.62V40.49C237.485 39.97 237.588 39.5233 237.795 39.15C238.001 38.77 238.278 38.48 238.625 38.28C238.978 38.0733 239.368 37.97 239.795 37.97C240.135 37.97 240.421 38.0167 240.655 38.11C240.895 38.1967 241.088 38.31 241.235 38.45C241.381 38.5833 241.495 38.7267 241.575 38.88H241.715V36H242.505V43H241.735V42.19H241.595C241.461 42.4367 241.255 42.6567 240.975 42.85C240.695 43.0433 240.301 43.14 239.795 43.14ZM240.005 42.44C240.511 42.44 240.921 42.28 241.235 41.96C241.555 41.6333 241.715 41.18 241.715 40.6V40.51C241.715 39.93 241.555 39.48 241.235 39.16C240.921 38.8333 240.511 38.67 240.005 38.67C239.505 38.67 239.091 38.8333 238.765 39.16C238.445 39.48 238.285 39.93 238.285 40.51V40.6C238.285 41.18 238.445 41.6333 238.765 41.96C239.091 42.28 239.505 42.44 240.005 42.44ZM246.42 43.14C245.927 43.14 245.49 43.0367 245.11 42.83C244.737 42.6233 244.443 42.3333 244.23 41.96C244.023 41.58 243.92 41.1333 243.92 40.62V40.49C243.92 39.9833 244.023 39.54 244.23 39.16C244.443 38.78 244.737 38.4867 245.11 38.28C245.49 38.0733 245.927 37.97 246.42 37.97C246.913 37.97 247.347 38.0733 247.72 38.28C248.1 38.4867 248.393 38.78 248.6 39.16C248.813 39.54 248.92 39.9833 248.92 40.49V40.62C248.92 41.1333 248.813 41.58 248.6 41.96C248.393 42.3333 248.1 42.6233 247.72 42.83C247.347 43.0367 246.913 43.14 246.42 43.14ZM246.42 42.43C246.94 42.43 247.353 42.2667 247.66 41.94C247.973 41.6067 248.13 41.16 248.13 40.6V40.51C248.13 39.95 247.973 39.5067 247.66 39.18C247.353 38.8467 246.94 38.68 246.42 38.68C245.907 38.68 245.493 38.8467 245.18 39.18C244.867 39.5067 244.71 39.95 244.71 40.51V40.6C244.71 41.16 244.867 41.6067 245.18 41.94C245.493 42.2667 245.907 42.43 246.42 42.43ZM253.5 45V44.3H256.3C256.493 44.3 256.59 44.2 256.59 44V42.22H256.45C256.383 42.36 256.28 42.5 256.14 42.64C256.007 42.7733 255.83 42.8833 255.61 42.97C255.39 43.05 255.113 43.09 254.78 43.09C254.427 43.09 254.1 43.0133 253.8 42.86C253.507 42.7067 253.273 42.48 253.1 42.18C252.933 41.88 252.85 41.5133 252.85 41.08V38.11H253.64V41.02C253.64 41.5 253.76 41.85 254 42.07C254.247 42.29 254.577 42.4 254.99 42.4C255.457 42.4 255.84 42.2467 256.14 41.94C256.44 41.6333 256.59 41.1767 256.59 40.57V38.11H257.38V44.14C257.38 44.4067 257.303 44.6167 257.15 44.77C257.003 44.9233 256.787 45 256.5 45H253.5ZM261.293 43.14C260.8 43.14 260.363 43.0367 259.983 42.83C259.61 42.6233 259.316 42.3333 259.103 41.96C258.896 41.58 258.793 41.1333 258.793 40.62V40.49C258.793 39.9833 258.896 39.54 259.103 39.16C259.316 38.78 259.61 38.4867 259.983 38.28C260.363 38.0733 260.8 37.97 261.293 37.97C261.786 37.97 262.22 38.0733 262.593 38.28C262.973 38.4867 263.266 38.78 263.473 39.16C263.686 39.54 263.793 39.9833 263.793 40.49V40.62C263.793 41.1333 263.686 41.58 263.473 41.96C263.266 42.3333 262.973 42.6233 262.593 42.83C262.22 43.0367 261.786 43.14 261.293 43.14ZM261.293 42.43C261.813 42.43 262.226 42.2667 262.533 41.94C262.846 41.6067 263.003 41.16 263.003 40.6V40.51C263.003 39.95 262.846 39.5067 262.533 39.18C262.226 38.8467 261.813 38.68 261.293 38.68C260.78 38.68 260.366 38.8467 260.053 39.18C259.74 39.5067 259.583 39.95 259.583 40.51V40.6C259.583 41.16 259.74 41.6067 260.053 41.94C260.366 42.2667 260.78 42.43 261.293 42.43ZM267.085 43.09C266.731 43.09 266.405 43.0133 266.105 42.86C265.811 42.7067 265.578 42.48 265.405 42.18C265.238 41.8733 265.155 41.5033 265.155 41.07V38.11H265.945V41.01C265.945 41.4967 266.065 41.85 266.305 42.07C266.551 42.29 266.881 42.4 267.295 42.4C267.761 42.4 268.145 42.2467 268.445 41.94C268.745 41.6333 268.895 41.1767 268.895 40.57V38.11H269.685V43H268.915V42.17H268.775C268.668 42.4033 268.485 42.6167 268.225 42.81C267.965 42.9967 267.585 43.09 267.085 43.09ZM42.33 57.14C41.99 57.14 41.68 57.08 41.4 56.96C41.12 56.84 40.9 56.6667 40.74 56.44C40.58 56.2133 40.5 55.9367 40.5 55.61C40.5 55.2767 40.58 55.0033 40.74 54.79C40.9 54.57 41.12 54.4067 41.4 54.3C41.68 54.1867 41.9933 54.13 42.34 54.13H43.99V53.77C43.99 53.4233 43.8867 53.15 43.68 52.95C43.48 52.75 43.18 52.65 42.78 52.65C42.3867 52.65 42.08 52.7467 41.86 52.94C41.64 53.1267 41.49 53.38 41.41 53.7L40.67 53.46C40.75 53.1867 40.8767 52.94 41.05 52.72C41.2233 52.4933 41.4533 52.3133 41.74 52.18C42.0333 52.04 42.3833 51.97 42.79 51.97C43.4167 51.97 43.9033 52.1333 44.25 52.46C44.5967 52.78 44.77 53.2333 44.77 53.82V56.03C44.77 56.23 44.8633 56.33 45.05 56.33H45.5V57H44.81C44.59 57 44.4133 56.94 44.28 56.82C44.1467 56.6933 44.08 56.5267 44.08 56.32V56.27H43.96C43.8867 56.3967 43.7867 56.53 43.66 56.67C43.54 56.8033 43.3733 56.9133 43.16 57C42.9467 57.0933 42.67 57.14 42.33 57.14ZM42.42 56.46C42.8867 56.46 43.2633 56.3233 43.55 56.05C43.8433 55.77 43.99 55.38 43.99 54.88V54.77H42.37C42.0567 54.77 41.7967 54.84 41.59 54.98C41.39 55.1133 41.29 55.3167 41.29 55.59C41.29 55.8633 41.3933 56.0767 41.6 56.23C41.8133 56.3833 42.0867 56.46 42.42 56.46ZM46.2052 54.58V54.44C46.2052 53.9267 46.3086 53.4867 46.5152 53.12C46.7219 52.7533 47.0019 52.47 47.3552 52.27C47.7086 52.07 48.0952 51.97 48.5152 51.97C49.0286 51.97 49.4219 52.07 49.6952 52.27C49.9752 52.4633 50.1819 52.68 50.3152 52.92H50.4552V52.11H51.2052V58.14C51.2052 58.4067 51.1319 58.6167 50.9852 58.77C50.8386 58.9233 50.6252 59 50.3452 59H47.0252V58.3H50.1352C50.3352 58.3 50.4352 58.2 50.4352 58V56.14H50.2952C50.2152 56.2867 50.1019 56.43 49.9552 56.57C49.8086 56.71 49.6186 56.8267 49.3852 56.92C49.1519 57.0067 48.8619 57.05 48.5152 57.05C48.0952 57.05 47.7086 56.95 47.3552 56.75C47.0019 56.55 46.7219 56.2667 46.5152 55.9C46.3086 55.5267 46.2052 55.0867 46.2052 54.58ZM48.7252 56.35C49.2319 56.35 49.6419 56.19 49.9552 55.87C50.2752 55.55 50.4352 55.11 50.4352 54.55V54.47C50.4352 53.9033 50.2752 53.4633 49.9552 53.15C49.6419 52.83 49.2319 52.67 48.7252 52.67C48.2252 52.67 47.8119 52.83 47.4852 53.15C47.1652 53.4633 47.0052 53.9033 47.0052 54.47V54.55C47.0052 55.11 47.1652 55.55 47.4852 55.87C47.8119 56.19 48.2252 56.35 48.7252 56.35ZM52.8613 57V52.11H53.6313V52.71H53.7713C53.8579 52.4967 53.9913 52.34 54.1713 52.24C54.3513 52.14 54.5879 52.09 54.8813 52.09H55.4613V52.81H54.8313C54.4779 52.81 54.1913 52.91 53.9713 53.11C53.7579 53.3033 53.6513 53.6067 53.6513 54.02V57H52.8613ZM58.695 57.14C58.2017 57.14 57.7683 57.0367 57.395 56.83C57.0217 56.6167 56.7317 56.32 56.525 55.94C56.3183 55.56 56.215 55.12 56.215 54.62V54.5C56.215 53.9933 56.3183 53.55 56.525 53.17C56.7317 52.79 57.0183 52.4967 57.385 52.29C57.7517 52.0767 58.1717 51.97 58.645 51.97C59.105 51.97 59.5117 52.07 59.865 52.27C60.2183 52.4633 60.495 52.7433 60.695 53.11C60.895 53.4767 60.995 53.9067 60.995 54.4V54.76H57.005C57.025 55.2867 57.195 55.7 57.515 56C57.835 56.2933 58.235 56.44 58.715 56.44C59.135 56.44 59.4583 56.3433 59.685 56.15C59.9117 55.9567 60.085 55.7267 60.205 55.46L60.885 55.79C60.785 55.9967 60.645 56.2033 60.465 56.41C60.2917 56.6167 60.0617 56.79 59.775 56.93C59.495 57.07 59.135 57.14 58.695 57.14ZM57.015 54.11H60.195C60.1683 53.6567 60.0117 53.3033 59.725 53.05C59.445 52.7967 59.085 52.67 58.645 52.67C58.1983 52.67 57.8317 52.7967 57.545 53.05C57.2583 53.3033 57.0817 53.6567 57.015 54.11ZM64.613 57.14C64.1196 57.14 63.6863 57.0367 63.313 56.83C62.9396 56.6167 62.6496 56.32 62.443 55.94C62.2363 55.56 62.133 55.12 62.133 54.62V54.5C62.133 53.9933 62.2363 53.55 62.443 53.17C62.6496 52.79 62.9363 52.4967 63.303 52.29C63.6696 52.0767 64.0896 51.97 64.563 51.97C65.023 51.97 65.4296 52.07 65.783 52.27C66.1363 52.4633 66.413 52.7433 66.613 53.11C66.813 53.4767 66.913 53.9067 66.913 54.4V54.76H62.923C62.943 55.2867 63.113 55.7 63.433 56C63.753 56.2933 64.153 56.44 64.633 56.44C65.053 56.44 65.3763 56.3433 65.603 56.15C65.8296 55.9567 66.003 55.7267 66.123 55.46L66.803 55.79C66.703 55.9967 66.563 56.2033 66.383 56.41C66.2096 56.6167 65.9796 56.79 65.693 56.93C65.413 57.07 65.053 57.14 64.613 57.14ZM62.933 54.11H66.113C66.0863 53.6567 65.9296 53.3033 65.643 53.05C65.363 52.7967 65.003 52.67 64.563 52.67C64.1163 52.67 63.7496 52.7967 63.463 53.05C63.1763 53.3033 62.9996 53.6567 62.933 54.11ZM72.6593 57C72.3793 57 72.1626 56.9233 72.0093 56.77C71.8626 56.6167 71.7893 56.4067 71.7893 56.14V52.8H70.3193V52.11H71.7893V50.37H72.5793V52.11H74.1793V52.8H72.5793V56.02C72.5793 56.22 72.676 56.32 72.8693 56.32H73.9593V57H72.6593ZM75.4589 57V50H76.2489V52.89H76.3889C76.4556 52.7433 76.5556 52.6067 76.6889 52.48C76.8289 52.3467 77.0056 52.2367 77.2189 52.15C77.4389 52.0633 77.7156 52.02 78.0489 52.02C78.4156 52.02 78.7422 52.1 79.0289 52.26C79.3222 52.4133 79.5556 52.64 79.7289 52.94C79.9022 53.2333 79.9889 53.6 79.9889 54.04V57H79.1989V54.1C79.1989 53.6133 79.0756 53.26 78.8289 53.04C78.5889 52.82 78.2622 52.71 77.8489 52.71C77.3756 52.71 76.9889 52.8633 76.6889 53.17C76.3956 53.4767 76.2489 53.9333 76.2489 54.54V57H75.4589ZM83.0917 57.14C82.7517 57.14 82.4417 57.08 82.1617 56.96C81.8817 56.84 81.6617 56.6667 81.5017 56.44C81.3417 56.2133 81.2617 55.9367 81.2617 55.61C81.2617 55.2767 81.3417 55.0033 81.5017 54.79C81.6617 54.57 81.8817 54.4067 82.1617 54.3C82.4417 54.1867 82.7551 54.13 83.1017 54.13H84.7517V53.77C84.7517 53.4233 84.6484 53.15 84.4417 52.95C84.2417 52.75 83.9417 52.65 83.5417 52.65C83.1484 52.65 82.8417 52.7467 82.6217 52.94C82.4017 53.1267 82.2517 53.38 82.1717 53.7L81.4317 53.46C81.5117 53.1867 81.6384 52.94 81.8117 52.72C81.9851 52.4933 82.2151 52.3133 82.5017 52.18C82.7951 52.04 83.1451 51.97 83.5517 51.97C84.1784 51.97 84.6651 52.1333 85.0117 52.46C85.3584 52.78 85.5317 53.2333 85.5317 53.82V56.03C85.5317 56.23 85.6251 56.33 85.8117 56.33H86.2617V57H85.5717C85.3517 57 85.1751 56.94 85.0417 56.82C84.9084 56.6933 84.8417 56.5267 84.8417 56.32V56.27H84.7217C84.6484 56.3967 84.5484 56.53 84.4217 56.67C84.3017 56.8033 84.1351 56.9133 83.9217 57C83.7084 57.0933 83.4317 57.14 83.0917 57.14ZM83.1817 56.46C83.6484 56.46 84.0251 56.3233 84.3117 56.05C84.6051 55.77 84.7517 55.38 84.7517 54.88V54.77H83.1317C82.8184 54.77 82.5584 54.84 82.3517 54.98C82.1517 55.1133 82.0517 55.3167 82.0517 55.59C82.0517 55.8633 82.1551 56.0767 82.3617 56.23C82.5751 56.3833 82.8484 56.46 83.1817 56.46ZM88.8214 57C88.5414 57 88.3247 56.9233 88.1714 56.77C88.0247 56.6167 87.9514 56.4067 87.9514 56.14V52.8H86.4814V52.11H87.9514V50.37H88.7414V52.11H90.3414V52.8H88.7414V56.02C88.7414 56.22 88.8381 56.32 89.0314 56.32H90.1214V57H88.8214ZM95.6894 57.14C95.3494 57.14 95.0394 57.08 94.7594 56.96C94.4794 56.84 94.2594 56.6667 94.0994 56.44C93.9394 56.2133 93.8594 55.9367 93.8594 55.61C93.8594 55.2767 93.9394 55.0033 94.0994 54.79C94.2594 54.57 94.4794 54.4067 94.7594 54.3C95.0394 54.1867 95.3527 54.13 95.6994 54.13H97.3494V53.77C97.3494 53.4233 97.246 53.15 97.0394 52.95C96.8394 52.75 96.5394 52.65 96.1394 52.65C95.746 52.65 95.4394 52.7467 95.2194 52.94C94.9994 53.1267 94.8494 53.38 94.7694 53.7L94.0294 53.46C94.1094 53.1867 94.236 52.94 94.4094 52.72C94.5827 52.4933 94.8127 52.3133 95.0994 52.18C95.3927 52.04 95.7427 51.97 96.1494 51.97C96.776 51.97 97.2627 52.1333 97.6094 52.46C97.956 52.78 98.1294 53.2333 98.1294 53.82V56.03C98.1294 56.23 98.2227 56.33 98.4094 56.33H98.8594V57H98.1694C97.9494 57 97.7727 56.94 97.6394 56.82C97.506 56.6933 97.4394 56.5267 97.4394 56.32V56.27H97.3194C97.246 56.3967 97.146 56.53 97.0194 56.67C96.8994 56.8033 96.7327 56.9133 96.5194 57C96.306 57.0933 96.0294 57.14 95.6894 57.14ZM95.7794 56.46C96.246 56.46 96.6227 56.3233 96.9094 56.05C97.2027 55.77 97.3494 55.38 97.3494 54.88V54.77H95.7294C95.416 54.77 95.156 54.84 94.9494 54.98C94.7494 55.1133 94.6494 55.3167 94.6494 55.59C94.6494 55.8633 94.7527 56.0767 94.9594 56.23C95.1727 56.3833 95.446 56.46 95.7794 56.46ZM102.51 57V50H103.3V57H102.51ZM106.461 57.14C106.121 57.14 105.811 57.08 105.531 56.96C105.251 56.84 105.031 56.6667 104.871 56.44C104.711 56.2133 104.631 55.9367 104.631 55.61C104.631 55.2767 104.711 55.0033 104.871 54.79C105.031 54.57 105.251 54.4067 105.531 54.3C105.811 54.1867 106.124 54.13 106.471 54.13H108.121V53.77C108.121 53.4233 108.018 53.15 107.811 52.95C107.611 52.75 107.311 52.65 106.911 52.65C106.518 52.65 106.211 52.7467 105.991 52.94C105.771 53.1267 105.621 53.38 105.541 53.7L104.801 53.46C104.881 53.1867 105.008 52.94 105.181 52.72C105.354 52.4933 105.584 52.3133 105.871 52.18C106.164 52.04 106.514 51.97 106.921 51.97C107.548 51.97 108.034 52.1333 108.381 52.46C108.728 52.78 108.901 53.2333 108.901 53.82V56.03C108.901 56.23 108.994 56.33 109.181 56.33H109.631V57H108.941C108.721 57 108.544 56.94 108.411 56.82C108.278 56.6933 108.211 56.5267 108.211 56.32V56.27H108.091C108.018 56.3967 107.918 56.53 107.791 56.67C107.671 56.8033 107.504 56.9133 107.291 57C107.078 57.0933 106.801 57.14 106.461 57.14ZM106.551 56.46C107.018 56.46 107.394 56.3233 107.681 56.05C107.974 55.77 108.121 55.38 108.121 54.88V54.77H106.501C106.188 54.77 105.928 54.84 105.721 54.98C105.521 55.1133 105.421 55.3167 105.421 55.59C105.421 55.8633 105.524 56.0767 105.731 56.23C105.944 56.3833 106.218 56.46 106.551 56.46ZM110.713 57V52.11H111.483V52.71H111.623C111.709 52.4967 111.843 52.34 112.023 52.24C112.203 52.14 112.439 52.09 112.733 52.09H113.313V52.81H112.683C112.329 52.81 112.043 52.91 111.823 53.11C111.609 53.3033 111.503 53.6067 111.503 54.02V57H110.713ZM114.067 54.58V54.44C114.067 53.9267 114.17 53.4867 114.377 53.12C114.583 52.7533 114.863 52.47 115.217 52.27C115.57 52.07 115.957 51.97 116.377 51.97C116.89 51.97 117.283 52.07 117.557 52.27C117.837 52.4633 118.043 52.68 118.177 52.92H118.317V52.11H119.067V58.14C119.067 58.4067 118.993 58.6167 118.847 58.77C118.7 58.9233 118.487 59 118.207 59H114.887V58.3H117.997C118.197 58.3 118.297 58.2 118.297 58V56.14H118.157C118.077 56.2867 117.963 56.43 117.817 56.57C117.67 56.71 117.48 56.8267 117.247 56.92C117.013 57.0067 116.723 57.05 116.377 57.05C115.957 57.05 115.57 56.95 115.217 56.75C114.863 56.55 114.583 56.2667 114.377 55.9C114.17 55.5267 114.067 55.0867 114.067 54.58ZM116.587 56.35C117.093 56.35 117.503 56.19 117.817 55.87C118.137 55.55 118.297 55.11 118.297 54.55V54.47C118.297 53.9033 118.137 53.4633 117.817 53.15C117.503 52.83 117.093 52.67 116.587 52.67C116.087 52.67 115.673 52.83 115.347 53.15C115.027 53.4633 114.867 53.9033 114.867 54.47V54.55C114.867 55.11 115.027 55.55 115.347 55.87C115.673 56.19 116.087 56.35 116.587 56.35ZM122.963 57.14C122.469 57.14 122.036 57.0367 121.663 56.83C121.289 56.6167 120.999 56.32 120.793 55.94C120.586 55.56 120.483 55.12 120.483 54.62V54.5C120.483 53.9933 120.586 53.55 120.793 53.17C120.999 52.79 121.286 52.4967 121.653 52.29C122.019 52.0767 122.439 51.97 122.913 51.97C123.373 51.97 123.779 52.07 124.133 52.27C124.486 52.4633 124.763 52.7433 124.963 53.11C125.163 53.4767 125.263 53.9067 125.263 54.4V54.76H121.273C121.293 55.2867 121.463 55.7 121.783 56C122.103 56.2933 122.503 56.44 122.983 56.44C123.403 56.44 123.726 56.3433 123.953 56.15C124.179 55.9567 124.353 55.7267 124.473 55.46L125.153 55.79C125.053 55.9967 124.913 56.2033 124.733 56.41C124.559 56.6167 124.329 56.79 124.043 56.93C123.763 57.07 123.403 57.14 122.963 57.14ZM121.283 54.11H124.463C124.436 53.6567 124.279 53.3033 123.993 53.05C123.713 52.7967 123.353 52.67 122.913 52.67C122.466 52.67 122.099 52.7967 121.813 53.05C121.526 53.3033 121.349 53.6567 121.283 54.11ZM129.209 59V52.11H129.979V52.92H130.119C130.246 52.6733 130.449 52.4533 130.729 52.26C131.016 52.0667 131.412 51.97 131.919 51.97C132.339 51.97 132.722 52.0733 133.069 52.28C133.422 52.48 133.702 52.7667 133.909 53.14C134.122 53.5133 134.229 53.9633 134.229 54.49V54.62C134.229 55.14 134.126 55.59 133.919 55.97C133.712 56.35 133.432 56.64 133.079 56.84C132.732 57.04 132.346 57.14 131.919 57.14C131.579 57.14 131.289 57.0933 131.049 57C130.816 56.9133 130.626 56.8 130.479 56.66C130.332 56.52 130.219 56.3767 130.139 56.23H129.999V59H129.209ZM131.709 56.44C132.216 56.44 132.626 56.28 132.939 55.96C133.259 55.6333 133.419 55.18 133.419 54.6V54.51C133.419 53.93 133.259 53.48 132.939 53.16C132.626 52.8333 132.216 52.67 131.709 52.67C131.209 52.67 130.796 52.8333 130.469 53.16C130.149 53.48 129.989 53.93 129.989 54.51V54.6C129.989 55.18 130.149 55.6333 130.469 55.96C130.796 56.28 131.209 56.44 131.709 56.44ZM137.144 57.14C136.804 57.14 136.494 57.08 136.214 56.96C135.934 56.84 135.714 56.6667 135.554 56.44C135.394 56.2133 135.314 55.9367 135.314 55.61C135.314 55.2767 135.394 55.0033 135.554 54.79C135.714 54.57 135.934 54.4067 136.214 54.3C136.494 54.1867 136.808 54.13 137.154 54.13H138.804V53.77C138.804 53.4233 138.701 53.15 138.494 52.95C138.294 52.75 137.994 52.65 137.594 52.65C137.201 52.65 136.894 52.7467 136.674 52.94C136.454 53.1267 136.304 53.38 136.224 53.7L135.484 53.46C135.564 53.1867 135.691 52.94 135.864 52.72C136.038 52.4933 136.268 52.3133 136.554 52.18C136.848 52.04 137.198 51.97 137.604 51.97C138.231 51.97 138.718 52.1333 139.064 52.46C139.411 52.78 139.584 53.2333 139.584 53.82V56.03C139.584 56.23 139.678 56.33 139.864 56.33H140.314V57H139.624C139.404 57 139.228 56.94 139.094 56.82C138.961 56.6933 138.894 56.5267 138.894 56.32V56.27H138.774C138.701 56.3967 138.601 56.53 138.474 56.67C138.354 56.8033 138.188 56.9133 137.974 57C137.761 57.0933 137.484 57.14 137.144 57.14ZM137.234 56.46C137.701 56.46 138.078 56.3233 138.364 56.05C138.658 55.77 138.804 55.38 138.804 54.88V54.77H137.184C136.871 54.77 136.611 54.84 136.404 54.98C136.204 55.1133 136.104 55.3167 136.104 55.59C136.104 55.8633 136.208 56.0767 136.414 56.23C136.628 56.3833 136.901 56.46 137.234 56.46ZM141.396 57V52.11H142.166V52.71H142.306C142.393 52.4967 142.526 52.34 142.706 52.24C142.886 52.14 143.123 52.09 143.416 52.09H143.996V52.81H143.366C143.013 52.81 142.726 52.91 142.506 53.11C142.293 53.3033 142.186 53.6067 142.186 54.02V57H141.396ZM146.966 57C146.686 57 146.469 56.9233 146.316 56.77C146.169 56.6167 146.096 56.4067 146.096 56.14V52.8H144.626V52.11H146.096V50.37H146.886V52.11H148.486V52.8H146.886V56.02C146.886 56.22 146.983 56.32 147.176 56.32H148.266V57H146.966ZM154.594 57.14C154.101 57.14 153.664 57.0367 153.284 56.83C152.911 56.6233 152.617 56.3333 152.404 55.96C152.197 55.58 152.094 55.1333 152.094 54.62V54.49C152.094 53.9833 152.197 53.54 152.404 53.16C152.617 52.78 152.911 52.4867 153.284 52.28C153.664 52.0733 154.101 51.97 154.594 51.97C155.087 51.97 155.521 52.0733 155.894 52.28C156.274 52.4867 156.567 52.78 156.774 53.16C156.987 53.54 157.094 53.9833 157.094 54.49V54.62C157.094 55.1333 156.987 55.58 156.774 55.96C156.567 56.3333 156.274 56.6233 155.894 56.83C155.521 57.0367 155.087 57.14 154.594 57.14ZM154.594 56.43C155.114 56.43 155.527 56.2667 155.834 55.94C156.147 55.6067 156.304 55.16 156.304 54.6V54.51C156.304 53.95 156.147 53.5067 155.834 53.18C155.527 52.8467 155.114 52.68 154.594 52.68C154.081 52.68 153.667 52.8467 153.354 53.18C153.041 53.5067 152.884 53.95 152.884 54.51V54.6C152.884 55.16 153.041 55.6067 153.354 55.94C153.667 56.2667 154.081 56.43 154.594 56.43ZM159.28 57V52.8H157.78V52.11H159.28V50.86C159.28 50.5933 159.354 50.3833 159.5 50.23C159.654 50.0767 159.87 50 160.15 50H161.38V50.68H160.37C160.17 50.68 160.07 50.78 160.07 50.98V52.11H161.61V52.8H160.07V57H159.28ZM165.902 59V58.3H168.702C168.896 58.3 168.992 58.2 168.992 58V56.22H168.852C168.786 56.36 168.682 56.5 168.542 56.64C168.409 56.7733 168.232 56.8833 168.012 56.97C167.792 57.05 167.516 57.09 167.182 57.09C166.829 57.09 166.502 57.0133 166.202 56.86C165.909 56.7067 165.676 56.48 165.502 56.18C165.336 55.88 165.252 55.5133 165.252 55.08V52.11H166.042V55.02C166.042 55.5 166.162 55.85 166.402 56.07C166.649 56.29 166.979 56.4 167.392 56.4C167.859 56.4 168.242 56.2467 168.542 55.94C168.842 55.6333 168.992 55.1767 168.992 54.57V52.11H169.782V58.14C169.782 58.4067 169.706 58.6167 169.552 58.77C169.406 58.9233 169.189 59 168.902 59H165.902ZM173.695 57.14C173.202 57.14 172.765 57.0367 172.385 56.83C172.012 56.6233 171.719 56.3333 171.505 55.96C171.299 55.58 171.195 55.1333 171.195 54.62V54.49C171.195 53.9833 171.299 53.54 171.505 53.16C171.719 52.78 172.012 52.4867 172.385 52.28C172.765 52.0733 173.202 51.97 173.695 51.97C174.189 51.97 174.622 52.0733 174.995 52.28C175.375 52.4867 175.669 52.78 175.875 53.16C176.089 53.54 176.195 53.9833 176.195 54.49V54.62C176.195 55.1333 176.089 55.58 175.875 55.96C175.669 56.3333 175.375 56.6233 174.995 56.83C174.622 57.0367 174.189 57.14 173.695 57.14ZM173.695 56.43C174.215 56.43 174.629 56.2667 174.935 55.94C175.249 55.6067 175.405 55.16 175.405 54.6V54.51C175.405 53.95 175.249 53.5067 174.935 53.18C174.629 52.8467 174.215 52.68 173.695 52.68C173.182 52.68 172.769 52.8467 172.455 53.18C172.142 53.5067 171.985 53.95 171.985 54.51V54.6C171.985 55.16 172.142 55.6067 172.455 55.94C172.769 56.2667 173.182 56.43 173.695 56.43ZM179.487 57.09C179.134 57.09 178.807 57.0133 178.507 56.86C178.214 56.7067 177.98 56.48 177.807 56.18C177.64 55.8733 177.557 55.5033 177.557 55.07V52.11H178.347V55.01C178.347 55.4967 178.467 55.85 178.707 56.07C178.954 56.29 179.284 56.4 179.697 56.4C180.164 56.4 180.547 56.2467 180.847 55.94C181.147 55.6333 181.297 55.1767 181.297 54.57V52.11H182.087V57H181.317V56.17H181.177C181.07 56.4033 180.887 56.6167 180.627 56.81C180.367 56.9967 179.987 57.09 179.487 57.09ZM183.74 57V52.11H184.51V52.71H184.65C184.737 52.4967 184.87 52.34 185.05 52.24C185.23 52.14 185.467 52.09 185.76 52.09H186.34V52.81H185.71C185.357 52.81 185.07 52.91 184.85 53.11C184.637 53.3033 184.53 53.6067 184.53 54.02V57H183.74ZM192.328 57.14C191.855 57.14 191.428 57.04 191.048 56.84C190.675 56.6333 190.378 56.34 190.158 55.96C189.945 55.58 189.838 55.13 189.838 54.61V54.5C189.838 53.9733 189.945 53.5233 190.158 53.15C190.378 52.77 190.675 52.48 191.048 52.28C191.428 52.0733 191.855 51.97 192.328 51.97C192.795 51.97 193.191 52.0567 193.518 52.23C193.851 52.4033 194.111 52.6333 194.298 52.92C194.491 53.2067 194.615 53.5133 194.668 53.84L193.898 54C193.865 53.76 193.785 53.54 193.658 53.34C193.538 53.14 193.368 52.98 193.148 52.86C192.928 52.74 192.658 52.68 192.338 52.68C192.011 52.68 191.718 52.7533 191.458 52.9C191.205 53.0467 191.001 53.2567 190.848 53.53C190.701 53.8033 190.628 54.13 190.628 54.51V54.6C190.628 54.98 190.701 55.3067 190.848 55.58C191.001 55.8533 191.205 56.0633 191.458 56.21C191.718 56.3567 192.011 56.43 192.338 56.43C192.825 56.43 193.195 56.3033 193.448 56.05C193.708 55.7967 193.868 55.4833 193.928 55.11L194.708 55.28C194.635 55.6 194.501 55.9033 194.308 56.19C194.115 56.4767 193.851 56.7067 193.518 56.88C193.191 57.0533 192.795 57.14 192.328 57.14ZM197.555 57.14C197.215 57.14 196.905 57.08 196.625 56.96C196.345 56.84 196.125 56.6667 195.965 56.44C195.805 56.2133 195.725 55.9367 195.725 55.61C195.725 55.2767 195.805 55.0033 195.965 54.79C196.125 54.57 196.345 54.4067 196.625 54.3C196.905 54.1867 197.218 54.13 197.565 54.13H199.215V53.77C199.215 53.4233 199.111 53.15 198.905 52.95C198.705 52.75 198.405 52.65 198.005 52.65C197.611 52.65 197.305 52.7467 197.085 52.94C196.865 53.1267 196.715 53.38 196.635 53.7L195.895 53.46C195.975 53.1867 196.101 52.94 196.275 52.72C196.448 52.4933 196.678 52.3133 196.965 52.18C197.258 52.04 197.608 51.97 198.015 51.97C198.641 51.97 199.128 52.1333 199.475 52.46C199.821 52.78 199.995 53.2333 199.995 53.82V56.03C199.995 56.23 200.088 56.33 200.275 56.33H200.725V57H200.035C199.815 57 199.638 56.94 199.505 56.82C199.371 56.6933 199.305 56.5267 199.305 56.32V56.27H199.185C199.111 56.3967 199.011 56.53 198.885 56.67C198.765 56.8033 198.598 56.9133 198.385 57C198.171 57.0933 197.895 57.14 197.555 57.14ZM197.645 56.46C198.111 56.46 198.488 56.3233 198.775 56.05C199.068 55.77 199.215 55.38 199.215 54.88V54.77H197.595C197.281 54.77 197.021 54.84 196.815 54.98C196.615 55.1133 196.515 55.3167 196.515 55.59C196.515 55.8633 196.618 56.0767 196.825 56.23C197.038 56.3833 197.311 56.46 197.645 56.46ZM201.807 57V52.11H202.577V52.71H202.717C202.803 52.4967 202.937 52.34 203.117 52.24C203.297 52.14 203.533 52.09 203.827 52.09H204.407V52.81H203.777C203.423 52.81 203.137 52.91 202.917 53.11C202.703 53.3033 202.597 53.6067 202.597 54.02V57H201.807ZM208.286 57.14C207.779 57.14 207.383 57.0433 207.096 56.85C206.816 56.6567 206.613 56.4367 206.486 56.19H206.346V57H205.576V50H206.366V52.88H206.506C206.586 52.7267 206.699 52.5833 206.846 52.45C206.993 52.31 207.183 52.1967 207.416 52.11C207.656 52.0167 207.946 51.97 208.286 51.97C208.713 51.97 209.099 52.0733 209.446 52.28C209.799 52.48 210.079 52.77 210.286 53.15C210.493 53.5233 210.596 53.97 210.596 54.49V54.62C210.596 55.14 210.489 55.59 210.276 55.97C210.069 56.35 209.789 56.64 209.436 56.84C209.089 57.04 208.706 57.14 208.286 57.14ZM208.076 56.44C208.583 56.44 208.993 56.28 209.306 55.96C209.626 55.6333 209.786 55.18 209.786 54.6V54.51C209.786 53.93 209.626 53.48 209.306 53.16C208.993 52.8333 208.583 52.67 208.076 52.67C207.576 52.67 207.163 52.8333 206.836 53.16C206.516 53.48 206.356 53.93 206.356 54.51V54.6C206.356 55.18 206.516 55.6333 206.836 55.96C207.163 56.28 207.576 56.44 208.076 56.44ZM214.272 57.14C213.778 57.14 213.342 57.0367 212.962 56.83C212.588 56.6233 212.295 56.3333 212.082 55.96C211.875 55.58 211.772 55.1333 211.772 54.62V54.49C211.772 53.9833 211.875 53.54 212.082 53.16C212.295 52.78 212.588 52.4867 212.962 52.28C213.342 52.0733 213.778 51.97 214.272 51.97C214.765 51.97 215.198 52.0733 215.572 52.28C215.952 52.4867 216.245 52.78 216.452 53.16C216.665 53.54 216.772 53.9833 216.772 54.49V54.62C216.772 55.1333 216.665 55.58 216.452 55.96C216.245 56.3333 215.952 56.6233 215.572 56.83C215.198 57.0367 214.765 57.14 214.272 57.14ZM214.272 56.43C214.792 56.43 215.205 56.2667 215.512 55.94C215.825 55.6067 215.982 55.16 215.982 54.6V54.51C215.982 53.95 215.825 53.5067 215.512 53.18C215.205 52.8467 214.792 52.68 214.272 52.68C213.758 52.68 213.345 52.8467 213.032 53.18C212.718 53.5067 212.562 53.95 212.562 54.51V54.6C212.562 55.16 212.718 55.6067 213.032 55.94C213.345 56.2667 213.758 56.43 214.272 56.43ZM218.193 57V52.11H218.963V52.94H219.103C219.21 52.7067 219.39 52.4967 219.643 52.31C219.903 52.1167 220.283 52.02 220.783 52.02C221.15 52.02 221.477 52.0967 221.763 52.25C222.057 52.4033 222.29 52.63 222.463 52.93C222.637 53.23 222.723 53.6 222.723 54.04V57H221.933V54.1C221.933 53.6133 221.81 53.26 221.563 53.04C221.323 52.82 220.997 52.71 220.583 52.71C220.11 52.71 219.723 52.8633 219.423 53.17C219.13 53.4767 218.983 53.9333 218.983 54.54V57H218.193ZM229.154 57.14C228.661 57.14 228.224 57.0367 227.844 56.83C227.471 56.6233 227.178 56.3333 226.964 55.96C226.758 55.58 226.654 55.1333 226.654 54.62V54.49C226.654 53.9833 226.758 53.54 226.964 53.16C227.178 52.78 227.471 52.4867 227.844 52.28C228.224 52.0733 228.661 51.97 229.154 51.97C229.648 51.97 230.081 52.0733 230.454 52.28C230.834 52.4867 231.128 52.78 231.334 53.16C231.548 53.54 231.654 53.9833 231.654 54.49V54.62C231.654 55.1333 231.548 55.58 231.334 55.96C231.128 56.3333 230.834 56.6233 230.454 56.83C230.081 57.0367 229.648 57.14 229.154 57.14ZM229.154 56.43C229.674 56.43 230.088 56.2667 230.394 55.94C230.708 55.6067 230.864 55.16 230.864 54.6V54.51C230.864 53.95 230.708 53.5067 230.394 53.18C230.088 52.8467 229.674 52.68 229.154 52.68C228.641 52.68 228.228 52.8467 227.914 53.18C227.601 53.5067 227.444 53.95 227.444 54.51V54.6C227.444 55.16 227.601 55.6067 227.914 55.94C228.228 56.2667 228.641 56.43 229.154 56.43ZM233.841 57V52.8H232.341V52.11H233.841V50.86C233.841 50.5933 233.914 50.3833 234.061 50.23C234.214 50.0767 234.431 50 234.711 50H235.941V50.68H234.931C234.731 50.68 234.631 50.78 234.631 50.98V52.11H235.861V52.8H234.631V57H233.841ZM237.061 57V52.8H235.861V52.11H237.061V50.86C237.061 50.5933 237.134 50.3833 237.281 50.23C237.434 50.0767 237.651 50 237.931 50H239.161V50.68H238.141C237.947 50.68 237.851 50.78 237.851 50.98V52.11H239.391V52.8H237.851V57H237.061ZM242.4 57.14C241.793 57.14 241.28 57 240.86 56.72C240.446 56.44 240.196 55.9967 240.11 55.39L240.86 55.22C240.913 55.54 241.013 55.7933 241.16 55.98C241.306 56.16 241.486 56.29 241.7 56.37C241.92 56.4433 242.153 56.48 242.4 56.48C242.766 56.48 243.056 56.4067 243.27 56.26C243.483 56.1133 243.59 55.9167 243.59 55.67C243.59 55.4167 243.486 55.24 243.28 55.14C243.08 55.0333 242.803 54.9467 242.45 54.88L242.04 54.81C241.726 54.7567 241.44 54.6733 241.18 54.56C240.92 54.4467 240.713 54.2933 240.56 54.1C240.406 53.9067 240.33 53.6633 240.33 53.37C240.33 52.93 240.5 52.5867 240.84 52.34C241.18 52.0933 241.63 51.97 242.19 51.97C242.743 51.97 243.19 52.0967 243.53 52.35C243.876 52.5967 244.1 52.9467 244.2 53.4L243.46 53.59C243.4 53.2367 243.256 52.99 243.03 52.85C242.803 52.7033 242.523 52.63 242.19 52.63C241.856 52.63 241.593 52.6933 241.4 52.82C241.206 52.94 241.11 53.12 241.11 53.36C241.11 53.5933 241.2 53.7667 241.38 53.88C241.566 53.9867 241.813 54.0667 242.12 54.12L242.53 54.19C242.876 54.25 243.186 54.3333 243.46 54.44C243.74 54.54 243.96 54.6867 244.12 54.88C244.286 55.0733 244.37 55.3267 244.37 55.64C244.37 56.12 244.19 56.49 243.83 56.75C243.476 57.01 243 57.14 242.4 57.14ZM247.943 57.14C247.45 57.14 247.016 57.0367 246.643 56.83C246.27 56.6167 245.98 56.32 245.773 55.94C245.566 55.56 245.463 55.12 245.463 54.62V54.5C245.463 53.9933 245.566 53.55 245.773 53.17C245.98 52.79 246.266 52.4967 246.633 52.29C247 52.0767 247.42 51.97 247.893 51.97C248.353 51.97 248.76 52.07 249.113 52.27C249.466 52.4633 249.743 52.7433 249.943 53.11C250.143 53.4767 250.243 53.9067 250.243 54.4V54.76H246.253C246.273 55.2867 246.443 55.7 246.763 56C247.083 56.2933 247.483 56.44 247.963 56.44C248.383 56.44 248.706 56.3433 248.933 56.15C249.16 55.9567 249.333 55.7267 249.453 55.46L250.133 55.79C250.033 55.9967 249.893 56.2033 249.713 56.41C249.54 56.6167 249.31 56.79 249.023 56.93C248.743 57.07 248.383 57.14 247.943 57.14ZM246.263 54.11H249.443C249.416 53.6567 249.26 53.3033 248.973 53.05C248.693 52.7967 248.333 52.67 247.893 52.67C247.446 52.67 247.08 52.7967 246.793 53.05C246.506 53.3033 246.33 53.6567 246.263 54.11ZM253.421 57C253.141 57 252.924 56.9233 252.771 56.77C252.624 56.6167 252.551 56.4067 252.551 56.14V52.8H251.081V52.11H252.551V50.37H253.341V52.11H254.621V52.8H253.341V56.02C253.341 56.22 253.438 56.32 253.631 56.32H254.721V57H253.421ZM256.641 57C256.361 57 256.144 56.9233 255.991 56.77C255.838 56.6167 255.761 56.4067 255.761 56.14V52.8H254.621V52.11H255.761V50.37H256.551V52.11H258.161V52.8H256.551V56.02C256.551 56.22 256.651 56.32 256.851 56.32H257.941V57H256.641ZM259.443 57V52.11H260.233V57H259.443ZM259.843 51.35C259.67 51.35 259.523 51.2933 259.403 51.18C259.29 51.0667 259.233 50.9233 259.233 50.75C259.233 50.57 259.29 50.4233 259.403 50.31C259.523 50.1967 259.67 50.14 259.843 50.14C260.017 50.14 260.16 50.1967 260.273 50.31C260.387 50.4233 260.443 50.57 260.443 50.75C260.443 50.9233 260.387 51.0667 260.273 51.18C260.16 51.2933 260.017 51.35 259.843 51.35ZM261.894 57V52.11H262.664V52.94H262.804C262.911 52.7067 263.091 52.4967 263.344 52.31C263.604 52.1167 263.984 52.02 264.484 52.02C264.851 52.02 265.178 52.0967 265.464 52.25C265.758 52.4033 265.991 52.63 266.164 52.93C266.338 53.23 266.424 53.6 266.424 54.04V57H265.634V54.1C265.634 53.6133 265.511 53.26 265.264 53.04C265.024 52.82 264.698 52.71 264.284 52.71C263.811 52.71 263.424 52.8633 263.124 53.17C262.831 53.4767 262.684 53.9333 262.684 54.54V57H261.894ZM267.787 54.58V54.44C267.787 53.9267 267.891 53.4867 268.097 53.12C268.304 52.7533 268.584 52.47 268.937 52.27C269.291 52.07 269.677 51.97 270.097 51.97C270.611 51.97 271.004 52.07 271.277 52.27C271.557 52.4633 271.764 52.68 271.897 52.92H272.037V52.11H272.787V58.14C272.787 58.4067 272.714 58.6167 272.567 58.77C272.421 58.9233 272.207 59 271.927 59H268.607V58.3H271.717C271.917 58.3 272.017 58.2 272.017 58V56.14H271.877C271.797 56.2867 271.684 56.43 271.537 56.57C271.391 56.71 271.201 56.8267 270.967 56.92C270.734 57.0067 270.444 57.05 270.097 57.05C269.677 57.05 269.291 56.95 268.937 56.75C268.584 56.55 268.304 56.2667 268.097 55.9C267.891 55.5267 267.787 55.0867 267.787 54.58ZM270.307 56.35C270.814 56.35 271.224 56.19 271.537 55.87C271.857 55.55 272.017 55.11 272.017 54.55V54.47C272.017 53.9033 271.857 53.4633 271.537 53.15C271.224 52.83 270.814 52.67 270.307 52.67C269.807 52.67 269.394 52.83 269.067 53.15C268.747 53.4633 268.587 53.9033 268.587 54.47V54.55C268.587 55.11 268.747 55.55 269.067 55.87C269.394 56.19 269.807 56.35 270.307 56.35ZM42.8 71.14C42.1933 71.14 41.68 71 41.26 70.72C40.8467 70.44 40.5967 69.9967 40.51 69.39L41.26 69.22C41.3133 69.54 41.4133 69.7933 41.56 69.98C41.7067 70.16 41.8867 70.29 42.1 70.37C42.32 70.4433 42.5533 70.48 42.8 70.48C43.1667 70.48 43.4567 70.4067 43.67 70.26C43.8833 70.1133 43.99 69.9167 43.99 69.67C43.99 69.4167 43.8867 69.24 43.68 69.14C43.48 69.0333 43.2033 68.9467 42.85 68.88L42.44 68.81C42.1267 68.7567 41.84 68.6733 41.58 68.56C41.32 68.4467 41.1133 68.2933 40.96 68.1C40.8067 67.9067 40.73 67.6633 40.73 67.37C40.73 66.93 40.9 66.5867 41.24 66.34C41.58 66.0933 42.03 65.97 42.59 65.97C43.1433 65.97 43.59 66.0967 43.93 66.35C44.2767 66.5967 44.5 66.9467 44.6 67.4L43.86 67.59C43.8 67.2367 43.6567 66.99 43.43 66.85C43.2033 66.7033 42.9233 66.63 42.59 66.63C42.2567 66.63 41.9933 66.6933 41.8 66.82C41.6067 66.94 41.51 67.12 41.51 67.36C41.51 67.5933 41.6 67.7667 41.78 67.88C41.9667 67.9867 42.2133 68.0667 42.52 68.12L42.93 68.19C43.2767 68.25 43.5867 68.3333 43.86 68.44C44.14 68.54 44.36 68.6867 44.52 68.88C44.6867 69.0733 44.77 69.3267 44.77 69.64C44.77 70.12 44.59 70.49 44.23 70.75C43.8767 71.01 43.4 71.14 42.8 71.14ZM47.796 71C47.516 71 47.2993 70.9233 47.146 70.77C46.9993 70.6167 46.926 70.4067 46.926 70.14V66.8H45.456V66.11H46.926V64.37H47.716V66.11H49.316V66.8H47.716V70.02C47.716 70.22 47.8127 70.32 48.006 70.32H49.096V71H47.796ZM50.5956 71V66.11H51.3656V66.71H51.5056C51.5923 66.4967 51.7256 66.34 51.9056 66.24C52.0856 66.14 52.3223 66.09 52.6156 66.09H53.1956V66.81H52.5656C52.2123 66.81 51.9256 66.91 51.7056 67.11C51.4923 67.3033 51.3856 67.6067 51.3856 68.02V71H50.5956ZM55.6991 71.14C55.3591 71.14 55.0491 71.08 54.7691 70.96C54.4891 70.84 54.2691 70.6667 54.1091 70.44C53.9491 70.2133 53.8691 69.9367 53.8691 69.61C53.8691 69.2767 53.9491 69.0033 54.1091 68.79C54.2691 68.57 54.4891 68.4067 54.7691 68.3C55.0491 68.1867 55.3625 68.13 55.7091 68.13H57.3591V67.77C57.3591 67.4233 57.2558 67.15 57.0491 66.95C56.8491 66.75 56.5491 66.65 56.1491 66.65C55.7558 66.65 55.4491 66.7467 55.2291 66.94C55.0091 67.1267 54.8591 67.38 54.7791 67.7L54.0391 67.46C54.1191 67.1867 54.2458 66.94 54.4191 66.72C54.5925 66.4933 54.8225 66.3133 55.1091 66.18C55.4025 66.04 55.7525 65.97 56.1591 65.97C56.7858 65.97 57.2725 66.1333 57.6191 66.46C57.9658 66.78 58.1391 67.2333 58.1391 67.82V70.03C58.1391 70.23 58.2325 70.33 58.4191 70.33H58.8691V71H58.1791C57.9591 71 57.7825 70.94 57.6491 70.82C57.5158 70.6933 57.4491 70.5267 57.4491 70.32V70.27H57.3291C57.2558 70.3967 57.1558 70.53 57.0291 70.67C56.9091 70.8033 56.7425 70.9133 56.5291 71C56.3158 71.0933 56.0391 71.14 55.6991 71.14ZM55.7891 70.46C56.2558 70.46 56.6325 70.3233 56.9191 70.05C57.2125 69.77 57.3591 69.38 57.3591 68.88V68.77H55.7391C55.4258 68.77 55.1658 68.84 54.9591 68.98C54.7591 69.1133 54.6591 69.3167 54.6591 69.59C54.6591 69.8633 54.7625 70.0767 54.9691 70.23C55.1825 70.3833 55.4558 70.46 55.7891 70.46ZM61.4288 71C61.1488 71 60.9322 70.9233 60.7788 70.77C60.6322 70.6167 60.5588 70.4067 60.5588 70.14V66.8H59.0888V66.11H60.5588V64.37H61.3488V66.11H62.9488V66.8H61.3488V70.02C61.3488 70.22 61.4455 70.32 61.6388 70.32H62.7288V71H61.4288ZM66.2927 71.14C65.7993 71.14 65.366 71.0367 64.9927 70.83C64.6193 70.6167 64.3293 70.32 64.1227 69.94C63.916 69.56 63.8127 69.12 63.8127 68.62V68.5C63.8127 67.9933 63.916 67.55 64.1227 67.17C64.3293 66.79 64.616 66.4967 64.9827 66.29C65.3493 66.0767 65.7693 65.97 66.2427 65.97C66.7027 65.97 67.1093 66.07 67.4627 66.27C67.816 66.4633 68.0927 66.7433 68.2927 67.11C68.4927 67.4767 68.5927 67.9067 68.5927 68.4V68.76H64.6027C64.6227 69.2867 64.7927 69.7 65.1127 70C65.4327 70.2933 65.8327 70.44 66.3127 70.44C66.7327 70.44 67.056 70.3433 67.2827 70.15C67.5093 69.9567 67.6827 69.7267 67.8027 69.46L68.4827 69.79C68.3827 69.9967 68.2427 70.2033 68.0627 70.41C67.8893 70.6167 67.6593 70.79 67.3727 70.93C67.0927 71.07 66.7327 71.14 66.2927 71.14ZM64.6127 68.11H67.7927C67.766 67.6567 67.6093 67.3033 67.3227 67.05C67.0427 66.7967 66.6827 66.67 66.2427 66.67C65.796 66.67 65.4293 66.7967 65.1427 67.05C64.856 67.3033 64.6793 67.6567 64.6127 68.11ZM69.7306 68.58V68.44C69.7306 67.9267 69.834 67.4867 70.0406 67.12C70.2473 66.7533 70.5273 66.47 70.8806 66.27C71.234 66.07 71.6206 65.97 72.0406 65.97C72.554 65.97 72.9473 66.07 73.2206 66.27C73.5006 66.4633 73.7073 66.68 73.8406 66.92H73.9806V66.11H74.7306V72.14C74.7306 72.4067 74.6573 72.6167 74.5106 72.77C74.364 72.9233 74.1506 73 73.8706 73H70.5506V72.3H73.6606C73.8606 72.3 73.9606 72.2 73.9606 72V70.14H73.8206C73.7406 70.2867 73.6273 70.43 73.4806 70.57C73.334 70.71 73.144 70.8267 72.9106 70.92C72.6773 71.0067 72.3873 71.05 72.0406 71.05C71.6206 71.05 71.234 70.95 70.8806 70.75C70.5273 70.55 70.2473 70.2667 70.0406 69.9C69.834 69.5267 69.7306 69.0867 69.7306 68.58ZM72.2506 70.35C72.7573 70.35 73.1673 70.19 73.4806 69.87C73.8006 69.55 73.9606 69.11 73.9606 68.55V68.47C73.9606 67.9033 73.8006 67.4633 73.4806 67.15C73.1673 66.83 72.7573 66.67 72.2506 66.67C71.7506 66.67 71.3373 66.83 71.0106 67.15C70.6906 67.4633 70.5306 67.9033 70.5306 68.47V68.55C70.5306 69.11 70.6906 69.55 71.0106 69.87C71.3373 70.19 71.7506 70.35 72.2506 70.35ZM76.9766 73V72.3H79.7766C79.97 72.3 80.0666 72.2 80.0666 72V70.22H79.9266C79.86 70.36 79.7566 70.5 79.6166 70.64C79.4833 70.7733 79.3066 70.8833 79.0866 70.97C78.8666 71.05 78.59 71.09 78.2566 71.09C77.9033 71.09 77.5766 71.0133 77.2766 70.86C76.9833 70.7067 76.75 70.48 76.5766 70.18C76.41 69.88 76.3266 69.5133 76.3266 69.08V66.11H77.1166V69.02C77.1166 69.5 77.2366 69.85 77.4766 70.07C77.7233 70.29 78.0533 70.4 78.4666 70.4C78.9333 70.4 79.3166 70.2467 79.6166 69.94C79.9166 69.6333 80.0666 69.1767 80.0666 68.57V66.11H80.8566V72.14C80.8566 72.4067 80.78 72.6167 80.6266 72.77C80.48 72.9233 80.2633 73 79.9766 73H76.9766ZM81.6797 73L84.6197 64H85.4097L82.4697 73H81.6797ZM86.2109 73V66.11H86.9809V66.92H87.1209C87.2475 66.6733 87.4509 66.4533 87.7309 66.26C88.0175 66.0667 88.4142 65.97 88.9209 65.97C89.3409 65.97 89.7242 66.0733 90.0709 66.28C90.4242 66.48 90.7042 66.7667 90.9109 67.14C91.1242 67.5133 91.2309 67.9633 91.2309 68.49V68.62C91.2309 69.14 91.1275 69.59 90.9209 69.97C90.7142 70.35 90.4342 70.64 90.0809 70.84C89.7342 71.04 89.3475 71.14 88.9209 71.14C88.5809 71.14 88.2909 71.0933 88.0509 71C87.8175 70.9133 87.6275 70.8 87.4809 70.66C87.3342 70.52 87.2209 70.3767 87.1409 70.23H87.0009V73H86.2109ZM88.7109 70.44C89.2175 70.44 89.6275 70.28 89.9409 69.96C90.2609 69.6333 90.4209 69.18 90.4209 68.6V68.51C90.4209 67.93 90.2609 67.48 89.9409 67.16C89.6275 66.8333 89.2175 66.67 88.7109 66.67C88.2109 66.67 87.7975 66.8333 87.4709 67.16C87.1509 67.48 86.9909 67.93 86.9909 68.51V68.6C86.9909 69.18 87.1509 69.6333 87.4709 69.96C87.7975 70.28 88.2109 70.44 88.7109 70.44ZM92.6464 71V66.11H93.4164V66.71H93.5564C93.6431 66.4967 93.7764 66.34 93.9564 66.24C94.1364 66.14 94.3731 66.09 94.6664 66.09H95.2464V66.81H94.6164C94.2631 66.81 93.9764 66.91 93.7564 67.11C93.5431 67.3033 93.4364 67.6067 93.4364 68.02V71H92.6464ZM98.5002 71.14C98.0068 71.14 97.5702 71.0367 97.1902 70.83C96.8168 70.6233 96.5235 70.3333 96.3102 69.96C96.1035 69.58 96.0002 69.1333 96.0002 68.62V68.49C96.0002 67.9833 96.1035 67.54 96.3102 67.16C96.5235 66.78 96.8168 66.4867 97.1902 66.28C97.5702 66.0733 98.0068 65.97 98.5002 65.97C98.9935 65.97 99.4268 66.0733 99.8002 66.28C100.18 66.4867 100.473 66.78 100.68 67.16C100.893 67.54 101 67.9833 101 68.49V68.62C101 69.1333 100.893 69.58 100.68 69.96C100.473 70.3333 100.18 70.6233 99.8002 70.83C99.4268 71.0367 98.9935 71.14 98.5002 71.14ZM98.5002 70.43C99.0202 70.43 99.4335 70.2667 99.7402 69.94C100.053 69.6067 100.21 69.16 100.21 68.6V68.51C100.21 67.95 100.053 67.5067 99.7402 67.18C99.4335 66.8467 99.0202 66.68 98.5002 66.68C97.9868 66.68 97.5735 66.8467 97.2602 67.18C96.9468 67.5067 96.7902 67.95 96.7902 68.51V68.6C96.7902 69.16 96.9468 69.6067 97.2602 69.94C97.5735 70.2667 97.9868 70.43 98.5002 70.43ZM101.462 73V72.3H102.142C102.342 72.3 102.442 72.2 102.442 72V66.11H103.232V72.14C103.232 72.4067 103.155 72.6167 103.002 72.77C102.855 72.9233 102.642 73 102.362 73H101.462ZM102.842 65.35C102.668 65.35 102.522 65.2933 102.402 65.18C102.288 65.0667 102.232 64.9233 102.232 64.75C102.232 64.57 102.288 64.4233 102.402 64.31C102.522 64.1967 102.668 64.14 102.842 64.14C103.015 64.14 103.158 64.1967 103.272 64.31C103.385 64.4233 103.442 64.57 103.442 64.75C103.442 64.9233 103.385 65.0667 103.272 65.18C103.158 65.2933 103.015 65.35 102.842 65.35ZM107.133 71.14C106.639 71.14 106.206 71.0367 105.833 70.83C105.459 70.6167 105.169 70.32 104.963 69.94C104.756 69.56 104.653 69.12 104.653 68.62V68.5C104.653 67.9933 104.756 67.55 104.963 67.17C105.169 66.79 105.456 66.4967 105.823 66.29C106.189 66.0767 106.609 65.97 107.083 65.97C107.543 65.97 107.949 66.07 108.303 66.27C108.656 66.4633 108.933 66.7433 109.133 67.11C109.333 67.4767 109.433 67.9067 109.433 68.4V68.76H105.443C105.463 69.2867 105.633 69.7 105.953 70C106.273 70.2933 106.673 70.44 107.153 70.44C107.573 70.44 107.896 70.3433 108.123 70.15C108.349 69.9567 108.523 69.7267 108.643 69.46L109.323 69.79C109.223 69.9967 109.083 70.2033 108.903 70.41C108.729 70.6167 108.499 70.79 108.213 70.93C107.933 71.07 107.573 71.14 107.133 71.14ZM105.453 68.11H108.633C108.606 67.6567 108.449 67.3033 108.163 67.05C107.883 66.7967 107.523 66.67 107.083 66.67C106.636 66.67 106.269 66.7967 105.983 67.05C105.696 67.3033 105.519 67.6567 105.453 68.11ZM113.06 71.14C112.587 71.14 112.16 71.04 111.78 70.84C111.407 70.6333 111.11 70.34 110.89 69.96C110.677 69.58 110.57 69.13 110.57 68.61V68.5C110.57 67.9733 110.677 67.5233 110.89 67.15C111.11 66.77 111.407 66.48 111.78 66.28C112.16 66.0733 112.587 65.97 113.06 65.97C113.527 65.97 113.924 66.0567 114.25 66.23C114.584 66.4033 114.844 66.6333 115.03 66.92C115.224 67.2067 115.347 67.5133 115.4 67.84L114.63 68C114.597 67.76 114.517 67.54 114.39 67.34C114.27 67.14 114.1 66.98 113.88 66.86C113.66 66.74 113.39 66.68 113.07 66.68C112.744 66.68 112.45 66.7533 112.19 66.9C111.937 67.0467 111.734 67.2567 111.58 67.53C111.434 67.8033 111.36 68.13 111.36 68.51V68.6C111.36 68.98 111.434 69.3067 111.58 69.58C111.734 69.8533 111.937 70.0633 112.19 70.21C112.45 70.3567 112.744 70.43 113.07 70.43C113.557 70.43 113.927 70.3033 114.18 70.05C114.44 69.7967 114.6 69.4833 114.66 69.11L115.44 69.28C115.367 69.6 115.234 69.9033 115.04 70.19C114.847 70.4767 114.584 70.7067 114.25 70.88C113.924 71.0533 113.527 71.14 113.06 71.14ZM118.392 71C118.112 71 117.895 70.9233 117.742 70.77C117.595 70.6167 117.522 70.4067 117.522 70.14V66.8H116.052V66.11H117.522V64.37H118.312V66.11H119.912V66.8H118.312V70.02C118.312 70.22 118.408 70.32 118.602 70.32H119.692V71H118.392ZM123.161 71.14C122.555 71.14 122.041 71 121.621 70.72C121.208 70.44 120.958 69.9967 120.871 69.39L121.621 69.22C121.675 69.54 121.775 69.7933 121.921 69.98C122.068 70.16 122.248 70.29 122.461 70.37C122.681 70.4433 122.915 70.48 123.161 70.48C123.528 70.48 123.818 70.4067 124.031 70.26C124.245 70.1133 124.351 69.9167 124.351 69.67C124.351 69.4167 124.248 69.24 124.041 69.14C123.841 69.0333 123.565 68.9467 123.211 68.88L122.801 68.81C122.488 68.7567 122.201 68.6733 121.941 68.56C121.681 68.4467 121.475 68.2933 121.321 68.1C121.168 67.9067 121.091 67.6633 121.091 67.37C121.091 66.93 121.261 66.5867 121.601 66.34C121.941 66.0933 122.391 65.97 122.951 65.97C123.505 65.97 123.951 66.0967 124.291 66.35C124.638 66.5967 124.861 66.9467 124.961 67.4L124.221 67.59C124.161 67.2367 124.018 66.99 123.791 66.85C123.565 66.7033 123.285 66.63 122.951 66.63C122.618 66.63 122.355 66.6933 122.161 66.82C121.968 66.94 121.871 67.12 121.871 67.36C121.871 67.5933 121.961 67.7667 122.141 67.88C122.328 67.9867 122.575 68.0667 122.881 68.12L123.291 68.19C123.638 68.25 123.948 68.3333 124.221 68.44C124.501 68.54 124.721 68.6867 124.881 68.88C125.048 69.0733 125.131 69.3267 125.131 69.64C125.131 70.12 124.951 70.49 124.591 70.75C124.238 71.01 123.761 71.14 123.161 71.14ZM131.003 71.14C130.396 71.14 129.883 71 129.463 70.72C129.05 70.44 128.8 69.9967 128.713 69.39L129.463 69.22C129.516 69.54 129.616 69.7933 129.763 69.98C129.91 70.16 130.09 70.29 130.303 70.37C130.523 70.4433 130.756 70.48 131.003 70.48C131.37 70.48 131.66 70.4067 131.873 70.26C132.086 70.1133 132.193 69.9167 132.193 69.67C132.193 69.4167 132.09 69.24 131.883 69.14C131.683 69.0333 131.406 68.9467 131.053 68.88L130.643 68.81C130.33 68.7567 130.043 68.6733 129.783 68.56C129.523 68.4467 129.316 68.2933 129.163 68.1C129.01 67.9067 128.933 67.6633 128.933 67.37C128.933 66.93 129.103 66.5867 129.443 66.34C129.783 66.0933 130.233 65.97 130.793 65.97C131.346 65.97 131.793 66.0967 132.133 66.35C132.48 66.5967 132.703 66.9467 132.803 67.4L132.063 67.59C132.003 67.2367 131.86 66.99 131.633 66.85C131.406 66.7033 131.126 66.63 130.793 66.63C130.46 66.63 130.196 66.6933 130.003 66.82C129.81 66.94 129.713 67.12 129.713 67.36C129.713 67.5933 129.803 67.7667 129.983 67.88C130.17 67.9867 130.416 68.0667 130.723 68.12L131.133 68.19C131.48 68.25 131.79 68.3333 132.063 68.44C132.343 68.54 132.563 68.6867 132.723 68.88C132.89 69.0733 132.973 69.3267 132.973 69.64C132.973 70.12 132.793 70.49 132.433 70.75C132.08 71.01 131.603 71.14 131.003 71.14ZM134.307 71V64H135.097V66.89H135.237C135.303 66.7433 135.403 66.6067 135.537 66.48C135.677 66.3467 135.853 66.2367 136.067 66.15C136.287 66.0633 136.563 66.02 136.897 66.02C137.263 66.02 137.59 66.1 137.877 66.26C138.17 66.4133 138.403 66.64 138.577 66.94C138.75 67.2333 138.837 67.6 138.837 68.04V71H138.047V68.1C138.047 67.6133 137.923 67.26 137.677 67.04C137.437 66.82 137.11 66.71 136.697 66.71C136.223 66.71 135.837 66.8633 135.537 67.17C135.243 67.4767 135.097 67.9333 135.097 68.54V71H134.307ZM142.699 71.14C142.206 71.14 141.769 71.0367 141.389 70.83C141.016 70.6233 140.723 70.3333 140.509 69.96C140.303 69.58 140.199 69.1333 140.199 68.62V68.49C140.199 67.9833 140.303 67.54 140.509 67.16C140.723 66.78 141.016 66.4867 141.389 66.28C141.769 66.0733 142.206 65.97 142.699 65.97C143.193 65.97 143.626 66.0733 143.999 66.28C144.379 66.4867 144.673 66.78 144.879 67.16C145.093 67.54 145.199 67.9833 145.199 68.49V68.62C145.199 69.1333 145.093 69.58 144.879 69.96C144.673 70.3333 144.379 70.6233 143.999 70.83C143.626 71.0367 143.193 71.14 142.699 71.14ZM142.699 70.43C143.219 70.43 143.633 70.2667 143.939 69.94C144.253 69.6067 144.409 69.16 144.409 68.6V68.51C144.409 67.95 144.253 67.5067 143.939 67.18C143.633 66.8467 143.219 66.68 142.699 66.68C142.186 66.68 141.773 66.8467 141.459 67.18C141.146 67.5067 140.989 67.95 140.989 68.51V68.6C140.989 69.16 141.146 69.6067 141.459 69.94C141.773 70.2667 142.186 70.43 142.699 70.43ZM148.491 71.09C148.138 71.09 147.811 71.0133 147.511 70.86C147.218 70.7067 146.984 70.48 146.811 70.18C146.644 69.8733 146.561 69.5033 146.561 69.07V66.11H147.351V69.01C147.351 69.4967 147.471 69.85 147.711 70.07C147.958 70.29 148.288 70.4 148.701 70.4C149.168 70.4 149.551 70.2467 149.851 69.94C150.151 69.6333 150.301 69.1767 150.301 68.57V66.11H151.091V71H150.321V70.17H150.181C150.074 70.4033 149.891 70.6167 149.631 70.81C149.371 70.9967 148.991 71.09 148.491 71.09ZM152.744 71V64H153.534V71H152.744ZM157.265 71.14C156.845 71.14 156.459 71.04 156.105 70.84C155.752 70.64 155.472 70.35 155.265 69.97C155.059 69.59 154.955 69.14 154.955 68.62V68.49C154.955 67.97 155.059 67.5233 155.265 67.15C155.472 66.77 155.749 66.48 156.095 66.28C156.449 66.0733 156.839 65.97 157.265 65.97C157.605 65.97 157.892 66.0167 158.125 66.11C158.365 66.1967 158.559 66.31 158.705 66.45C158.852 66.5833 158.965 66.7267 159.045 66.88H159.185V64H159.975V71H159.205V70.19H159.065C158.932 70.4367 158.725 70.6567 158.445 70.85C158.165 71.0433 157.772 71.14 157.265 71.14ZM157.475 70.44C157.982 70.44 158.392 70.28 158.705 69.96C159.025 69.6333 159.185 69.18 159.185 68.6V68.51C159.185 67.93 159.025 67.48 158.705 67.16C158.392 66.8333 157.982 66.67 157.475 66.67C156.975 66.67 156.562 66.8333 156.235 67.16C155.915 67.48 155.755 67.93 155.755 68.51V68.6C155.755 69.18 155.915 69.6333 156.235 69.96C156.562 70.28 156.975 70.44 157.475 70.44ZM166.909 71.14C166.402 71.14 166.006 71.0433 165.719 70.85C165.439 70.6567 165.236 70.4367 165.109 70.19H164.969V71H164.199V64H164.989V66.88H165.129C165.209 66.7267 165.322 66.5833 165.469 66.45C165.616 66.31 165.806 66.1967 166.039 66.11C166.279 66.0167 166.569 65.97 166.909 65.97C167.336 65.97 167.722 66.0733 168.069 66.28C168.422 66.48 168.702 66.77 168.909 67.15C169.116 67.5233 169.219 67.97 169.219 68.49V68.62C169.219 69.14 169.112 69.59 168.899 69.97C168.692 70.35 168.412 70.64 168.059 70.84C167.712 71.04 167.329 71.14 166.909 71.14ZM166.699 70.44C167.206 70.44 167.616 70.28 167.929 69.96C168.249 69.6333 168.409 69.18 168.409 68.6V68.51C168.409 67.93 168.249 67.48 167.929 67.16C167.616 66.8333 167.206 66.67 166.699 66.67C166.199 66.67 165.786 66.8333 165.459 67.16C165.139 67.48 164.979 67.93 164.979 68.51V68.6C164.979 69.18 165.139 69.6333 165.459 69.96C165.786 70.28 166.199 70.44 166.699 70.44ZM172.875 71.14C172.381 71.14 171.948 71.0367 171.575 70.83C171.201 70.6167 170.911 70.32 170.705 69.94C170.498 69.56 170.395 69.12 170.395 68.62V68.5C170.395 67.9933 170.498 67.55 170.705 67.17C170.911 66.79 171.198 66.4967 171.565 66.29C171.931 66.0767 172.351 65.97 172.825 65.97C173.285 65.97 173.691 66.07 174.045 66.27C174.398 66.4633 174.675 66.7433 174.875 67.11C175.075 67.4767 175.175 67.9067 175.175 68.4V68.76H171.185C171.205 69.2867 171.375 69.7 171.695 70C172.015 70.2933 172.415 70.44 172.895 70.44C173.315 70.44 173.638 70.3433 173.865 70.15C174.091 69.9567 174.265 69.7267 174.385 69.46L175.065 69.79C174.965 69.9967 174.825 70.2033 174.645 70.41C174.471 70.6167 174.241 70.79 173.955 70.93C173.675 71.07 173.315 71.14 172.875 71.14ZM171.195 68.11H174.375C174.348 67.6567 174.191 67.3033 173.905 67.05C173.625 66.7967 173.265 66.67 172.825 66.67C172.378 66.67 172.011 66.7967 171.725 67.05C171.438 67.3033 171.261 67.6567 171.195 68.11ZM181.831 71.14C181.324 71.14 180.928 71.0433 180.641 70.85C180.361 70.6567 180.158 70.4367 180.031 70.19H179.891V71H179.121V64H179.911V66.88H180.051C180.131 66.7267 180.244 66.5833 180.391 66.45C180.538 66.31 180.728 66.1967 180.961 66.11C181.201 66.0167 181.491 65.97 181.831 65.97C182.258 65.97 182.644 66.0733 182.991 66.28C183.344 66.48 183.624 66.77 183.831 67.15C184.038 67.5233 184.141 67.97 184.141 68.49V68.62C184.141 69.14 184.034 69.59 183.821 69.97C183.614 70.35 183.334 70.64 182.981 70.84C182.634 71.04 182.251 71.14 181.831 71.14ZM181.621 70.44C182.128 70.44 182.538 70.28 182.851 69.96C183.171 69.6333 183.331 69.18 183.331 68.6V68.51C183.331 67.93 183.171 67.48 182.851 67.16C182.538 66.8333 182.128 66.67 181.621 66.67C181.121 66.67 180.708 66.8333 180.381 67.16C180.061 67.48 179.901 67.93 179.901 68.51V68.6C179.901 69.18 180.061 69.6333 180.381 69.96C180.708 70.28 181.121 70.44 181.621 70.44ZM187.057 71.14C186.717 71.14 186.407 71.08 186.127 70.96C185.847 70.84 185.627 70.6667 185.467 70.44C185.307 70.2133 185.227 69.9367 185.227 69.61C185.227 69.2767 185.307 69.0033 185.467 68.79C185.627 68.57 185.847 68.4067 186.127 68.3C186.407 68.1867 186.72 68.13 187.067 68.13H188.717V67.77C188.717 67.4233 188.613 67.15 188.407 66.95C188.207 66.75 187.907 66.65 187.507 66.65C187.113 66.65 186.807 66.7467 186.587 66.94C186.367 67.1267 186.217 67.38 186.137 67.7L185.397 67.46C185.477 67.1867 185.603 66.94 185.777 66.72C185.95 66.4933 186.18 66.3133 186.467 66.18C186.76 66.04 187.11 65.97 187.517 65.97C188.143 65.97 188.63 66.1333 188.977 66.46C189.323 66.78 189.497 67.2333 189.497 67.82V70.03C189.497 70.23 189.59 70.33 189.777 70.33H190.227V71H189.537C189.317 71 189.14 70.94 189.007 70.82C188.873 70.6933 188.807 70.5267 188.807 70.32V70.27H188.687C188.613 70.3967 188.513 70.53 188.387 70.67C188.267 70.8033 188.1 70.9133 187.887 71C187.673 71.0933 187.397 71.14 187.057 71.14ZM187.147 70.46C187.613 70.46 187.99 70.3233 188.277 70.05C188.57 69.77 188.717 69.38 188.717 68.88V68.77H187.097C186.783 68.77 186.523 68.84 186.317 68.98C186.117 69.1133 186.017 69.3167 186.017 69.59C186.017 69.8633 186.12 70.0767 186.327 70.23C186.54 70.3833 186.813 70.46 187.147 70.46ZM193.239 71.14C192.633 71.14 192.119 71 191.699 70.72C191.286 70.44 191.036 69.9967 190.949 69.39L191.699 69.22C191.753 69.54 191.853 69.7933 191.999 69.98C192.146 70.16 192.326 70.29 192.539 70.37C192.759 70.4433 192.993 70.48 193.239 70.48C193.606 70.48 193.896 70.4067 194.109 70.26C194.323 70.1133 194.429 69.9167 194.429 69.67C194.429 69.4167 194.326 69.24 194.119 69.14C193.919 69.0333 193.643 68.9467 193.289 68.88L192.879 68.81C192.566 68.7567 192.279 68.6733 192.019 68.56C191.759 68.4467 191.553 68.2933 191.399 68.1C191.246 67.9067 191.169 67.6633 191.169 67.37C191.169 66.93 191.339 66.5867 191.679 66.34C192.019 66.0933 192.469 65.97 193.029 65.97C193.583 65.97 194.029 66.0967 194.369 66.35C194.716 66.5967 194.939 66.9467 195.039 67.4L194.299 67.59C194.239 67.2367 194.096 66.99 193.869 66.85C193.643 66.7033 193.363 66.63 193.029 66.63C192.696 66.63 192.433 66.6933 192.239 66.82C192.046 66.94 191.949 67.12 191.949 67.36C191.949 67.5933 192.039 67.7667 192.219 67.88C192.406 67.9867 192.653 68.0667 192.959 68.12L193.369 68.19C193.716 68.25 194.026 68.3333 194.299 68.44C194.579 68.54 194.799 68.6867 194.959 68.88C195.126 69.0733 195.209 69.3267 195.209 69.64C195.209 70.12 195.029 70.49 194.669 70.75C194.316 71.01 193.839 71.14 193.239 71.14ZM198.783 71.14C198.29 71.14 197.856 71.0367 197.483 70.83C197.11 70.6167 196.82 70.32 196.613 69.94C196.406 69.56 196.303 69.12 196.303 68.62V68.5C196.303 67.9933 196.406 67.55 196.613 67.17C196.82 66.79 197.106 66.4967 197.473 66.29C197.84 66.0767 198.26 65.97 198.733 65.97C199.193 65.97 199.6 66.07 199.953 66.27C200.306 66.4633 200.583 66.7433 200.783 67.11C200.983 67.4767 201.083 67.9067 201.083 68.4V68.76H197.093C197.113 69.2867 197.283 69.7 197.603 70C197.923 70.2933 198.323 70.44 198.803 70.44C199.223 70.44 199.546 70.3433 199.773 70.15C200 69.9567 200.173 69.7267 200.293 69.46L200.973 69.79C200.873 69.9967 200.733 70.2033 200.553 70.41C200.38 70.6167 200.15 70.79 199.863 70.93C199.583 71.07 199.223 71.14 198.783 71.14ZM197.103 68.11H200.283C200.256 67.6567 200.1 67.3033 199.813 67.05C199.533 66.7967 199.173 66.67 198.733 66.67C198.286 66.67 197.92 66.7967 197.633 67.05C197.346 67.3033 197.17 67.6567 197.103 68.11ZM204.531 71.14C204.111 71.14 203.724 71.04 203.371 70.84C203.018 70.64 202.738 70.35 202.531 69.97C202.324 69.59 202.221 69.14 202.221 68.62V68.49C202.221 67.97 202.324 67.5233 202.531 67.15C202.738 66.77 203.014 66.48 203.361 66.28C203.714 66.0733 204.104 65.97 204.531 65.97C204.871 65.97 205.158 66.0167 205.391 66.11C205.631 66.1967 205.824 66.31 205.971 66.45C206.118 66.5833 206.231 66.7267 206.311 66.88H206.451V64H207.241V71H206.471V70.19H206.331C206.198 70.4367 205.991 70.6567 205.711 70.85C205.431 71.0433 205.038 71.14 204.531 71.14ZM204.741 70.44C205.248 70.44 205.658 70.28 205.971 69.96C206.291 69.6333 206.451 69.18 206.451 68.6V68.51C206.451 67.93 206.291 67.48 205.971 67.16C205.658 66.8333 205.248 66.67 204.741 66.67C204.241 66.67 203.828 66.8333 203.501 67.16C203.181 67.48 203.021 67.93 203.021 68.51V68.6C203.021 69.18 203.181 69.6333 203.501 69.96C203.828 70.28 204.241 70.44 204.741 70.44ZM211.465 71V66.11H212.255V71H211.465ZM211.865 65.35C211.691 65.35 211.545 65.2933 211.425 65.18C211.311 65.0667 211.255 64.9233 211.255 64.75C211.255 64.57 211.311 64.4233 211.425 64.31C211.545 64.1967 211.691 64.14 211.865 64.14C212.038 64.14 212.181 64.1967 212.295 64.31C212.408 64.4233 212.465 64.57 212.465 64.75C212.465 64.9233 212.408 65.0667 212.295 65.18C212.181 65.2933 212.038 65.35 211.865 65.35ZM213.916 71V66.11H214.686V66.94H214.826C214.933 66.7067 215.113 66.4967 215.366 66.31C215.626 66.1167 216.006 66.02 216.506 66.02C216.873 66.02 217.199 66.0967 217.486 66.25C217.779 66.4033 218.013 66.63 218.186 66.93C218.359 67.23 218.446 67.6 218.446 68.04V71H217.656V68.1C217.656 67.6133 217.533 67.26 217.286 67.04C217.046 66.82 216.719 66.71 216.306 66.71C215.833 66.71 215.446 66.8633 215.146 67.17C214.853 67.4767 214.706 67.9333 214.706 68.54V71H213.916ZM224.417 71C224.137 71 223.92 70.9233 223.767 70.77C223.62 70.6167 223.547 70.4067 223.547 70.14V66.8H222.077V66.11H223.547V64.37H224.337V66.11H225.937V66.8H224.337V70.02C224.337 70.22 224.434 70.32 224.627 70.32H225.717V71H224.417ZM227.217 71V64H228.007V66.89H228.147C228.213 66.7433 228.313 66.6067 228.447 66.48C228.587 66.3467 228.763 66.2367 228.977 66.15C229.197 66.0633 229.473 66.02 229.807 66.02C230.173 66.02 230.5 66.1 230.787 66.26C231.08 66.4133 231.313 66.64 231.487 66.94C231.66 67.2333 231.747 67.6 231.747 68.04V71H230.957V68.1C230.957 67.6133 230.833 67.26 230.587 67.04C230.347 66.82 230.02 66.71 229.607 66.71C229.133 66.71 228.747 66.8633 228.447 67.17C228.153 67.4767 228.007 67.9333 228.007 68.54V71H227.217ZM235.59 71.14C235.096 71.14 234.663 71.0367 234.29 70.83C233.916 70.6167 233.626 70.32 233.42 69.94C233.213 69.56 233.11 69.12 233.11 68.62V68.5C233.11 67.9933 233.213 67.55 233.42 67.17C233.626 66.79 233.913 66.4967 234.28 66.29C234.646 66.0767 235.066 65.97 235.54 65.97C236 65.97 236.406 66.07 236.76 66.27C237.113 66.4633 237.39 66.7433 237.59 67.11C237.79 67.4767 237.89 67.9067 237.89 68.4V68.76H233.9C233.92 69.2867 234.09 69.7 234.41 70C234.73 70.2933 235.13 70.44 235.61 70.44C236.03 70.44 236.353 70.3433 236.58 70.15C236.806 69.9567 236.98 69.7267 237.1 69.46L237.78 69.79C237.68 69.9967 237.54 70.2033 237.36 70.41C237.186 70.6167 236.956 70.79 236.67 70.93C236.39 71.07 236.03 71.14 235.59 71.14ZM233.91 68.11H237.09C237.063 67.6567 236.906 67.3033 236.62 67.05C236.34 66.7967 235.98 66.67 235.54 66.67C235.093 66.67 234.726 66.7967 234.44 67.05C234.153 67.3033 233.976 67.6567 233.91 68.11ZM244.336 71.14C243.816 71.14 243.363 71.0467 242.976 70.86C242.589 70.6733 242.289 70.3967 242.076 70.03C241.863 69.6567 241.756 69.2 241.756 68.66V64H242.586V68.67C242.586 69.2433 242.739 69.6733 243.046 69.96C243.353 70.2467 243.783 70.39 244.336 70.39C244.889 70.39 245.319 70.2467 245.626 69.96C245.933 69.6733 246.086 69.2433 246.086 68.67V64H246.926V68.66C246.926 69.2 246.819 69.6567 246.606 70.03C246.393 70.3967 246.089 70.6733 245.696 70.86C245.309 71.0467 244.856 71.14 244.336 71.14ZM248.466 71V64H249.306V67.05H249.446L252.406 64H253.526L250.116 67.46L253.646 71H252.496L249.446 67.89H249.306V71H248.466ZM256.14 69.13V68.52C256.14 68.2133 256.196 67.9733 256.31 67.8C256.423 67.62 256.623 67.4667 256.91 67.34L257.19 67.22C257.536 67.0733 257.806 66.9 258 66.7C258.193 66.4933 258.29 66.2067 258.29 65.84C258.29 65.5667 258.22 65.3367 258.08 65.15C257.94 64.9633 257.75 64.82 257.51 64.72C257.27 64.62 257 64.57 256.7 64.57C256.4 64.57 256.12 64.6233 255.86 64.73C255.606 64.83 255.4 64.9867 255.24 65.2C255.086 65.4067 255.01 65.67 255.01 65.99V66.34H254.2V65.99C254.2 65.53 254.306 65.1433 254.52 64.83C254.74 64.51 255.036 64.27 255.41 64.11C255.79 63.9433 256.22 63.86 256.7 63.86C257.173 63.86 257.59 63.9467 257.95 64.12C258.316 64.2867 258.6 64.52 258.8 64.82C259.006 65.1133 259.11 65.4533 259.11 65.84C259.11 66.22 259.036 66.5367 258.89 66.79C258.75 67.0367 258.566 67.2433 258.34 67.41C258.113 67.57 257.863 67.71 257.59 67.83L257.32 67.95C257.193 68.0033 257.103 68.0733 257.05 68.16C256.996 68.2467 256.97 68.37 256.97 68.53V69.13H256.14ZM256.57 71.14C256.37 71.14 256.206 71.0767 256.08 70.95C255.953 70.8233 255.89 70.66 255.89 70.46C255.89 70.26 255.953 70.0967 256.08 69.97C256.206 69.8433 256.37 69.78 256.57 69.78C256.763 69.78 256.923 69.8433 257.05 69.97C257.183 70.0967 257.25 70.26 257.25 70.46C257.25 70.66 257.183 70.8233 257.05 70.95C256.923 71.0767 256.763 71.14 256.57 71.14Z" fill="#808389"/>
<defs>
<filter id="filter0_d_860_7759" x="0" y="0" width="316" height="111" filterUnits="userSpaceOnUse" color-interpolation-filters="sRGB">
<feFlood flood-opacity="0" result="BackgroundImageFix"/>
<feColorMatrix in="SourceAlpha" type="matrix" values="0 0 0 0 0 0 0 0 0 0 0 0 0 0 0 0 0 0 127 0" result="hardAlpha"/>
<feOffset dy="2"/>
<feGaussianBlur stdDeviation="10"/>
<feComposite in2="hardAlpha" operator="out"/>
<feColorMatrix type="matrix" values="0 0 0 0 0.172549 0 0 0 0 0.188235 0 0 0 0 0.231373 0 0 0 0.1 0"/>
<feBlend mode="normal" in2="BackgroundImageFix" result="effect1_dropShadow_860_7759"/>
<feBlend mode="normal" in="SourceGraphic" in2="effect1_dropShadow_860_7759" result="shape"/>
</filter>
</defs>
</svg>
