<svg xmlns="http://www.w3.org/2000/svg" fill="none" viewBox="60 59 1280 506">
<g filter="url(#filter0_d_860_7549)">
<rect width="1280" height="506" transform="matrix(1 0 0 -1 60 565)" fill="white"/>
</g>
<path d="M109.14 402.852C109.14 403.685 108.9 404.348 108.42 404.842C107.933 405.335 107.227 405.582 106.3 405.582L104.7 405.582C103.773 405.582 103.07 405.335 102.59 404.842C102.103 404.348 101.86 403.685 101.86 402.852C101.86 402.025 102.09 401.392 102.55 400.952C103.01 400.505 103.64 400.282 104.44 400.282L104.49 400.282L104.49 401.112L104.41 401.112C103.883 401.112 103.453 401.255 103.12 401.542C102.78 401.822 102.61 402.258 102.61 402.852C102.61 403.445 102.793 403.908 103.16 404.242C103.52 404.575 104.027 404.742 104.68 404.742L106.32 404.742C106.973 404.742 107.483 404.575 107.85 404.242C108.21 403.908 108.39 403.445 108.39 402.852C108.39 402.258 108.223 401.822 107.89 401.542C107.55 401.255 107.117 401.112 106.59 401.112L106.43 401.112L106.43 400.282L106.56 400.282C107.36 400.282 107.99 400.505 108.45 400.952C108.91 401.392 109.14 402.025 109.14 402.852ZM109.14 397.436C109.14 397.776 109.08 398.086 108.96 398.366C108.84 398.646 108.667 398.866 108.44 399.026C108.213 399.186 107.937 399.266 107.61 399.266C107.277 399.266 107.003 399.186 106.79 399.026C106.57 398.866 106.407 398.646 106.3 398.366C106.187 398.086 106.13 397.772 106.13 397.426L106.13 395.776L105.77 395.776C105.423 395.776 105.15 395.879 104.95 396.086C104.75 396.286 104.65 396.586 104.65 396.986C104.65 397.379 104.747 397.686 104.94 397.906C105.127 398.126 105.38 398.276 105.7 398.356L105.46 399.096C105.187 399.016 104.94 398.889 104.72 398.716C104.493 398.542 104.313 398.312 104.18 398.026C104.04 397.732 103.97 397.382 103.97 396.976C103.97 396.349 104.133 395.862 104.46 395.516C104.78 395.169 105.233 394.996 105.82 394.996L108.03 394.996C108.23 394.996 108.33 394.902 108.33 394.716L108.33 394.266L109 394.266L109 394.956C109 395.176 108.94 395.352 108.82 395.486C108.693 395.619 108.527 395.686 108.32 395.686L108.27 395.686L108.27 395.806C108.397 395.879 108.53 395.979 108.67 396.106C108.803 396.226 108.913 396.392 109 396.606C109.093 396.819 109.14 397.096 109.14 397.436ZM108.46 397.346C108.46 396.879 108.323 396.502 108.05 396.216C107.77 395.922 107.38 395.776 106.88 395.776L106.77 395.776L106.77 397.396C106.77 397.709 106.84 397.969 106.98 398.176C107.113 398.376 107.317 398.476 107.59 398.476C107.863 398.476 108.077 398.372 108.23 398.166C108.383 397.952 108.46 397.679 108.46 397.346ZM109 393.184L104.11 393.184L104.11 392.414L104.71 392.414L104.71 392.274C104.497 392.187 104.34 392.054 104.24 391.874C104.14 391.694 104.09 391.457 104.09 391.164L104.09 390.584L104.81 390.584L104.81 391.214C104.81 391.567 104.91 391.854 105.11 392.074C105.303 392.287 105.607 392.394 106.02 392.394L109 392.394L109 393.184ZM109.14 386.704C109.14 387.211 109.043 387.607 108.85 387.894C108.657 388.174 108.437 388.377 108.19 388.504L108.19 388.644L109 388.644L109 389.414L102 389.414L102 388.624L104.88 388.624L104.88 388.484C104.727 388.404 104.583 388.291 104.45 388.144C104.31 387.997 104.197 387.807 104.11 387.574C104.017 387.334 103.97 387.044 103.97 386.704C103.97 386.277 104.073 385.891 104.28 385.544C104.48 385.191 104.77 384.911 105.15 384.704C105.523 384.497 105.97 384.394 106.49 384.394L106.62 384.394C107.14 384.394 107.59 384.501 107.97 384.714C108.35 384.921 108.64 385.201 108.84 385.554C109.04 385.901 109.14 386.284 109.14 386.704ZM108.44 386.914C108.44 386.407 108.28 385.997 107.96 385.684C107.633 385.364 107.18 385.204 106.6 385.204L106.51 385.204C105.93 385.204 105.48 385.364 105.16 385.684C104.833 385.997 104.67 386.407 104.67 386.914C104.67 387.414 104.833 387.827 105.16 388.154C105.48 388.474 105.93 388.634 106.51 388.634L106.6 388.634C107.18 388.634 107.633 388.474 107.96 388.154C108.28 387.827 108.44 387.414 108.44 386.914ZM109.14 380.719C109.14 381.212 109.037 381.649 108.83 382.029C108.623 382.402 108.333 382.695 107.96 382.909C107.58 383.115 107.133 383.219 106.62 383.219L106.49 383.219C105.983 383.219 105.54 383.115 105.16 382.909C104.78 382.695 104.487 382.402 104.28 382.029C104.073 381.649 103.97 381.212 103.97 380.719C103.97 380.225 104.073 379.792 104.28 379.419C104.487 379.039 104.78 378.745 105.16 378.539C105.54 378.325 105.983 378.219 106.49 378.219L106.62 378.219C107.133 378.219 107.58 378.325 107.96 378.539C108.333 378.745 108.623 379.039 108.83 379.419C109.037 379.792 109.14 380.225 109.14 380.719ZM108.43 380.719C108.43 380.199 108.267 379.785 107.94 379.479C107.607 379.165 107.16 379.009 106.6 379.009L106.51 379.009C105.95 379.009 105.507 379.165 105.18 379.479C104.847 379.785 104.68 380.199 104.68 380.719C104.68 381.232 104.847 381.645 105.18 381.959C105.507 382.272 105.95 382.429 106.51 382.429L106.6 382.429C107.16 382.429 107.607 382.272 107.94 381.959C108.267 381.645 108.43 381.232 108.43 380.719ZM109 376.797L104.11 376.797L104.11 376.027L104.94 376.027L104.94 375.887C104.707 375.78 104.497 375.6 104.31 375.347C104.117 375.087 104.02 374.707 104.02 374.207C104.02 373.84 104.097 373.514 104.25 373.227C104.403 372.934 104.63 372.7 104.93 372.527C105.23 372.354 105.6 372.267 106.04 372.267L109 372.267L109 373.057L106.1 373.057C105.613 373.057 105.26 373.18 105.04 373.427C104.82 373.667 104.71 373.994 104.71 374.407C104.71 374.88 104.863 375.267 105.17 375.567C105.477 375.86 105.933 376.007 106.54 376.007L109 376.007L109 376.797ZM109.09 366.226C109.09 366.579 109.013 366.906 108.86 367.206C108.707 367.499 108.48 367.732 108.18 367.906C107.873 368.072 107.503 368.156 107.07 368.156L104.11 368.156L104.11 367.366L107.01 367.366C107.497 367.366 107.85 367.246 108.07 367.006C108.29 366.759 108.4 366.429 108.4 366.016C108.4 365.549 108.247 365.166 107.94 364.866C107.633 364.566 107.177 364.416 106.57 364.416L104.11 364.416L104.11 363.626L109 363.626L109 364.396L108.17 364.396L108.17 364.536C108.403 364.642 108.617 364.826 108.81 365.086C108.997 365.346 109.09 365.726 109.09 366.226ZM109 361.973L104.11 361.973L104.11 361.203L104.94 361.203L104.94 361.063C104.707 360.956 104.497 360.776 104.31 360.523C104.117 360.263 104.02 359.883 104.02 359.383C104.02 359.016 104.097 358.689 104.25 358.403C104.403 358.109 104.63 357.876 104.93 357.703C105.23 357.529 105.6 357.443 106.04 357.443L109 357.443L109 358.233L106.1 358.233C105.613 358.233 105.26 358.356 105.04 358.603C104.82 358.843 104.71 359.169 104.71 359.583C104.71 360.056 104.863 360.443 105.17 360.743C105.477 361.036 105.933 361.183 106.54 361.183L109 361.183L109 361.973ZM109 355.84L104.11 355.84L104.11 355.05L109 355.05L109 355.84ZM103.35 355.44C103.35 355.613 103.293 355.76 103.18 355.88C103.067 355.993 102.923 356.05 102.75 356.05C102.57 356.05 102.423 355.993 102.31 355.88C102.197 355.76 102.14 355.613 102.14 355.44C102.14 355.267 102.197 355.123 102.31 355.01C102.423 354.897 102.57 354.84 102.75 354.84C102.923 354.84 103.067 354.897 103.18 355.01C103.293 355.123 103.35 355.267 103.35 355.44ZM109 351.589C109 351.869 108.923 352.085 108.77 352.239C108.617 352.385 108.407 352.459 108.14 352.459L104.8 352.459L104.8 353.929L104.11 353.929L104.11 352.459L102.37 352.459L102.37 351.669L104.11 351.669L104.11 350.069L104.8 350.069L104.8 351.669L108.02 351.669C108.22 351.669 108.32 351.572 108.32 351.379L108.32 350.289L109 350.289L109 351.589ZM109.14 346.819C109.14 347.426 109 347.939 108.72 348.359C108.44 348.772 107.997 349.022 107.39 349.109L107.22 348.359C107.54 348.306 107.793 348.206 107.98 348.059C108.16 347.912 108.29 347.732 108.37 347.519C108.443 347.299 108.48 347.066 108.48 346.819C108.48 346.452 108.407 346.162 108.26 345.949C108.113 345.736 107.917 345.629 107.67 345.629C107.417 345.629 107.24 345.732 107.14 345.939C107.033 346.139 106.947 346.416 106.88 346.769L106.81 347.179C106.757 347.492 106.673 347.779 106.56 348.039C106.447 348.299 106.293 348.506 106.1 348.659C105.907 348.812 105.663 348.889 105.37 348.889C104.93 348.889 104.587 348.719 104.34 348.379C104.093 348.039 103.97 347.589 103.97 347.029C103.97 346.476 104.097 346.029 104.35 345.689C104.597 345.342 104.947 345.119 105.4 345.019L105.59 345.759C105.237 345.819 104.99 345.962 104.85 346.189C104.703 346.416 104.63 346.696 104.63 347.029C104.63 347.362 104.693 347.626 104.82 347.819C104.94 348.012 105.12 348.109 105.36 348.109C105.593 348.109 105.767 348.019 105.88 347.839C105.987 347.652 106.067 347.406 106.12 347.099L106.19 346.689C106.25 346.342 106.333 346.032 106.44 345.759C106.54 345.479 106.687 345.259 106.88 345.099C107.073 344.932 107.327 344.849 107.64 344.849C108.12 344.849 108.49 345.029 108.75 345.389C109.01 345.742 109.14 346.219 109.14 346.819ZM109.14 339.447C109.14 339.787 109.08 340.097 108.96 340.377C108.84 340.657 108.667 340.877 108.44 341.037C108.213 341.197 107.937 341.277 107.61 341.277C107.277 341.277 107.003 341.197 106.79 341.037C106.57 340.877 106.407 340.657 106.3 340.377C106.187 340.097 106.13 339.784 106.13 339.437L106.13 337.787L105.77 337.787C105.423 337.787 105.15 337.891 104.95 338.097C104.75 338.297 104.65 338.597 104.65 338.997C104.65 339.391 104.747 339.697 104.94 339.917C105.127 340.137 105.38 340.287 105.7 340.367L105.46 341.107C105.187 341.027 104.94 340.901 104.72 340.727C104.493 340.554 104.313 340.324 104.18 340.037C104.04 339.744 103.97 339.394 103.97 338.987C103.97 338.361 104.133 337.874 104.46 337.527C104.78 337.181 105.233 337.007 105.82 337.007L108.03 337.007C108.23 337.007 108.33 336.914 108.33 336.727L108.33 336.277L109 336.277L109 336.967C109 337.187 108.94 337.364 108.82 337.497C108.693 337.631 108.527 337.697 108.32 337.697L108.27 337.697L108.27 337.817C108.397 337.891 108.53 337.991 108.67 338.117C108.803 338.237 108.913 338.404 109 338.617C109.093 338.831 109.14 339.107 109.14 339.447ZM108.46 339.357C108.46 338.891 108.323 338.514 108.05 338.227C107.77 337.934 107.38 337.787 106.88 337.787L106.77 337.787L106.77 339.407C106.77 339.721 106.84 339.981 106.98 340.187C107.113 340.387 107.317 340.487 107.59 340.487C107.863 340.487 108.077 340.384 108.23 340.177C108.383 339.964 108.46 339.691 108.46 339.357ZM109 334.229L104.11 335.979L104.11 335.139L108.41 333.669L108.41 333.529L104.11 332.059L104.11 331.219L109 332.969L109 334.229ZM109.14 328.734C109.14 329.074 109.08 329.384 108.96 329.664C108.84 329.944 108.667 330.164 108.44 330.324C108.213 330.484 107.937 330.564 107.61 330.564C107.277 330.564 107.003 330.484 106.79 330.324C106.57 330.164 106.407 329.944 106.3 329.664C106.187 329.384 106.13 329.071 106.13 328.724L106.13 327.074L105.77 327.074C105.423 327.074 105.15 327.178 104.95 327.384C104.75 327.584 104.65 327.884 104.65 328.284C104.65 328.678 104.747 328.984 104.94 329.204C105.127 329.424 105.38 329.574 105.7 329.654L105.46 330.394C105.187 330.314 104.94 330.188 104.72 330.014C104.493 329.841 104.313 329.611 104.18 329.324C104.04 329.031 103.97 328.681 103.97 328.274C103.97 327.648 104.133 327.161 104.46 326.814C104.78 326.468 105.233 326.294 105.82 326.294L108.03 326.294C108.23 326.294 108.33 326.201 108.33 326.014L108.33 325.564L109 325.564L109 326.254C109 326.474 108.94 326.651 108.82 326.784C108.693 326.918 108.527 326.984 108.32 326.984L108.27 326.984L108.27 327.104C108.397 327.178 108.53 327.278 108.67 327.404C108.803 327.524 108.913 327.691 109 327.904C109.093 328.118 109.14 328.394 109.14 328.734ZM108.46 328.644C108.46 328.178 108.323 327.801 108.05 327.514C107.77 327.221 107.38 327.074 106.88 327.074L106.77 327.074L106.77 328.694C106.77 329.008 106.84 329.268 106.98 329.474C107.113 329.674 107.317 329.774 107.59 329.774C107.863 329.774 108.077 329.671 108.23 329.464C108.383 329.251 108.46 328.978 108.46 328.644ZM109 324.482L104.11 324.482L104.11 323.692L109 323.692L109 324.482ZM103.35 324.082C103.35 324.256 103.293 324.402 103.18 324.522C103.067 324.636 102.923 324.692 102.75 324.692C102.57 324.692 102.423 324.636 102.31 324.522C102.197 324.402 102.14 324.256 102.14 324.082C102.14 323.909 102.197 323.766 102.31 323.652C102.423 323.539 102.57 323.482 102.75 323.482C102.923 323.482 103.067 323.539 103.18 323.652C103.293 323.766 103.35 323.909 103.35 324.082ZM109 322.031L102 322.031L102 321.241L109 321.241L109 322.031ZM109.14 318.08C109.14 318.42 109.08 318.73 108.96 319.01C108.84 319.29 108.667 319.51 108.44 319.67C108.213 319.83 107.937 319.91 107.61 319.91C107.277 319.91 107.003 319.83 106.79 319.67C106.57 319.51 106.407 319.29 106.3 319.01C106.187 318.73 106.13 318.417 106.13 318.07L106.13 316.42L105.77 316.42C105.423 316.42 105.15 316.523 104.95 316.73C104.75 316.93 104.65 317.23 104.65 317.63C104.65 318.023 104.747 318.33 104.94 318.55C105.127 318.77 105.38 318.92 105.7 319L105.46 319.74C105.187 319.66 104.94 319.533 104.72 319.36C104.493 319.187 104.313 318.957 104.18 318.67C104.04 318.377 103.97 318.027 103.97 317.62C103.97 316.993 104.133 316.507 104.46 316.16C104.78 315.813 105.233 315.64 105.82 315.64L108.03 315.64C108.23 315.64 108.33 315.547 108.33 315.36L108.33 314.91L109 314.91L109 315.6C109 315.82 108.94 315.997 108.82 316.13C108.693 316.263 108.527 316.33 108.32 316.33L108.27 316.33L108.27 316.45C108.397 316.523 108.53 316.623 108.67 316.75C108.803 316.87 108.913 317.037 109 317.25C109.093 317.463 109.14 317.74 109.14 318.08ZM108.46 317.99C108.46 317.523 108.323 317.147 108.05 316.86C107.77 316.567 107.38 316.42 106.88 316.42L106.77 316.42L106.77 318.04C106.77 318.353 106.84 318.613 106.98 318.82C107.113 319.02 107.317 319.12 107.59 319.12C107.863 319.12 108.077 319.017 108.23 318.81C108.383 318.597 108.46 318.323 108.46 317.99ZM109.14 311.118C109.14 311.625 109.043 312.022 108.85 312.308C108.657 312.588 108.437 312.792 108.19 312.918L108.19 313.058L109 313.058L109 313.828L102 313.828L102 313.038L104.88 313.038L104.88 312.898C104.727 312.818 104.583 312.705 104.45 312.558C104.31 312.412 104.197 312.222 104.11 311.988C104.017 311.748 103.97 311.458 103.97 311.118C103.97 310.692 104.073 310.305 104.28 309.958C104.48 309.605 104.77 309.325 105.15 309.118C105.523 308.912 105.97 308.808 106.49 308.808L106.62 308.808C107.14 308.808 107.59 308.915 107.97 309.128C108.35 309.335 108.64 309.615 108.84 309.968C109.04 310.315 109.14 310.698 109.14 311.118ZM108.44 311.328C108.44 310.822 108.28 310.412 107.96 310.098C107.633 309.778 107.18 309.618 106.6 309.618L106.51 309.618C105.93 309.618 105.48 309.778 105.16 310.098C104.833 310.412 104.67 310.822 104.67 311.328C104.67 311.828 104.833 312.242 105.16 312.568C105.48 312.888 105.93 313.048 106.51 313.048L106.6 313.048C107.18 313.048 107.633 312.888 107.96 312.568C108.28 312.242 108.44 311.828 108.44 311.328ZM109 307.393L102 307.393L102 306.603L109 306.603L109 307.393ZM109.14 302.701C109.14 303.195 109.037 303.628 108.83 304.001C108.617 304.375 108.32 304.665 107.94 304.871C107.56 305.078 107.12 305.181 106.62 305.181L106.5 305.181C105.993 305.181 105.55 305.078 105.17 304.871C104.79 304.665 104.497 304.378 104.29 304.011C104.077 303.645 103.97 303.225 103.97 302.751C103.97 302.291 104.07 301.885 104.27 301.531C104.463 301.178 104.743 300.901 105.11 300.701C105.477 300.501 105.907 300.401 106.4 300.401L106.76 300.401L106.76 304.391C107.287 304.371 107.7 304.201 108 303.881C108.293 303.561 108.44 303.161 108.44 302.681C108.44 302.261 108.343 301.938 108.15 301.711C107.957 301.485 107.727 301.311 107.46 301.191L107.79 300.511C107.997 300.611 108.203 300.751 108.41 300.931C108.617 301.105 108.79 301.335 108.93 301.621C109.07 301.901 109.14 302.261 109.14 302.701ZM106.11 304.381L106.11 301.201C105.657 301.228 105.303 301.385 105.05 301.671C104.797 301.951 104.67 302.311 104.67 302.751C104.67 303.198 104.797 303.565 105.05 303.851C105.303 304.138 105.657 304.315 106.11 304.381ZM111.35 291.027C111.35 291.667 111.237 292.22 111.01 292.687C110.783 293.147 110.427 293.5 109.94 293.747C109.46 293.993 108.837 294.117 108.07 294.117L104.83 294.117C104.057 294.117 103.43 293.993 102.95 293.747C102.47 293.5 102.117 293.147 101.89 292.687C101.663 292.22 101.55 291.667 101.55 291.027L102.24 291.027C102.247 291.82 102.467 292.407 102.9 292.787C103.327 293.167 103.987 293.357 104.88 293.357L108.02 293.357C108.907 293.357 109.567 293.167 110 292.787C110.433 292.407 110.653 291.82 110.66 291.027L111.35 291.027ZM109.14 287.795C109.14 288.315 109.033 288.775 108.82 289.175C108.6 289.568 108.28 289.878 107.86 290.105C107.44 290.325 106.92 290.435 106.3 290.435L104.7 290.435C103.773 290.435 103.07 290.188 102.59 289.695C102.103 289.202 101.86 288.538 101.86 287.705C101.86 286.878 102.087 286.248 102.54 285.815C102.993 285.382 103.6 285.165 104.36 285.165L104.41 285.165L104.41 285.995L104.34 285.995C104.007 285.995 103.71 286.055 103.45 286.175C103.19 286.295 102.987 286.482 102.84 286.735C102.687 286.988 102.61 287.312 102.61 287.705C102.61 288.298 102.793 288.762 103.16 289.095C103.52 289.428 104.027 289.595 104.68 289.595L106.32 289.595C106.973 289.595 107.483 289.428 107.85 289.095C108.21 288.762 108.39 288.295 108.39 287.695C108.39 287.108 108.223 286.678 107.89 286.405C107.557 286.125 107.113 285.985 106.56 285.985L106.39 285.985L106.39 288.105L105.67 288.105L105.67 285.165L109 285.165L109 285.925L108.24 285.925L108.24 286.065C108.387 286.138 108.53 286.242 108.67 286.375C108.81 286.508 108.923 286.688 109.01 286.915C109.097 287.142 109.14 287.435 109.14 287.795ZM109 282.177L102.76 282.177L102.76 284.427L102 284.427L102 279.087L102.76 279.087L102.76 281.337L109 281.337L109 282.177ZM109.14 275.801C109.14 276.634 108.9 277.298 108.42 277.791C107.933 278.284 107.227 278.531 106.3 278.531L104.7 278.531C103.773 278.531 103.07 278.284 102.59 277.791C102.103 277.298 101.86 276.634 101.86 275.801C101.86 274.974 102.09 274.341 102.55 273.901C103.01 273.454 103.64 273.231 104.44 273.231L104.49 273.231L104.49 274.061L104.41 274.061C103.883 274.061 103.453 274.204 103.12 274.491C102.78 274.771 102.61 275.208 102.61 275.801C102.61 276.394 102.793 276.858 103.16 277.191C103.52 277.524 104.027 277.691 104.68 277.691L106.32 277.691C106.973 277.691 107.483 277.524 107.85 277.191C108.21 276.858 108.39 276.394 108.39 275.801C108.39 275.208 108.223 274.771 107.89 274.491C107.55 274.204 107.117 274.061 106.59 274.061L106.43 274.061L106.43 273.231L106.56 273.231C107.36 273.231 107.99 273.454 108.45 273.901C108.91 274.341 109.14 274.974 109.14 275.801ZM109.14 269.375C109.14 270.208 108.9 270.875 108.42 271.375C107.933 271.868 107.227 272.115 106.3 272.115L104.7 272.115C103.773 272.115 103.07 271.868 102.59 271.375C102.103 270.875 101.86 270.208 101.86 269.375C101.86 268.535 102.103 267.868 102.59 267.375C103.07 266.875 103.773 266.625 104.7 266.625L106.3 266.625C107.227 266.625 107.933 266.875 108.42 267.375C108.9 267.868 109.14 268.535 109.14 269.375ZM108.39 269.375C108.39 268.768 108.21 268.298 107.85 267.965C107.483 267.632 106.977 267.465 106.33 267.465L104.67 267.465C104.023 267.465 103.52 267.632 103.16 267.965C102.793 268.298 102.61 268.768 102.61 269.375C102.61 269.975 102.793 270.442 103.16 270.775C103.52 271.108 104.023 271.275 104.67 271.275L106.33 271.275C106.977 271.275 107.483 271.108 107.85 270.775C108.21 270.442 108.39 269.975 108.39 269.375ZM111 265.755L110.69 265.755C110.33 265.755 110.037 265.642 109.81 265.415C109.583 265.182 109.417 264.832 109.31 264.365C109.23 264.005 109.13 263.739 109.01 263.565C108.897 263.385 108.74 263.295 108.54 263.295C108.347 263.295 108.193 263.375 108.08 263.535C107.96 263.689 107.9 263.895 107.9 264.155C107.9 264.415 107.963 264.632 108.09 264.805C108.217 264.979 108.417 265.075 108.69 265.095L108.65 265.725C108.223 265.685 107.903 265.522 107.69 265.235C107.477 264.949 107.37 264.589 107.37 264.155C107.37 263.715 107.477 263.359 107.69 263.085C107.897 262.812 108.18 262.675 108.54 262.675C108.907 262.675 109.18 262.792 109.36 263.025C109.54 263.259 109.677 263.585 109.77 264.005C109.85 264.365 109.94 264.629 110.04 264.795C110.14 264.962 110.283 265.059 110.47 265.085L110.47 262.695L111 262.695L111 265.755ZM111 262.363L102 259.423L102 258.633L111 261.573L111 262.363ZM111 257.242L110.3 257.242L110.3 254.442C110.3 254.249 110.2 254.152 110 254.152L108.22 254.152L108.22 254.292C108.36 254.359 108.5 254.462 108.64 254.602C108.773 254.735 108.883 254.912 108.97 255.132C109.05 255.352 109.09 255.629 109.09 255.962C109.09 256.315 109.013 256.642 108.86 256.942C108.707 257.235 108.48 257.469 108.18 257.642C107.88 257.809 107.513 257.892 107.08 257.892L104.11 257.892L104.11 257.102L107.02 257.102C107.5 257.102 107.85 256.982 108.07 256.742C108.29 256.495 108.4 256.165 108.4 255.752C108.4 255.285 108.247 254.902 107.94 254.602C107.633 254.302 107.177 254.152 106.57 254.152L104.11 254.152L104.11 253.362L110.14 253.362C110.407 253.362 110.617 253.439 110.77 253.592C110.923 253.739 111 253.955 111 254.242L111 257.242ZM109 251.709L104.11 251.709L104.11 250.939L104.71 250.939L104.71 250.799C104.497 250.712 104.34 250.579 104.24 250.399C104.14 250.219 104.09 249.982 104.09 249.689L104.09 249.109L104.81 249.109L104.81 249.739C104.81 250.092 104.91 250.379 105.11 250.599C105.303 250.812 105.607 250.919 106.02 250.919L109 250.919L109 251.709ZM111.35 248.7L110.66 248.7C110.653 247.893 110.433 247.303 110 246.93C109.567 246.556 108.907 246.37 108.02 246.37L104.88 246.37C103.987 246.37 103.327 246.556 102.9 246.93C102.467 247.303 102.247 247.893 102.24 248.7L101.55 248.7C101.55 248.053 101.663 247.5 101.89 247.04C102.117 246.58 102.47 246.226 102.95 245.98C103.43 245.726 104.057 245.6 104.83 245.6L108.07 245.6C108.837 245.6 109.46 245.726 109.94 245.98C110.427 246.226 110.783 246.58 111.01 247.04C111.237 247.5 111.35 248.053 111.35 248.7Z" fill="#2C303B"/>
<path d="M1269 467V184L196 434.861V467H1269Z" fill="#FFB69E"/>
<path d="M1269 467V410L196 454.723V467H1269Z" fill="#FFE7DF"/>
<path d="M1234.05 486.508V485.778C1234.05 485.278 1234.13 484.878 1234.31 484.578C1234.49 484.278 1234.73 484.038 1235.05 483.858C1235.37 483.671 1235.75 483.511 1236.19 483.378L1236.74 483.208C1237.04 483.114 1237.3 483.001 1237.53 482.868C1237.75 482.728 1237.93 482.554 1238.06 482.348C1238.18 482.134 1238.25 481.874 1238.25 481.568V481.528C1238.25 481.088 1238.09 480.741 1237.79 480.488C1237.48 480.228 1237.09 480.098 1236.61 480.098C1236.1 480.098 1235.69 480.234 1235.37 480.508C1235.05 480.774 1234.89 481.181 1234.89 481.728V481.868H1234.09V481.738C1234.09 481.231 1234.2 480.801 1234.42 480.448C1234.64 480.094 1234.94 479.828 1235.32 479.648C1235.7 479.461 1236.13 479.368 1236.61 479.368C1237.09 479.368 1237.51 479.458 1237.88 479.638C1238.25 479.818 1238.54 480.068 1238.75 480.388C1238.95 480.708 1239.06 481.081 1239.06 481.508V481.598C1239.06 482.051 1238.97 482.428 1238.79 482.728C1238.61 483.021 1238.36 483.261 1238.04 483.448C1237.72 483.634 1237.35 483.794 1236.93 483.928L1236.39 484.098C1236.05 484.204 1235.76 484.318 1235.54 484.438C1235.32 484.551 1235.15 484.698 1235.04 484.878C1234.92 485.058 1234.87 485.301 1234.87 485.608V485.778H1239V486.508H1234.05ZM1242.74 486.648C1241.95 486.648 1241.32 486.414 1240.84 485.948C1240.38 485.474 1240.14 484.768 1240.14 483.828V482.188C1240.14 481.254 1240.38 480.551 1240.84 480.078C1241.32 479.604 1241.95 479.368 1242.74 479.368C1243.54 479.368 1244.18 479.604 1244.64 480.078C1245.12 480.551 1245.35 481.254 1245.35 482.188V483.828C1245.35 484.768 1245.12 485.474 1244.64 485.948C1244.18 486.414 1243.54 486.648 1242.74 486.648ZM1242.74 485.918C1243.34 485.918 1243.79 485.738 1244.09 485.378C1244.39 485.018 1244.54 484.514 1244.54 483.868V482.138C1244.54 481.491 1244.39 480.991 1244.08 480.638C1243.78 480.278 1243.33 480.098 1242.74 480.098C1242.16 480.098 1241.71 480.278 1241.4 480.638C1241.1 480.998 1240.95 481.498 1240.95 482.138V483.868C1240.95 484.521 1241.1 485.028 1241.4 485.388C1241.7 485.741 1242.15 485.918 1242.74 485.918ZM1248.97 486.648C1248.46 486.648 1248.01 486.551 1247.64 486.358C1247.27 486.158 1246.98 485.884 1246.77 485.538C1246.56 485.184 1246.46 484.778 1246.46 484.318V484.198H1247.27V484.288C1247.27 484.814 1247.42 485.218 1247.73 485.498C1248.04 485.778 1248.44 485.918 1248.95 485.918C1249.48 485.918 1249.9 485.768 1250.2 485.468C1250.5 485.168 1250.65 484.758 1250.65 484.238V484.148C1250.65 483.648 1250.5 483.251 1250.21 482.958C1249.92 482.658 1249.55 482.508 1249.09 482.508C1248.82 482.508 1248.6 482.551 1248.43 482.638C1248.26 482.718 1248.12 482.821 1248.02 482.948C1247.92 483.068 1247.84 483.184 1247.77 483.298H1246.67V479.508H1251.27V480.238H1247.48V482.658H1247.62C1247.69 482.524 1247.79 482.394 1247.92 482.268C1248.05 482.141 1248.23 482.034 1248.45 481.948C1248.67 481.861 1248.94 481.818 1249.27 481.818C1249.68 481.818 1250.04 481.911 1250.37 482.098C1250.7 482.284 1250.97 482.551 1251.16 482.898C1251.36 483.244 1251.46 483.658 1251.46 484.138V484.248C1251.46 484.721 1251.36 485.138 1251.16 485.498C1250.96 485.858 1250.67 486.141 1250.3 486.348C1249.93 486.548 1249.48 486.648 1248.97 486.648ZM1255.14 486.648C1254.34 486.648 1253.71 486.414 1253.24 485.948C1252.77 485.474 1252.54 484.768 1252.54 483.828V482.188C1252.54 481.254 1252.77 480.551 1253.24 480.078C1253.71 479.604 1254.34 479.368 1255.14 479.368C1255.94 479.368 1256.57 479.604 1257.04 480.078C1257.51 480.551 1257.75 481.254 1257.75 482.188V483.828C1257.75 484.768 1257.51 485.474 1257.04 485.948C1256.57 486.414 1255.94 486.648 1255.14 486.648ZM1255.14 485.918C1255.74 485.918 1256.19 485.738 1256.49 485.378C1256.79 485.018 1256.94 484.514 1256.94 483.868V482.138C1256.94 481.491 1256.78 480.991 1256.48 480.638C1256.17 480.278 1255.72 480.098 1255.14 480.098C1254.55 480.098 1254.1 480.278 1253.8 480.638C1253.5 480.998 1253.35 481.498 1253.35 482.138V483.868C1253.35 484.521 1253.5 485.028 1253.8 485.388C1254.1 485.741 1254.54 485.918 1255.14 485.918Z" fill="#ABACB1"/>
<path d="M206.52 486.508V485.778C206.52 485.278 206.607 484.878 206.78 484.578C206.96 484.278 207.207 484.038 207.52 483.858C207.84 483.671 208.22 483.511 208.66 483.378L209.21 483.208C209.51 483.114 209.774 483.001 210 482.868C210.227 482.728 210.404 482.554 210.53 482.348C210.657 482.134 210.72 481.874 210.72 481.568V481.528C210.72 481.088 210.567 480.741 210.26 480.488C209.954 480.228 209.56 480.098 209.08 480.098C208.574 480.098 208.16 480.234 207.84 480.508C207.52 480.774 207.36 481.181 207.36 481.728V481.868H206.56V481.738C206.56 481.231 206.67 480.801 206.89 480.448C207.11 480.094 207.41 479.828 207.79 479.648C208.17 479.461 208.6 479.368 209.08 479.368C209.56 479.368 209.984 479.458 210.35 479.638C210.724 479.818 211.014 480.068 211.22 480.388C211.427 480.708 211.53 481.081 211.53 481.508V481.598C211.53 482.051 211.44 482.428 211.26 482.728C211.08 483.021 210.83 483.261 210.51 483.448C210.197 483.634 209.827 483.794 209.4 483.928L208.86 484.098C208.52 484.204 208.237 484.318 208.01 484.438C207.79 484.551 207.624 484.698 207.51 484.878C207.397 485.058 207.34 485.301 207.34 485.608V485.778H211.47V486.508H206.52ZM215.216 486.648C214.422 486.648 213.789 486.414 213.316 485.948C212.849 485.474 212.616 484.768 212.616 483.828V482.188C212.616 481.254 212.849 480.551 213.316 480.078C213.789 479.604 214.422 479.368 215.216 479.368C216.016 479.368 216.649 479.604 217.116 480.078C217.589 480.551 217.826 481.254 217.826 482.188V483.828C217.826 484.768 217.589 485.474 217.116 485.948C216.649 486.414 216.016 486.648 215.216 486.648ZM215.216 485.918C215.816 485.918 216.266 485.738 216.566 485.378C216.866 485.018 217.016 484.514 217.016 483.868V482.138C217.016 481.491 216.862 480.991 216.556 480.638C216.249 480.278 215.802 480.098 215.216 480.098C214.629 480.098 214.182 480.278 213.876 480.638C213.576 480.998 213.426 481.498 213.426 482.138V483.868C213.426 484.521 213.576 485.028 213.876 485.388C214.176 485.741 214.622 485.918 215.216 485.918ZM218.952 486.508V485.778C218.952 485.278 219.039 484.878 219.212 484.578C219.392 484.278 219.639 484.038 219.952 483.858C220.272 483.671 220.652 483.511 221.092 483.378L221.642 483.208C221.942 483.114 222.205 483.001 222.432 482.868C222.659 482.728 222.835 482.554 222.962 482.348C223.089 482.134 223.152 481.874 223.152 481.568V481.528C223.152 481.088 222.999 480.741 222.692 480.488C222.385 480.228 221.992 480.098 221.512 480.098C221.005 480.098 220.592 480.234 220.272 480.508C219.952 480.774 219.792 481.181 219.792 481.728V481.868H218.992V481.738C218.992 481.231 219.102 480.801 219.322 480.448C219.542 480.094 219.842 479.828 220.222 479.648C220.602 479.461 221.032 479.368 221.512 479.368C221.992 479.368 222.415 479.458 222.782 479.638C223.155 479.818 223.445 480.068 223.652 480.388C223.859 480.708 223.962 481.081 223.962 481.508V481.598C223.962 482.051 223.872 482.428 223.692 482.728C223.512 483.021 223.262 483.261 222.942 483.448C222.629 483.634 222.259 483.794 221.832 483.928L221.292 484.098C220.952 484.204 220.669 484.318 220.442 484.438C220.222 484.551 220.055 484.698 219.942 484.878C219.829 485.058 219.772 485.301 219.772 485.608V485.778H223.902V486.508H218.952ZM227.647 486.648C226.854 486.648 226.221 486.414 225.747 485.948C225.281 485.474 225.047 484.768 225.047 483.828V482.188C225.047 481.254 225.281 480.551 225.747 480.078C226.221 479.604 226.854 479.368 227.647 479.368C228.447 479.368 229.081 479.604 229.547 480.078C230.021 480.551 230.257 481.254 230.257 482.188V483.828C230.257 484.768 230.021 485.474 229.547 485.948C229.081 486.414 228.447 486.648 227.647 486.648ZM227.647 485.918C228.247 485.918 228.697 485.738 228.997 485.378C229.297 485.018 229.447 484.514 229.447 483.868V482.138C229.447 481.491 229.294 480.991 228.987 480.638C228.681 480.278 228.234 480.098 227.647 480.098C227.061 480.098 226.614 480.278 226.307 480.638C226.007 480.998 225.857 481.498 225.857 482.138V483.868C225.857 484.521 226.007 485.028 226.307 485.388C226.607 485.741 227.054 485.918 227.647 485.918Z" fill="#ABACB1"/>
<path d="M159.794 466.14C159 466.14 158.367 465.907 157.894 465.44C157.427 464.967 157.194 464.26 157.194 463.32V461.68C157.194 460.747 157.427 460.043 157.894 459.57C158.367 459.097 159 458.86 159.794 458.86C160.594 458.86 161.227 459.097 161.694 459.57C162.167 460.043 162.404 460.747 162.404 461.68V463.32C162.404 464.26 162.167 464.967 161.694 465.44C161.227 465.907 160.594 466.14 159.794 466.14ZM159.794 465.41C160.394 465.41 160.844 465.23 161.144 464.87C161.444 464.51 161.594 464.007 161.594 463.36V461.63C161.594 460.983 161.44 460.483 161.134 460.13C160.827 459.77 160.38 459.59 159.794 459.59C159.207 459.59 158.76 459.77 158.454 460.13C158.154 460.49 158.004 460.99 158.004 461.63V463.36C158.004 464.013 158.154 464.52 158.454 464.88C158.754 465.233 159.2 465.41 159.794 465.41Z" fill="#ABACB1"/>
<path d="M154.984 409V402.54H154.834L153.474 405.03H152.594L154.264 402H155.794V409H154.984ZM159.794 409.14C159 409.14 158.367 408.907 157.894 408.44C157.427 407.967 157.194 407.26 157.194 406.32V404.68C157.194 403.747 157.427 403.043 157.894 402.57C158.367 402.097 159 401.86 159.794 401.86C160.594 401.86 161.227 402.097 161.694 402.57C162.167 403.043 162.404 403.747 162.404 404.68V406.32C162.404 407.26 162.167 407.967 161.694 408.44C161.227 408.907 160.594 409.14 159.794 409.14ZM159.794 408.41C160.394 408.41 160.844 408.23 161.144 407.87C161.444 407.51 161.594 407.007 161.594 406.36V404.63C161.594 403.983 161.44 403.483 161.134 403.13C160.827 402.77 160.38 402.59 159.794 402.59C159.207 402.59 158.76 402.77 158.454 403.13C158.154 403.49 158.004 403.99 158.004 404.63V406.36C158.004 407.013 158.154 407.52 158.454 407.88C158.754 408.233 159.2 408.41 159.794 408.41Z" fill="#ABACB1"/>
<path d="M151.098 352V351.27C151.098 350.77 151.185 350.37 151.358 350.07C151.538 349.77 151.785 349.53 152.098 349.35C152.418 349.163 152.798 349.003 153.238 348.87L153.788 348.7C154.088 348.607 154.352 348.493 154.578 348.36C154.805 348.22 154.982 348.047 155.108 347.84C155.235 347.627 155.298 347.367 155.298 347.06V347.02C155.298 346.58 155.145 346.233 154.838 345.98C154.532 345.72 154.138 345.59 153.658 345.59C153.152 345.59 152.738 345.727 152.418 346C152.098 346.267 151.938 346.673 151.938 347.22V347.36H151.138V347.23C151.138 346.723 151.248 346.293 151.468 345.94C151.688 345.587 151.988 345.32 152.368 345.14C152.748 344.953 153.178 344.86 153.658 344.86C154.138 344.86 154.562 344.95 154.928 345.13C155.302 345.31 155.592 345.56 155.798 345.88C156.005 346.2 156.108 346.573 156.108 347V347.09C156.108 347.543 156.018 347.92 155.838 348.22C155.658 348.513 155.408 348.753 155.088 348.94C154.775 349.127 154.405 349.287 153.978 349.42L153.438 349.59C153.098 349.697 152.815 349.81 152.588 349.93C152.368 350.043 152.202 350.19 152.088 350.37C151.975 350.55 151.918 350.793 151.918 351.1V351.27H156.048V352H151.098ZM159.794 352.14C159 352.14 158.367 351.907 157.894 351.44C157.427 350.967 157.194 350.26 157.194 349.32V347.68C157.194 346.747 157.427 346.043 157.894 345.57C158.367 345.097 159 344.86 159.794 344.86C160.594 344.86 161.227 345.097 161.694 345.57C162.167 346.043 162.404 346.747 162.404 347.68V349.32C162.404 350.26 162.167 350.967 161.694 351.44C161.227 351.907 160.594 352.14 159.794 352.14ZM159.794 351.41C160.394 351.41 160.844 351.23 161.144 350.87C161.444 350.51 161.594 350.007 161.594 349.36V347.63C161.594 346.983 161.44 346.483 161.134 346.13C160.827 345.77 160.38 345.59 159.794 345.59C159.207 345.59 158.76 345.77 158.454 346.13C158.154 346.49 158.004 346.99 158.004 347.63V349.36C158.004 350.013 158.154 350.52 158.454 350.88C158.754 351.233 159.2 351.41 159.794 351.41Z" fill="#ABACB1"/>
<path d="M153.589 295.14C153.095 295.14 152.652 295.047 152.259 294.86C151.872 294.673 151.565 294.403 151.339 294.05C151.119 293.697 151.009 293.27 151.009 292.77V292.58H151.819V292.76C151.819 293.273 151.982 293.677 152.309 293.97C152.635 294.263 153.062 294.41 153.589 294.41C154.122 294.41 154.535 294.273 154.829 294C155.129 293.72 155.279 293.37 155.279 292.95V292.87C155.279 292.563 155.205 292.317 155.059 292.13C154.912 291.937 154.712 291.797 154.459 291.71C154.212 291.617 153.939 291.57 153.639 291.57H152.499V290.56L155.169 288.85V288.73H151.179V288H156.029V289.13L153.419 290.81V290.93H153.919C154.312 290.93 154.672 291.003 154.999 291.15C155.332 291.29 155.595 291.503 155.789 291.79C155.989 292.07 156.089 292.423 156.089 292.85V292.96C156.089 293.4 155.985 293.783 155.779 294.11C155.572 294.437 155.282 294.69 154.909 294.87C154.535 295.05 154.095 295.14 153.589 295.14ZM159.794 295.14C159 295.14 158.367 294.907 157.894 294.44C157.427 293.967 157.194 293.26 157.194 292.32V290.68C157.194 289.747 157.427 289.043 157.894 288.57C158.367 288.097 159 287.86 159.794 287.86C160.594 287.86 161.227 288.097 161.694 288.57C162.167 289.043 162.404 289.747 162.404 290.68V292.32C162.404 293.26 162.167 293.967 161.694 294.44C161.227 294.907 160.594 295.14 159.794 295.14ZM159.794 294.41C160.394 294.41 160.844 294.23 161.144 293.87C161.444 293.51 161.594 293.007 161.594 292.36V290.63C161.594 289.983 161.44 289.483 161.134 289.13C160.827 288.77 160.38 288.59 159.794 288.59C159.207 288.59 158.76 288.77 158.454 289.13C158.154 289.49 158.004 289.99 158.004 290.63V292.36C158.004 293.013 158.154 293.52 158.454 293.88C158.754 294.233 159.2 294.41 159.794 294.41Z" fill="#ABACB1"/>
<path d="M154.314 238V236.57H150.664V235.61L153.604 231H155.124V235.84H156.324V236.57H155.124V238H154.314ZM151.474 235.84H154.314V231.49H154.174L151.474 235.72V235.84ZM159.794 238.14C159 238.14 158.367 237.907 157.894 237.44C157.427 236.967 157.194 236.26 157.194 235.32V233.68C157.194 232.747 157.427 232.043 157.894 231.57C158.367 231.097 159 230.86 159.794 230.86C160.594 230.86 161.227 231.097 161.694 231.57C162.167 232.043 162.404 232.747 162.404 233.68V235.32C162.404 236.26 162.167 236.967 161.694 237.44C161.227 237.907 160.594 238.14 159.794 238.14ZM159.794 237.41C160.394 237.41 160.844 237.23 161.144 236.87C161.444 236.51 161.594 236.007 161.594 235.36V233.63C161.594 232.983 161.44 232.483 161.134 232.13C160.827 231.77 160.38 231.59 159.794 231.59C159.207 231.59 158.76 231.77 158.454 232.13C158.154 232.49 158.004 232.99 158.004 233.63V235.36C158.004 236.013 158.154 236.52 158.454 236.88C158.754 237.233 159.2 237.41 159.794 237.41Z" fill="#ABACB1"/>
<path d="M153.627 181.14C153.114 181.14 152.671 181.043 152.297 180.85C151.924 180.65 151.634 180.377 151.427 180.03C151.221 179.677 151.117 179.27 151.117 178.81V178.69H151.927V178.78C151.927 179.307 152.081 179.71 152.387 179.99C152.694 180.27 153.101 180.41 153.607 180.41C154.141 180.41 154.557 180.26 154.857 179.96C155.157 179.66 155.307 179.25 155.307 178.73V178.64C155.307 178.14 155.161 177.743 154.867 177.45C154.581 177.15 154.207 177 153.747 177C153.481 177 153.261 177.043 153.087 177.13C152.914 177.21 152.777 177.313 152.677 177.44C152.577 177.56 152.494 177.677 152.427 177.79H151.327V174H155.927V174.73H152.137V177.15H152.277C152.351 177.017 152.451 176.887 152.577 176.76C152.711 176.633 152.887 176.527 153.107 176.44C153.327 176.353 153.601 176.31 153.927 176.31C154.334 176.31 154.701 176.403 155.027 176.59C155.361 176.777 155.624 177.043 155.817 177.39C156.017 177.737 156.117 178.15 156.117 178.63V178.74C156.117 179.213 156.017 179.63 155.817 179.99C155.617 180.35 155.331 180.633 154.957 180.84C154.584 181.04 154.141 181.14 153.627 181.14ZM159.794 181.14C159 181.14 158.367 180.907 157.894 180.44C157.427 179.967 157.194 179.26 157.194 178.32V176.68C157.194 175.747 157.427 175.043 157.894 174.57C158.367 174.097 159 173.86 159.794 173.86C160.594 173.86 161.227 174.097 161.694 174.57C162.167 175.043 162.404 175.747 162.404 176.68V178.32C162.404 179.26 162.167 179.967 161.694 180.44C161.227 180.907 160.594 181.14 159.794 181.14ZM159.794 180.41C160.394 180.41 160.844 180.23 161.144 179.87C161.444 179.51 161.594 179.007 161.594 178.36V176.63C161.594 175.983 161.44 175.483 161.134 175.13C160.827 174.77 160.38 174.59 159.794 174.59C159.207 174.59 158.76 174.77 158.454 175.13C158.154 175.49 158.004 175.99 158.004 176.63V178.36C158.004 179.013 158.154 179.52 158.454 179.88C158.754 180.233 159.2 180.41 159.794 180.41Z" fill="#ABACB1"/>
<path d="M548.715 486.508V485.778C548.715 485.278 548.801 484.878 548.975 484.578C549.155 484.278 549.401 484.038 549.715 483.858C550.035 483.671 550.415 483.511 550.855 483.378L551.405 483.208C551.705 483.114 551.968 483.001 552.195 482.868C552.421 482.728 552.598 482.554 552.725 482.348C552.851 482.134 552.915 481.874 552.915 481.568V481.528C552.915 481.088 552.761 480.741 552.455 480.488C552.148 480.228 551.755 480.098 551.275 480.098C550.768 480.098 550.355 480.234 550.035 480.508C549.715 480.774 549.555 481.181 549.555 481.728V481.868H548.755V481.738C548.755 481.231 548.865 480.801 549.085 480.448C549.305 480.094 549.605 479.828 549.985 479.648C550.365 479.461 550.795 479.368 551.275 479.368C551.755 479.368 552.178 479.458 552.545 479.638C552.918 479.818 553.208 480.068 553.415 480.388C553.621 480.708 553.725 481.081 553.725 481.508V481.598C553.725 482.051 553.635 482.428 553.455 482.728C553.275 483.021 553.025 483.261 552.705 483.448C552.391 483.634 552.021 483.794 551.595 483.928L551.055 484.098C550.715 484.204 550.431 484.318 550.205 484.438C549.985 484.551 549.818 484.698 549.705 484.878C549.591 485.058 549.535 485.301 549.535 485.608V485.778H553.665V486.508H548.715ZM557.41 486.648C556.617 486.648 555.983 486.414 555.51 485.948C555.043 485.474 554.81 484.768 554.81 483.828V482.188C554.81 481.254 555.043 480.551 555.51 480.078C555.983 479.604 556.617 479.368 557.41 479.368C558.21 479.368 558.843 479.604 559.31 480.078C559.783 480.551 560.02 481.254 560.02 482.188V483.828C560.02 484.768 559.783 485.474 559.31 485.948C558.843 486.414 558.21 486.648 557.41 486.648ZM557.41 485.918C558.01 485.918 558.46 485.738 558.76 485.378C559.06 485.018 559.21 484.514 559.21 483.868V482.138C559.21 481.491 559.057 480.991 558.75 480.638C558.443 480.278 557.997 480.098 557.41 480.098C556.823 480.098 556.377 480.278 556.07 480.638C555.77 480.998 555.62 481.498 555.62 482.138V483.868C555.62 484.521 555.77 485.028 556.07 485.388C556.37 485.741 556.817 485.918 557.41 485.918ZM563.646 486.648C563.153 486.648 562.71 486.554 562.316 486.368C561.93 486.181 561.623 485.911 561.396 485.558C561.176 485.204 561.066 484.778 561.066 484.278V484.088H561.876V484.268C561.876 484.781 562.04 485.184 562.366 485.478C562.693 485.771 563.12 485.918 563.646 485.918C564.18 485.918 564.593 485.781 564.886 485.508C565.186 485.228 565.336 484.878 565.336 484.458V484.378C565.336 484.071 565.263 483.824 565.116 483.638C564.97 483.444 564.77 483.304 564.516 483.218C564.27 483.124 563.996 483.078 563.696 483.078H562.556V482.068L565.226 480.358V480.238H561.236V479.508H566.086V480.638L563.476 482.318V482.438H563.976C564.37 482.438 564.73 482.511 565.056 482.658C565.39 482.798 565.653 483.011 565.846 483.298C566.046 483.578 566.146 483.931 566.146 484.358V484.468C566.146 484.908 566.043 485.291 565.836 485.618C565.63 485.944 565.34 486.198 564.966 486.378C564.593 486.558 564.153 486.648 563.646 486.648ZM569.851 486.648C569.058 486.648 568.425 486.414 567.951 485.948C567.485 485.474 567.251 484.768 567.251 483.828V482.188C567.251 481.254 567.485 480.551 567.951 480.078C568.425 479.604 569.058 479.368 569.851 479.368C570.651 479.368 571.285 479.604 571.751 480.078C572.225 480.551 572.461 481.254 572.461 482.188V483.828C572.461 484.768 572.225 485.474 571.751 485.948C571.285 486.414 570.651 486.648 569.851 486.648ZM569.851 485.918C570.451 485.918 570.901 485.738 571.201 485.378C571.501 485.018 571.651 484.514 571.651 483.868V482.138C571.651 481.491 571.498 480.991 571.191 480.638C570.885 480.278 570.438 480.098 569.851 480.098C569.265 480.098 568.818 480.278 568.511 480.638C568.211 480.998 568.061 481.498 568.061 482.138V483.868C568.061 484.521 568.211 485.028 568.511 485.388C568.811 485.741 569.258 485.918 569.851 485.918Z" fill="#ABACB1"/>
<path d="M890.306 486.508V485.778C890.306 485.278 890.393 484.878 890.566 484.578C890.746 484.278 890.993 484.038 891.306 483.858C891.626 483.671 892.006 483.511 892.446 483.378L892.996 483.208C893.296 483.114 893.56 483.001 893.786 482.868C894.013 482.728 894.19 482.554 894.316 482.348C894.443 482.134 894.506 481.874 894.506 481.568V481.528C894.506 481.088 894.353 480.741 894.046 480.488C893.74 480.228 893.346 480.098 892.866 480.098C892.36 480.098 891.946 480.234 891.626 480.508C891.306 480.774 891.146 481.181 891.146 481.728V481.868H890.346V481.738C890.346 481.231 890.456 480.801 890.676 480.448C890.896 480.094 891.196 479.828 891.576 479.648C891.956 479.461 892.386 479.368 892.866 479.368C893.346 479.368 893.77 479.458 894.136 479.638C894.51 479.818 894.8 480.068 895.006 480.388C895.213 480.708 895.316 481.081 895.316 481.508V481.598C895.316 482.051 895.226 482.428 895.046 482.728C894.866 483.021 894.616 483.261 894.296 483.448C893.983 483.634 893.613 483.794 893.186 483.928L892.646 484.098C892.306 484.204 892.023 484.318 891.796 484.438C891.576 484.551 891.41 484.698 891.296 484.878C891.183 485.058 891.126 485.301 891.126 485.608V485.778H895.256V486.508H890.306ZM899.002 486.648C898.208 486.648 897.575 486.414 897.102 485.948C896.635 485.474 896.402 484.768 896.402 483.828V482.188C896.402 481.254 896.635 480.551 897.102 480.078C897.575 479.604 898.208 479.368 899.002 479.368C899.802 479.368 900.435 479.604 900.902 480.078C901.375 480.551 901.612 481.254 901.612 482.188V483.828C901.612 484.768 901.375 485.474 900.902 485.948C900.435 486.414 899.802 486.648 899.002 486.648ZM899.002 485.918C899.602 485.918 900.052 485.738 900.352 485.378C900.652 485.018 900.802 484.514 900.802 483.868V482.138C900.802 481.491 900.648 480.991 900.342 480.638C900.035 480.278 899.588 480.098 899.002 480.098C898.415 480.098 897.968 480.278 897.662 480.638C897.362 480.998 897.212 481.498 897.212 482.138V483.868C897.212 484.521 897.362 485.028 897.662 485.388C897.962 485.741 898.408 485.918 899.002 485.918ZM906.178 486.508V485.078H902.528V484.118L905.468 479.508H906.988V484.348H908.188V485.078H906.988V486.508H906.178ZM903.338 484.348H906.178V479.998H906.038L903.338 484.228V484.348ZM911.658 486.648C910.865 486.648 910.231 486.414 909.758 485.948C909.291 485.474 909.058 484.768 909.058 483.828V482.188C909.058 481.254 909.291 480.551 909.758 480.078C910.231 479.604 910.865 479.368 911.658 479.368C912.458 479.368 913.091 479.604 913.558 480.078C914.031 480.551 914.268 481.254 914.268 482.188V483.828C914.268 484.768 914.031 485.474 913.558 485.948C913.091 486.414 912.458 486.648 911.658 486.648ZM911.658 485.918C912.258 485.918 912.708 485.738 913.008 485.378C913.308 485.018 913.458 484.514 913.458 483.868V482.138C913.458 481.491 913.305 480.991 912.998 480.638C912.691 480.278 912.245 480.098 911.658 480.098C911.071 480.098 910.625 480.278 910.318 480.638C910.018 480.998 909.868 481.498 909.868 482.138V483.868C909.868 484.521 910.018 485.028 910.318 485.388C910.618 485.741 911.065 485.918 911.658 485.918Z" fill="#ABACB1"/>
<path d="M128.816 116.196C127.65 116.196 126.721 115.86 126.03 115.188C125.34 114.507 124.994 113.517 124.994 112.22V109.98C124.994 108.683 125.34 107.698 126.03 107.026C126.721 106.345 127.65 106.004 128.816 106.004C129.974 106.004 130.86 106.326 131.476 106.97C132.102 107.614 132.414 108.496 132.414 109.616V109.686H131.252V109.574C131.252 108.837 131.052 108.235 130.65 107.768C130.258 107.292 129.647 107.054 128.816 107.054C127.986 107.054 127.337 107.311 126.87 107.824C126.404 108.328 126.17 109.037 126.17 109.952V112.248C126.17 113.163 126.404 113.877 126.87 114.39C127.337 114.894 127.986 115.146 128.816 115.146C129.647 115.146 130.258 114.913 130.65 114.446C131.052 113.97 131.252 113.363 131.252 112.626V112.402H132.414V112.584C132.414 113.704 132.102 114.586 131.476 115.23C130.86 115.874 129.974 116.196 128.816 116.196ZM136.917 116.126C136.422 116.126 135.965 116.019 135.545 115.804C135.134 115.589 134.807 115.272 134.565 114.852C134.331 114.423 134.215 113.905 134.215 113.298V109.154H135.321V113.214C135.321 113.895 135.489 114.39 135.825 114.698C136.17 115.006 136.632 115.16 137.211 115.16C137.864 115.16 138.401 114.945 138.821 114.516C139.241 114.087 139.451 113.447 139.451 112.598V109.154H140.557V116H139.479V114.838H139.283C139.133 115.165 138.877 115.463 138.513 115.734C138.149 115.995 137.617 116.126 136.917 116.126ZM142.871 116V109.154H143.949V109.994H144.145C144.266 109.695 144.453 109.476 144.705 109.336C144.957 109.196 145.288 109.126 145.699 109.126H146.511V110.134H145.629C145.134 110.134 144.733 110.274 144.425 110.554C144.126 110.825 143.977 111.249 143.977 111.828V116H142.871ZM148.148 116V109.154H149.226V109.994H149.422C149.544 109.695 149.73 109.476 149.982 109.336C150.234 109.196 150.566 109.126 150.976 109.126H151.788V110.134H150.906C150.412 110.134 150.01 110.274 149.702 110.554C149.404 110.825 149.254 111.249 149.254 111.828V116H148.148ZM156.316 116.196C155.625 116.196 155.018 116.051 154.496 115.762C153.973 115.463 153.567 115.048 153.278 114.516C152.988 113.984 152.844 113.368 152.844 112.668V112.5C152.844 111.791 152.988 111.17 153.278 110.638C153.567 110.106 153.968 109.695 154.482 109.406C154.995 109.107 155.583 108.958 156.246 108.958C156.89 108.958 157.459 109.098 157.954 109.378C158.448 109.649 158.836 110.041 159.116 110.554C159.396 111.067 159.536 111.669 159.536 112.36V112.864H153.95C153.978 113.601 154.216 114.18 154.664 114.6C155.112 115.011 155.672 115.216 156.344 115.216C156.932 115.216 157.384 115.081 157.702 114.81C158.019 114.539 158.262 114.217 158.43 113.844L159.382 114.306C159.242 114.595 159.046 114.885 158.794 115.174C158.551 115.463 158.229 115.706 157.828 115.902C157.436 116.098 156.932 116.196 156.316 116.196ZM153.964 111.954H158.416C158.378 111.319 158.159 110.825 157.758 110.47C157.366 110.115 156.862 109.938 156.246 109.938C155.62 109.938 155.107 110.115 154.706 110.47C154.304 110.825 154.057 111.319 153.964 111.954ZM161.465 116V109.154H162.543V110.316H162.739C162.888 109.989 163.14 109.695 163.495 109.434C163.859 109.163 164.391 109.028 165.091 109.028C165.604 109.028 166.061 109.135 166.463 109.35C166.873 109.565 167.2 109.882 167.443 110.302C167.685 110.722 167.807 111.24 167.807 111.856V116H166.701V111.94C166.701 111.259 166.528 110.764 166.183 110.456C165.847 110.148 165.389 109.994 164.811 109.994C164.148 109.994 163.607 110.209 163.187 110.638C162.776 111.067 162.571 111.707 162.571 112.556V116H161.465ZM172.379 116C171.987 116 171.684 115.893 171.469 115.678C171.264 115.463 171.161 115.169 171.161 114.796V110.12H169.103V109.154H171.161V106.718H172.267V109.154H174.507V110.12H172.267V114.628C172.267 114.908 172.403 115.048 172.673 115.048H174.199V116H172.379ZM182.512 116.126C182.018 116.126 181.56 116.019 181.14 115.804C180.73 115.589 180.403 115.272 180.16 114.852C179.927 114.423 179.81 113.905 179.81 113.298V109.154H180.916V113.214C180.916 113.895 181.084 114.39 181.42 114.698C181.766 115.006 182.228 115.16 182.806 115.16C183.46 115.16 183.996 114.945 184.416 114.516C184.836 114.087 185.046 113.447 185.046 112.598V109.154H186.152V116H185.074V114.838H184.878C184.729 115.165 184.472 115.463 184.108 115.734C183.744 115.995 183.212 116.126 182.512 116.126ZM188.467 116V109.154H189.545V110.316H189.741C189.89 109.989 190.142 109.695 190.497 109.434C190.861 109.163 191.393 109.028 192.093 109.028C192.606 109.028 193.063 109.135 193.465 109.35C193.875 109.565 194.202 109.882 194.445 110.302C194.687 110.722 194.809 111.24 194.809 111.856V116H193.703V111.94C193.703 111.259 193.53 110.764 193.185 110.456C192.849 110.148 192.391 109.994 191.813 109.994C191.15 109.994 190.609 110.209 190.189 110.638C189.778 111.067 189.573 111.707 189.573 112.556V116H188.467ZM197.053 116V109.154H198.159V116H197.053ZM197.613 108.09C197.37 108.09 197.165 108.011 196.997 107.852C196.838 107.693 196.759 107.493 196.759 107.25C196.759 106.998 196.838 106.793 196.997 106.634C197.165 106.475 197.37 106.396 197.613 106.396C197.855 106.396 198.056 106.475 198.215 106.634C198.373 106.793 198.453 106.998 198.453 107.25C198.453 107.493 198.373 107.693 198.215 107.852C198.056 108.011 197.855 108.09 197.613 108.09ZM203.004 116C202.612 116 202.309 115.893 202.094 115.678C201.889 115.463 201.786 115.169 201.786 114.796V110.12H199.728V109.154H201.786V106.718H202.892V109.154H205.132V110.12H202.892V114.628C202.892 114.908 203.028 115.048 203.298 115.048H204.824V116H203.004ZM210.183 112.612V112.416C210.183 111.697 210.328 111.081 210.617 110.568C210.907 110.055 211.299 109.658 211.793 109.378C212.288 109.098 212.829 108.958 213.417 108.958C214.136 108.958 214.687 109.098 215.069 109.378C215.461 109.649 215.751 109.952 215.937 110.288H216.133V109.154H217.183V117.596C217.183 117.969 217.081 118.263 216.875 118.478C216.67 118.693 216.371 118.8 215.979 118.8H211.331V117.82H215.685C215.965 117.82 216.105 117.68 216.105 117.4V114.796H215.909C215.797 115.001 215.639 115.202 215.433 115.398C215.228 115.594 214.962 115.757 214.635 115.888C214.309 116.009 213.903 116.07 213.417 116.07C212.829 116.07 212.288 115.93 211.793 115.65C211.299 115.37 210.907 114.973 210.617 114.46C210.328 113.937 210.183 113.321 210.183 112.612ZM213.711 115.09C214.421 115.09 214.995 114.866 215.433 114.418C215.881 113.97 216.105 113.354 216.105 112.57V112.458C216.105 111.665 215.881 111.049 215.433 110.61C214.995 110.162 214.421 109.938 213.711 109.938C213.011 109.938 212.433 110.162 211.975 110.61C211.527 111.049 211.303 111.665 211.303 112.458V112.57C211.303 113.354 211.527 113.97 211.975 114.418C212.433 114.866 213.011 115.09 213.711 115.09ZM219.502 116V109.154H220.58V109.994H220.776C220.897 109.695 221.084 109.476 221.336 109.336C221.588 109.196 221.919 109.126 222.33 109.126H223.142V110.134H222.26C221.765 110.134 221.364 110.274 221.056 110.554C220.757 110.825 220.608 111.249 220.608 111.828V116H219.502ZM227.697 116.196C227.006 116.196 226.395 116.051 225.863 115.762C225.34 115.473 224.93 115.067 224.631 114.544C224.342 114.012 224.197 113.387 224.197 112.668V112.486C224.197 111.777 224.342 111.156 224.631 110.624C224.93 110.092 225.34 109.681 225.863 109.392C226.395 109.103 227.006 108.958 227.697 108.958C228.388 108.958 228.994 109.103 229.517 109.392C230.049 109.681 230.46 110.092 230.749 110.624C231.048 111.156 231.197 111.777 231.197 112.486V112.668C231.197 113.387 231.048 114.012 230.749 114.544C230.46 115.067 230.049 115.473 229.517 115.762C228.994 116.051 228.388 116.196 227.697 116.196ZM227.697 115.202C228.425 115.202 229.004 114.973 229.433 114.516C229.872 114.049 230.091 113.424 230.091 112.64V112.514C230.091 111.73 229.872 111.109 229.433 110.652C229.004 110.185 228.425 109.952 227.697 109.952C226.978 109.952 226.4 110.185 225.961 110.652C225.522 111.109 225.303 111.73 225.303 112.514V112.64C225.303 113.424 225.522 114.049 225.961 114.516C226.4 114.973 226.978 115.202 227.697 115.202ZM234.003 116L232.631 109.154H233.751L234.885 115.258H235.081L236.579 109.154H238.413L239.911 115.258H240.107L241.241 109.154H242.361L240.989 116H239.099L237.587 109.896H237.405L235.893 116H234.003ZM246.782 116C246.39 116 246.086 115.893 245.872 115.678C245.666 115.463 245.564 115.169 245.564 114.796V110.12H243.506V109.154H245.564V106.718H246.67V109.154H248.91V110.12H246.67V114.628C246.67 114.908 246.805 115.048 247.076 115.048H248.602V116H246.782ZM250.701 116V106.2H251.807V110.246H252.003C252.096 110.041 252.236 109.849 252.423 109.672C252.619 109.485 252.866 109.331 253.165 109.21C253.473 109.089 253.86 109.028 254.327 109.028C254.84 109.028 255.298 109.14 255.699 109.364C256.11 109.579 256.436 109.896 256.679 110.316C256.922 110.727 257.043 111.24 257.043 111.856V116H255.937V111.94C255.937 111.259 255.764 110.764 255.419 110.456C255.083 110.148 254.626 109.994 254.047 109.994C253.384 109.994 252.843 110.209 252.423 110.638C252.012 111.067 251.807 111.707 251.807 112.556V116H250.701ZM262.883 116V109.154H263.961V109.994H264.157C264.278 109.695 264.465 109.476 264.717 109.336C264.969 109.196 265.3 109.126 265.711 109.126H266.523V110.134H265.641C265.146 110.134 264.745 110.274 264.437 110.554C264.138 110.825 263.989 111.249 263.989 111.828V116H262.883ZM270.028 116.196C269.552 116.196 269.118 116.112 268.726 115.944C268.334 115.776 268.026 115.533 267.802 115.216C267.578 114.899 267.466 114.511 267.466 114.054C267.466 113.587 267.578 113.205 267.802 112.906C268.026 112.598 268.334 112.369 268.726 112.22C269.118 112.061 269.556 111.982 270.042 111.982H272.352V111.478C272.352 110.993 272.207 110.61 271.918 110.33C271.638 110.05 271.218 109.91 270.658 109.91C270.107 109.91 269.678 110.045 269.37 110.316C269.062 110.577 268.852 110.932 268.74 111.38L267.704 111.044C267.816 110.661 267.993 110.316 268.236 110.008C268.478 109.691 268.8 109.439 269.202 109.252C269.612 109.056 270.102 108.958 270.672 108.958C271.549 108.958 272.23 109.187 272.716 109.644C273.201 110.092 273.444 110.727 273.444 111.548V114.642C273.444 114.922 273.574 115.062 273.836 115.062H274.466V116H273.5C273.192 116 272.944 115.916 272.758 115.748C272.571 115.571 272.478 115.337 272.478 115.048V114.978H272.31C272.207 115.155 272.067 115.342 271.89 115.538C271.722 115.725 271.488 115.879 271.19 116C270.891 116.131 270.504 116.196 270.028 116.196ZM270.154 115.244C270.807 115.244 271.334 115.053 271.736 114.67C272.146 114.278 272.352 113.732 272.352 113.032V112.878H270.084C269.645 112.878 269.281 112.976 268.992 113.172C268.712 113.359 268.572 113.643 268.572 114.026C268.572 114.409 268.716 114.707 269.006 114.922C269.304 115.137 269.687 115.244 270.154 115.244ZM278.049 116C277.657 116 277.354 115.893 277.139 115.678C276.934 115.463 276.831 115.169 276.831 114.796V110.12H274.773V109.154H276.831V106.718H277.937V109.154H280.177V110.12H277.937V114.628C277.937 114.908 278.073 115.048 278.343 115.048H279.869V116H278.049ZM284.859 116.196C284.168 116.196 283.561 116.051 283.039 115.762C282.516 115.463 282.11 115.048 281.821 114.516C281.531 113.984 281.387 113.368 281.387 112.668V112.5C281.387 111.791 281.531 111.17 281.821 110.638C282.11 110.106 282.511 109.695 283.025 109.406C283.538 109.107 284.126 108.958 284.789 108.958C285.433 108.958 286.002 109.098 286.497 109.378C286.991 109.649 287.379 110.041 287.659 110.554C287.939 111.067 288.079 111.669 288.079 112.36V112.864H282.493C282.521 113.601 282.759 114.18 283.207 114.6C283.655 115.011 284.215 115.216 284.887 115.216C285.475 115.216 285.927 115.081 286.245 114.81C286.562 114.539 286.805 114.217 286.973 113.844L287.925 114.306C287.785 114.595 287.589 114.885 287.337 115.174C287.094 115.463 286.772 115.706 286.371 115.902C285.979 116.098 285.475 116.196 284.859 116.196ZM282.507 111.954H286.959C286.921 111.319 286.702 110.825 286.301 110.47C285.909 110.115 285.405 109.938 284.789 109.938C284.163 109.938 283.65 110.115 283.249 110.47C282.847 110.825 282.6 111.319 282.507 111.954Z" fill="#2C303B"/>
<path d="M338.12 116V106.2H341.872C342.46 106.2 342.983 106.317 343.44 106.55C343.907 106.774 344.275 107.096 344.546 107.516C344.817 107.936 344.952 108.445 344.952 109.042V109.224C344.952 109.812 344.812 110.321 344.532 110.75C344.261 111.17 343.893 111.492 343.426 111.716C342.959 111.94 342.441 112.052 341.872 112.052H339.296V116H338.12ZM339.296 110.988H341.746C342.371 110.988 342.866 110.834 343.23 110.526C343.594 110.209 343.776 109.765 343.776 109.196V109.056C343.776 108.487 343.594 108.048 343.23 107.74C342.875 107.423 342.381 107.264 341.746 107.264H339.296V110.988ZM349.515 116.196C348.825 116.196 348.213 116.051 347.681 115.762C347.159 115.473 346.748 115.067 346.449 114.544C346.16 114.012 346.015 113.387 346.015 112.668V112.486C346.015 111.777 346.16 111.156 346.449 110.624C346.748 110.092 347.159 109.681 347.681 109.392C348.213 109.103 348.825 108.958 349.515 108.958C350.206 108.958 350.813 109.103 351.335 109.392C351.867 109.681 352.278 110.092 352.567 110.624C352.866 111.156 353.015 111.777 353.015 112.486V112.668C353.015 113.387 352.866 114.012 352.567 114.544C352.278 115.067 351.867 115.473 351.335 115.762C350.813 116.051 350.206 116.196 349.515 116.196ZM349.515 115.202C350.243 115.202 350.822 114.973 351.251 114.516C351.69 114.049 351.909 113.424 351.909 112.64V112.514C351.909 111.73 351.69 111.109 351.251 110.652C350.822 110.185 350.243 109.952 349.515 109.952C348.797 109.952 348.218 110.185 347.779 110.652C347.341 111.109 347.121 111.73 347.121 112.514V112.64C347.121 113.424 347.341 114.049 347.779 114.516C348.218 114.973 348.797 115.202 349.515 115.202ZM357.252 116C356.86 116 356.557 115.893 356.342 115.678C356.137 115.463 356.034 115.169 356.034 114.796V110.12H353.976V109.154H356.034V106.718H357.14V109.154H359.38V110.12H357.14V114.628C357.14 114.908 357.276 115.048 357.546 115.048H359.072V116H357.252ZM364.062 116.196C363.371 116.196 362.764 116.051 362.242 115.762C361.719 115.463 361.313 115.048 361.024 114.516C360.734 113.984 360.59 113.368 360.59 112.668V112.5C360.59 111.791 360.734 111.17 361.024 110.638C361.313 110.106 361.714 109.695 362.228 109.406C362.741 109.107 363.329 108.958 363.992 108.958C364.636 108.958 365.205 109.098 365.7 109.378C366.194 109.649 366.582 110.041 366.862 110.554C367.142 111.067 367.282 111.669 367.282 112.36V112.864H361.696C361.724 113.601 361.962 114.18 362.41 114.6C362.858 115.011 363.418 115.216 364.09 115.216C364.678 115.216 365.13 115.081 365.448 114.81C365.765 114.539 366.008 114.217 366.176 113.844L367.128 114.306C366.988 114.595 366.792 114.885 366.54 115.174C366.297 115.463 365.975 115.706 365.574 115.902C365.182 116.098 364.678 116.196 364.062 116.196ZM361.71 111.954H366.162C366.124 111.319 365.905 110.825 365.504 110.47C365.112 110.115 364.608 109.938 363.992 109.938C363.366 109.938 362.853 110.115 362.452 110.47C362.05 110.825 361.803 111.319 361.71 111.954ZM369.211 116V109.154H370.289V110.316H370.485C370.634 109.989 370.886 109.695 371.241 109.434C371.605 109.163 372.137 109.028 372.837 109.028C373.35 109.028 373.807 109.135 374.209 109.35C374.619 109.565 374.946 109.882 375.189 110.302C375.431 110.722 375.553 111.24 375.553 111.856V116H374.447V111.94C374.447 111.259 374.274 110.764 373.929 110.456C373.593 110.148 373.135 109.994 372.557 109.994C371.894 109.994 371.353 110.209 370.933 110.638C370.522 111.067 370.317 111.707 370.317 112.556V116H369.211ZM380.125 116C379.733 116 379.43 115.893 379.215 115.678C379.01 115.463 378.907 115.169 378.907 114.796V110.12H376.849V109.154H378.907V106.718H380.013V109.154H382.253V110.12H380.013V114.628C380.013 114.908 380.149 115.048 380.419 115.048H381.945V116H380.125ZM384.045 116V109.154H385.151V116H384.045ZM384.605 108.09C384.362 108.09 384.157 108.011 383.989 107.852C383.83 107.693 383.751 107.493 383.751 107.25C383.751 106.998 383.83 106.793 383.989 106.634C384.157 106.475 384.362 106.396 384.605 106.396C384.847 106.396 385.048 106.475 385.207 106.634C385.365 106.793 385.445 106.998 385.445 107.25C385.445 107.493 385.365 107.693 385.207 107.852C385.048 108.011 384.847 108.09 384.605 108.09ZM389.576 116.196C389.1 116.196 388.666 116.112 388.274 115.944C387.882 115.776 387.574 115.533 387.35 115.216C387.126 114.899 387.014 114.511 387.014 114.054C387.014 113.587 387.126 113.205 387.35 112.906C387.574 112.598 387.882 112.369 388.274 112.22C388.666 112.061 389.105 111.982 389.59 111.982H391.9V111.478C391.9 110.993 391.756 110.61 391.466 110.33C391.186 110.05 390.766 109.91 390.206 109.91C389.656 109.91 389.226 110.045 388.918 110.316C388.61 110.577 388.4 110.932 388.288 111.38L387.252 111.044C387.364 110.661 387.542 110.316 387.784 110.008C388.027 109.691 388.349 109.439 388.75 109.252C389.161 109.056 389.651 108.958 390.22 108.958C391.098 108.958 391.779 109.187 392.264 109.644C392.75 110.092 392.992 110.727 392.992 111.548V114.642C392.992 114.922 393.123 115.062 393.384 115.062H394.014V116H393.048C392.74 116 392.493 115.916 392.306 115.748C392.12 115.571 392.026 115.337 392.026 115.048V114.978H391.858C391.756 115.155 391.616 115.342 391.438 115.538C391.27 115.725 391.037 115.879 390.738 116C390.44 116.131 390.052 116.196 389.576 116.196ZM389.702 115.244C390.356 115.244 390.883 115.053 391.284 114.67C391.695 114.278 391.9 113.732 391.9 113.032V112.878H389.632C389.194 112.878 388.83 112.976 388.54 113.172C388.26 113.359 388.12 113.643 388.12 114.026C388.12 114.409 388.265 114.707 388.554 114.922C388.853 115.137 389.236 115.244 389.702 115.244ZM395.529 116V106.2H396.635V116H395.529ZM405.175 116.126C404.68 116.126 404.223 116.019 403.803 115.804C403.392 115.589 403.065 115.272 402.823 114.852C402.589 114.423 402.473 113.905 402.473 113.298V109.154H403.579V113.214C403.579 113.895 403.747 114.39 404.083 114.698C404.428 115.006 404.89 115.16 405.469 115.16C406.122 115.16 406.659 114.945 407.079 114.516C407.499 114.087 407.709 113.447 407.709 112.598V109.154H408.815V116H407.737V114.838H407.541C407.391 115.165 407.135 115.463 406.771 115.734C406.407 115.995 405.875 116.126 405.175 116.126ZM411.129 116V109.154H412.207V110.316H412.403C412.552 109.989 412.804 109.695 413.159 109.434C413.523 109.163 414.055 109.028 414.755 109.028C415.268 109.028 415.725 109.135 416.127 109.35C416.537 109.565 416.864 109.882 417.107 110.302C417.349 110.722 417.471 111.24 417.471 111.856V116H416.365V111.94C416.365 111.259 416.192 110.764 415.847 110.456C415.511 110.148 415.053 109.994 414.475 109.994C413.812 109.994 413.271 110.209 412.851 110.638C412.44 111.067 412.235 111.707 412.235 112.556V116H411.129ZM419.715 116V109.154H420.821V116H419.715ZM420.275 108.09C420.032 108.09 419.827 108.011 419.659 107.852C419.5 107.693 419.421 107.493 419.421 107.25C419.421 106.998 419.5 106.793 419.659 106.634C419.827 106.475 420.032 106.396 420.275 106.396C420.517 106.396 420.718 106.475 420.877 106.634C421.035 106.793 421.115 106.998 421.115 107.25C421.115 107.493 421.035 107.693 420.877 107.852C420.718 108.011 420.517 108.09 420.275 108.09ZM425.666 116C425.274 116 424.971 115.893 424.756 115.678C424.551 115.463 424.448 115.169 424.448 114.796V110.12H422.39V109.154H424.448V106.718H425.554V109.154H427.794V110.12H425.554V114.628C425.554 114.908 425.69 115.048 425.96 115.048H427.486V116H425.666ZM432.846 112.612V112.416C432.846 111.697 432.99 111.081 433.28 110.568C433.569 110.055 433.961 109.658 434.456 109.378C434.95 109.098 435.492 108.958 436.08 108.958C436.798 108.958 437.349 109.098 437.732 109.378C438.124 109.649 438.413 109.952 438.6 110.288H438.796V109.154H439.846V117.596C439.846 117.969 439.743 118.263 439.538 118.478C439.332 118.693 439.034 118.8 438.642 118.8H433.994V117.82H438.348C438.628 117.82 438.768 117.68 438.768 117.4V114.796H438.572C438.46 115.001 438.301 115.202 438.096 115.398C437.89 115.594 437.624 115.757 437.298 115.888C436.971 116.009 436.565 116.07 436.08 116.07C435.492 116.07 434.95 115.93 434.456 115.65C433.961 115.37 433.569 114.973 433.28 114.46C432.99 113.937 432.846 113.321 432.846 112.612ZM436.374 115.09C437.083 115.09 437.657 114.866 438.096 114.418C438.544 113.97 438.768 113.354 438.768 112.57V112.458C438.768 111.665 438.544 111.049 438.096 110.61C437.657 110.162 437.083 109.938 436.374 109.938C435.674 109.938 435.095 110.162 434.638 110.61C434.19 111.049 433.966 111.665 433.966 112.458V112.57C433.966 113.354 434.19 113.97 434.638 114.418C435.095 114.866 435.674 115.09 436.374 115.09ZM442.164 116V109.154H443.242V109.994H443.438C443.559 109.695 443.746 109.476 443.998 109.336C444.25 109.196 444.581 109.126 444.992 109.126H445.804V110.134H444.922C444.427 110.134 444.026 110.274 443.718 110.554C443.419 110.825 443.27 111.249 443.27 111.828V116H442.164ZM450.359 116.196C449.669 116.196 449.057 116.051 448.525 115.762C448.003 115.473 447.592 115.067 447.293 114.544C447.004 114.012 446.859 113.387 446.859 112.668V112.486C446.859 111.777 447.004 111.156 447.293 110.624C447.592 110.092 448.003 109.681 448.525 109.392C449.057 109.103 449.669 108.958 450.359 108.958C451.05 108.958 451.657 109.103 452.179 109.392C452.711 109.681 453.122 110.092 453.411 110.624C453.71 111.156 453.859 111.777 453.859 112.486V112.668C453.859 113.387 453.71 114.012 453.411 114.544C453.122 115.067 452.711 115.473 452.179 115.762C451.657 116.051 451.05 116.196 450.359 116.196ZM450.359 115.202C451.087 115.202 451.666 114.973 452.095 114.516C452.534 114.049 452.753 113.424 452.753 112.64V112.514C452.753 111.73 452.534 111.109 452.095 110.652C451.666 110.185 451.087 109.952 450.359 109.952C449.641 109.952 449.062 110.185 448.623 110.652C448.185 111.109 447.965 111.73 447.965 112.514V112.64C447.965 113.424 448.185 114.049 448.623 114.516C449.062 114.973 449.641 115.202 450.359 115.202ZM456.665 116L455.293 109.154H456.413L457.547 115.258H457.743L459.241 109.154H461.075L462.573 115.258H462.769L463.903 109.154H465.023L463.651 116H461.761L460.249 109.896H460.067L458.555 116H456.665ZM469.444 116C469.052 116 468.748 115.893 468.534 115.678C468.328 115.463 468.226 115.169 468.226 114.796V110.12H466.168V109.154H468.226V106.718H469.332V109.154H471.572V110.12H469.332V114.628C469.332 114.908 469.467 115.048 469.738 115.048H471.264V116H469.444ZM473.363 116V106.2H474.469V110.246H474.665C474.759 110.041 474.899 109.849 475.085 109.672C475.281 109.485 475.529 109.331 475.827 109.21C476.135 109.089 476.523 109.028 476.989 109.028C477.503 109.028 477.96 109.14 478.361 109.364C478.772 109.579 479.099 109.896 479.341 110.316C479.584 110.727 479.705 111.24 479.705 111.856V116H478.599V111.94C478.599 111.259 478.427 110.764 478.081 110.456C477.745 110.148 477.288 109.994 476.709 109.994C476.047 109.994 475.505 110.209 475.085 110.638C474.675 111.067 474.469 111.707 474.469 112.556V116H473.363ZM485.545 116V109.154H486.623V109.994H486.819C486.94 109.695 487.127 109.476 487.379 109.336C487.631 109.196 487.962 109.126 488.373 109.126H489.185V110.134H488.303C487.808 110.134 487.407 110.274 487.099 110.554C486.8 110.825 486.651 111.249 486.651 111.828V116H485.545ZM492.69 116.196C492.214 116.196 491.78 116.112 491.388 115.944C490.996 115.776 490.688 115.533 490.464 115.216C490.24 114.899 490.128 114.511 490.128 114.054C490.128 113.587 490.24 113.205 490.464 112.906C490.688 112.598 490.996 112.369 491.388 112.22C491.78 112.061 492.218 111.982 492.704 111.982H495.014V111.478C495.014 110.993 494.869 110.61 494.58 110.33C494.3 110.05 493.88 109.91 493.32 109.91C492.769 109.91 492.34 110.045 492.032 110.316C491.724 110.577 491.514 110.932 491.402 111.38L490.366 111.044C490.478 110.661 490.655 110.316 490.898 110.008C491.14 109.691 491.462 109.439 491.864 109.252C492.274 109.056 492.764 108.958 493.334 108.958C494.211 108.958 494.892 109.187 495.378 109.644C495.863 110.092 496.106 110.727 496.106 111.548V114.642C496.106 114.922 496.236 115.062 496.498 115.062H497.128V116H496.162C495.854 116 495.606 115.916 495.42 115.748C495.233 115.571 495.14 115.337 495.14 115.048V114.978H494.972C494.869 115.155 494.729 115.342 494.552 115.538C494.384 115.725 494.15 115.879 493.852 116C493.553 116.131 493.166 116.196 492.69 116.196ZM492.816 115.244C493.469 115.244 493.996 115.053 494.398 114.67C494.808 114.278 495.014 113.732 495.014 113.032V112.878H492.746C492.307 112.878 491.943 112.976 491.654 113.172C491.374 113.359 491.234 113.643 491.234 114.026C491.234 114.409 491.378 114.707 491.668 114.922C491.966 115.137 492.349 115.244 492.816 115.244ZM500.711 116C500.319 116 500.016 115.893 499.801 115.678C499.596 115.463 499.493 115.169 499.493 114.796V110.12H497.435V109.154H499.493V106.718H500.599V109.154H502.839V110.12H500.599V114.628C500.599 114.908 500.735 115.048 501.005 115.048H502.531V116H500.711ZM507.521 116.196C506.83 116.196 506.223 116.051 505.701 115.762C505.178 115.463 504.772 115.048 504.483 114.516C504.193 113.984 504.049 113.368 504.049 112.668V112.5C504.049 111.791 504.193 111.17 504.483 110.638C504.772 110.106 505.173 109.695 505.687 109.406C506.2 109.107 506.788 108.958 507.451 108.958C508.095 108.958 508.664 109.098 509.159 109.378C509.653 109.649 510.041 110.041 510.321 110.554C510.601 111.067 510.741 111.669 510.741 112.36V112.864H505.155C505.183 113.601 505.421 114.18 505.869 114.6C506.317 115.011 506.877 115.216 507.549 115.216C508.137 115.216 508.589 115.081 508.907 114.81C509.224 114.539 509.467 114.217 509.635 113.844L510.587 114.306C510.447 114.595 510.251 114.885 509.999 115.174C509.756 115.463 509.434 115.706 509.033 115.902C508.641 116.098 508.137 116.196 507.521 116.196ZM505.169 111.954H509.621C509.583 111.319 509.364 110.825 508.963 110.47C508.571 110.115 508.067 109.938 507.451 109.938C506.825 109.938 506.312 110.115 505.911 110.47C505.509 110.825 505.262 111.319 505.169 111.954Z" fill="#2C303B"/>
<rect x="100" y="103" width="16" height="16" rx="4" fill="#FFE7DF"/>
<rect x="313" y="103" width="16" height="16" rx="4" fill="#FFB69E"/>
<defs>
<filter id="filter0_d_860_7549" x="0" y="0" width="1400" height="626" filterUnits="userSpaceOnUse" color-interpolation-filters="sRGB">
<feFlood flood-opacity="0" result="BackgroundImageFix"/>
<feColorMatrix in="SourceAlpha" type="matrix" values="0 0 0 0 0 0 0 0 0 0 0 0 0 0 0 0 0 0 127 0" result="hardAlpha"/>
<feOffset dy="1"/>
<feGaussianBlur stdDeviation="30"/>
<feComposite in2="hardAlpha" operator="out"/>
<feColorMatrix type="matrix" values="0 0 0 0 0.172549 0 0 0 0 0.188235 0 0 0 0 0.231373 0 0 0 0.06 0"/>
<feBlend mode="normal" in2="BackgroundImageFix" result="effect1_dropShadow_860_7549"/>
<feBlend mode="normal" in="SourceGraphic" in2="effect1_dropShadow_860_7549" result="shape"/>
</filter>
</defs>
</svg>