<svg width="30" height="37" viewBox="0 0 30 37" fill="none" xmlns="http://www.w3.org/2000/svg">
<path fill-rule="evenodd" clip-rule="evenodd" d="M26.8906 1.73763H3.06832C2.39219 1.73763 1.88042 2.20995 1.81155 2.80421C1.54909 5.0689 1.23955 8.77863 1.41127 12.6858C1.58444 16.6262 2.24188 20.604 3.80162 23.5086C5.01402 25.7663 7.21264 28.2022 9.46989 30.3359C11.6768 32.4219 13.847 34.1335 14.9795 34.9932C16.1119 34.1335 18.2822 32.4219 20.4891 30.3359C22.7463 28.2022 24.9449 25.7663 26.1573 23.5086C27.7171 20.604 28.3745 16.6262 28.5477 12.6858C28.7194 8.77863 28.4099 5.0689 28.1474 2.80421C28.0785 2.20995 27.5668 1.73763 26.8906 1.73763ZM3.06832 0.375854H26.8906C28.2189 0.375854 29.3472 1.328 29.5001 2.64744C30.0341 7.25493 30.7686 17.7999 27.3571 24.1528C24.7197 29.064 18.0406 34.3824 15.7581 36.1118C15.2933 36.4639 14.6656 36.4639 14.2009 36.1118C11.9184 34.3824 5.23923 29.064 2.60189 24.1528C-0.809616 17.7999 -0.075138 7.25493 0.458837 2.64744C0.611751 1.328 1.74005 0.375854 3.06832 0.375854Z" fill="#28245C"/>
<path d="M25 15.3759C25 20.8987 20.5228 25.3759 15 25.3759C9.47715 25.3759 5 20.8987 5 15.3759C5 9.85301 9.47715 5.37585 15 5.37585C20.5228 5.37585 25 9.85301 25 15.3759Z" fill="#FF865D" fill-opacity="0.1"/>
<path fill-rule="evenodd" clip-rule="evenodd" d="M15 23.8759C19.6944 23.8759 23.5 20.0703 23.5 15.3759C23.5 10.6814 19.6944 6.87585 15 6.87585C10.3056 6.87585 6.5 10.6814 6.5 15.3759C6.5 20.0703 10.3056 23.8759 15 23.8759ZM15 25.3759C20.5228 25.3759 25 20.8987 25 15.3759C25 9.85301 20.5228 5.37585 15 5.37585C9.47715 5.37585 5 9.85301 5 15.3759C5 20.8987 9.47715 25.3759 15 25.3759Z" fill="#FF865D"/>
<path fill-rule="evenodd" clip-rule="evenodd" d="M20.9081 11.6964C21.174 11.9623 21.174 12.3934 20.9081 12.6593L14.0993 19.4681C13.8334 19.7341 13.4023 19.7341 13.1364 19.4681L9.50497 15.8368C9.23907 15.5709 9.23907 15.1397 9.50497 14.8738C9.77087 14.6079 10.202 14.6079 10.4679 14.8738L13.6178 18.0238L19.9452 11.6964C20.2111 11.4305 20.6422 11.4305 20.9081 11.6964Z" fill="#FF865D"/>
</svg>
