<svg width="27" height="36" viewBox="0 0 27 36" fill="none" xmlns="http://www.w3.org/2000/svg">
<path fill-rule="evenodd" clip-rule="evenodd" d="M13.4998 24.0361C19.6635 24.0361 24.6603 19.0394 24.6603 12.8756C24.6603 6.71184 19.6635 1.71511 13.4998 1.71511C7.33598 1.71511 2.33926 6.71184 2.33926 12.8756C2.33926 19.0394 7.33598 24.0361 13.4998 24.0361ZM13.4998 25.3754C20.4032 25.3754 25.9995 19.779 25.9995 12.8756C25.9995 5.97219 20.4032 0.375854 13.4998 0.375854C6.59633 0.375854 1 5.97219 1 12.8756C1 19.779 6.59633 25.3754 13.4998 25.3754Z" fill="#28245C"/>
<path fill-rule="evenodd" clip-rule="evenodd" d="M13.4997 20.4648C17.6911 20.4648 21.0889 17.067 21.0889 12.8757C21.0889 8.6843 17.6911 5.28653 13.4997 5.28653C9.30838 5.28653 5.91061 8.6843 5.91061 12.8757C5.91061 17.067 9.30838 20.4648 13.4997 20.4648ZM13.4997 21.8041C18.4308 21.8041 22.4281 17.8067 22.4281 12.8757C22.4281 7.94465 18.4308 3.94727 13.4997 3.94727C8.56873 3.94727 4.57135 7.94465 4.57135 12.8757C4.57135 17.8067 8.56873 21.8041 13.4997 21.8041Z" fill="#FF865D"/>
<circle opacity="0.1" cx="13.5" cy="12.8759" r="8.5" fill="#FF865D"/>
<path fill-rule="evenodd" clip-rule="evenodd" d="M6.62031 21.9788C6.95775 22.1301 7.10859 22.5264 6.95722 22.8638L3.19818 31.2438L4.11456 30.6652C4.30429 30.5454 4.54142 30.5286 4.74616 30.6204C4.9509 30.7122 5.09603 30.9005 5.13271 31.1219L5.30991 32.1911L9.06895 23.8111C9.22031 23.4736 9.61656 23.3228 9.95399 23.4742C10.2914 23.6255 10.4423 24.0218 10.2909 24.3592L5.62323 34.7648C5.50235 35.0343 5.2192 35.1928 4.9263 35.1549C4.6334 35.117 4.39992 34.8916 4.35163 34.6003L3.97644 32.3363L2.0361 33.5616C1.78638 33.7193 1.46283 33.6947 1.23975 33.5012C1.01666 33.3076 0.946718 32.9908 1.0676 32.7213L5.73527 22.3157C5.88663 21.9783 6.28288 21.8274 6.62031 21.9788Z" fill="#28245C"/>
<path fill-rule="evenodd" clip-rule="evenodd" d="M20.345 21.9788C20.0076 22.1301 19.8567 22.5264 20.0081 22.8638L23.7672 31.2438L22.8508 30.6652C22.661 30.5454 22.4239 30.5286 22.2192 30.6204C22.0144 30.7122 21.8693 30.9005 21.8326 31.1219L21.6554 32.1911L17.8964 23.8111C17.745 23.4736 17.3488 23.3228 17.0113 23.4742C16.6739 23.6255 16.5231 24.0218 16.6744 24.3592L21.3421 34.7648C21.463 35.0343 21.7461 35.1928 22.039 35.1549C22.3319 35.117 22.5654 34.8916 22.6137 34.6003L22.9889 32.3363L24.9292 33.5616C25.179 33.7193 25.5025 33.6947 25.7256 33.5012C25.9487 33.3076 26.0186 32.9908 25.8977 32.7213L21.2301 22.3157C21.0787 21.9783 20.6825 21.8274 20.345 21.9788Z" fill="#28245C"/>
<path d="M13.5 8.37585L15 10.8759L17.5 11.3759L16 13.8759V16.3759L13.5 15.3759L11 16.3759V13.3759L9.5 11.3759L12 10.8759L13.5 8.37585Z" fill="white"/>
<path fill-rule="evenodd" clip-rule="evenodd" d="M13.4998 7.7417C13.7381 7.7417 13.9584 7.86837 14.0784 8.0743L15.3731 10.2971L17.8872 10.8416C18.1201 10.892 18.3087 11.0624 18.3823 11.2891C18.456 11.5157 18.4036 11.7645 18.2448 11.9422L16.5308 13.8604L16.79 16.4197C16.814 16.6568 16.7102 16.8888 16.5173 17.0289C16.3245 17.169 16.0718 17.196 15.8537 17.0999L13.4998 16.0626L11.1458 17.0999C10.9277 17.196 10.675 17.169 10.4822 17.0289C10.2894 16.8888 10.1855 16.6568 10.2095 16.4197L10.4687 13.8604L8.75472 11.9422C8.59592 11.7645 8.54355 11.5157 8.6172 11.2891C8.69084 11.0624 8.87941 10.892 9.11233 10.8416L11.6264 10.2971L12.9211 8.0743C13.0411 7.86837 13.2614 7.7417 13.4998 7.7417ZM13.4998 9.74181L12.6352 11.2262C12.5406 11.3886 12.382 11.5038 12.1983 11.5436L10.5194 11.9072L11.664 13.1881C11.7892 13.3283 11.8498 13.5147 11.8308 13.7017L11.6578 15.4108L13.2297 14.7181C13.4018 14.6423 13.5977 14.6423 13.7698 14.7181L15.3417 15.4108L15.1687 13.7017C15.1497 13.5147 15.2103 13.3283 15.3356 13.1881L16.4801 11.9072L14.8012 11.5436C14.6175 11.5038 14.4589 11.3886 14.3643 11.2262L13.4998 9.74181Z" fill="#FF865D"/>
</svg>
