<svg width="40" height="41" viewBox="0 0 40 41" fill="none" xmlns="http://www.w3.org/2000/svg">
<path d="M13.1343 3.37585C13.1343 1.719 14.4775 0.375854 16.1343 0.375854H37C38.6569 0.375854 40 1.719 40 3.37585V24.2415C40 25.8984 38.6569 27.2415 37 27.2415H16.1343C14.4775 27.2415 13.1343 25.8984 13.1343 24.2415V3.37585Z" fill="#FF865D" fill-opacity="0.1"/>
<path fill-rule="evenodd" clip-rule="evenodd" d="M14.986 27.0139L15.5606 25.6283C15.7353 25.7008 15.9282 25.7415 16.1343 25.7415H17.8731V27.2415H16.1343C15.7276 27.2415 15.3397 27.1606 14.986 27.0139ZM35.2612 27.2415V25.7415H37C37.2062 25.7415 37.399 25.7008 37.5738 25.6283L38.1484 27.0139C37.7946 27.1606 37.4068 27.2415 37 27.2415H35.2612ZM40 5.11466H38.5V3.37585C38.5 3.1697 38.4593 2.97685 38.3868 2.80207L39.7724 2.22749C39.9191 2.58121 40 2.96908 40 3.37585V5.11466ZM17.8731 0.375854H16.1343C15.7276 0.375854 15.3397 0.456813 14.986 0.603496L15.5606 1.98908C15.7353 1.91661 15.9282 1.87585 16.1343 1.87585H17.8731V0.375854ZM13.1343 22.5027H14.6343V24.2415C14.6343 24.4477 14.6751 24.6405 14.7476 24.8153L13.362 25.3899C13.2153 25.0362 13.1343 24.6483 13.1343 24.2415V22.5027ZM13.1343 19.0251H14.6343V15.5475H13.1343V19.0251ZM13.1343 12.0699H14.6343V8.59227H13.1343V12.0699ZM13.1343 5.11466H14.6343V3.37585C14.6343 3.1697 14.6751 2.97685 14.7476 2.80207L13.362 2.22749C13.2153 2.58121 13.1343 2.96908 13.1343 3.37585V5.11466ZM21.3508 0.375854V1.87585H24.8284V0.375854H21.3508ZM28.306 0.375854V1.87585H31.7836V0.375854H28.306ZM35.2612 0.375854V1.87585H37C37.2062 1.87585 37.399 1.91661 37.5738 1.98909L38.1484 0.603496C37.7946 0.456813 37.4068 0.375854 37 0.375854H35.2612ZM40 8.59227H38.5V12.0699H40V8.59227ZM40 15.5475H38.5V19.0251H40V15.5475ZM40 22.5027H38.5V24.2415C38.5 24.4477 38.4593 24.6405 38.3868 24.8153L39.7724 25.3899C39.9191 25.0362 40 24.6483 40 24.2415V22.5027ZM31.7836 27.2415V25.7415H28.306V27.2415H31.7836ZM24.8284 27.2415V25.7415H21.3508V27.2415H24.8284Z" fill="#FF865D"/>
<path fill-rule="evenodd" clip-rule="evenodd" d="M23.8657 15.0101H3C2.17157 15.0101 1.5 15.6817 1.5 16.5101V37.3758C1.5 38.2042 2.17157 38.8758 3 38.8758H23.8657C24.6941 38.8758 25.3657 38.2042 25.3657 37.3758V16.5101C25.3657 15.6817 24.6941 15.0101 23.8657 15.0101ZM3 13.5101C1.34315 13.5101 0 14.8533 0 16.5101V37.3758C0 39.0327 1.34315 40.3758 3 40.3758H23.8657C25.5225 40.3758 26.8657 39.0327 26.8657 37.3758V16.5101C26.8657 14.8533 25.5225 13.5101 23.8657 13.5101H3Z" fill="#28245C"/>
</svg>
